<?xml version="1.0" encoding="iso-8859-1"?>
<!-- Generator: Adobe Illustrator 19.0.0, SVG Export Plug-In . SVG Version: 6.00 Build 0)  -->
<svg version="1.1" id="Capa_1" xmlns="http://www.w3.org/2000/svg" xmlns:xlink="http://www.w3.org/1999/xlink" x="0px" y="0px"
	 viewBox="0 0 511.999 511.999" style="enable-background:new 0 0 511.999 511.999;" xml:space="preserve">
<path style="fill:#27AAE1;" d="M459.172,271.547c-43.517,55.721-123.97,65.612-179.69,22.095
	c-13.783-10.762-25.21-24.237-33.583-39.591c60.184,32.678,135.431,12.272,170.857-46.341
	C406.114,133.052,336.969,81.155,262.31,91.789c-67.268,9.584-117.253,67.174-117.287,135.124c0,1.963,0,3.926,0.171,5.889
	c-11.009-3.926-22.616-5.923-34.308-5.889c-56.557,0-102.412,45.855-102.412,102.412s45.855,102.412,102.412,102.412h307.236
	c47.135,0.026,85.36-38.166,85.386-85.301C503.525,315.252,486.524,286.534,459.172,271.547z"/>
<path style="fill:#FFDA44;" d="M307.175,269.585c-21.404,0.034-42.475-5.308-61.276-15.532
	c33.873,62.087,111.672,84.959,173.759,51.086s84.959-111.672,51.086-173.759c-11.769-21.575-29.503-39.309-51.086-51.086
	c33.787,62.164,10.787,139.946-51.368,173.733C349.531,264.225,328.528,269.576,307.175,269.585z"/>
<path style="fill:#231F20;" d="M471.35,269.252c15.439-22.505,23.666-49.183,23.58-76.476
	c-0.017-49.994-27.31-95.994-71.176-119.976c-4.122-2.287-9.319-0.794-11.598,3.328c-1.425,2.569-1.425,5.684-0.009,8.261
	c16.309,30.049,18.98,65.646,7.357,97.795c-24.801-76.194-106.671-117.851-182.865-93.05
	c-57.743,18.793-97.675,71.56-100.065,132.239C76.953,207.233,17.162,244.101,3.02,303.722s22.727,119.412,82.348,133.554
	c8.364,1.98,16.932,2.987,25.526,2.996H418.13c51.778,0.06,93.809-41.861,93.869-93.647
	C512.033,315.713,496.825,286.764,471.35,269.252z M438.519,104.104c25.048,22.676,39.343,54.884,39.343,88.672
	c-0.119,65.936-53.544,119.361-119.481,119.481c-33.787,0-65.996-14.295-88.672-39.343c17.973,5.078,36.783,6.46,55.302,4.062
	c8.039-1.041,15.968-2.808,23.691-5.274c1.647-0.521,3.286-1.084,4.916-1.707c4.438-1.579,8.799-3.38,13.049-5.402l0.35-0.188
	c12.895-6.273,24.707-14.568,34.991-24.57c8.5-8.261,15.899-17.589,22.027-27.737l0,0c12.887-21.268,19.697-45.659,19.689-70.528
	C443.725,128.905,441.975,116.291,438.519,104.104z M418.122,423.203H110.886c-51.846,0-93.878-42.032-93.878-93.878
	s42.032-93.878,93.878-93.878c10.711-0.034,21.336,1.784,31.423,5.385c4.438,1.596,9.319-0.708,10.915-5.146
	c0.418-1.169,0.58-2.415,0.469-3.653c-0.137-1.707-0.137-3.414-0.137-5.121c0.009-70.698,57.334-128.006,128.032-127.998
	c62.531,0.009,115.905,45.198,126.24,106.875l-0.657,1.016c-2.424,3.721-5.044,7.314-7.852,10.753
	c-0.393,0.478-0.802,0.939-1.203,1.417c-2.85,3.38-5.88,6.597-9.089,9.644c-0.401,0.384-0.853,0.751-1.237,1.127
	c-3.252,3.004-6.674,5.829-10.241,8.449c-0.401,0.29-0.853,0.563-1.229,0.853c-3.619,2.603-7.391,4.984-11.291,7.152
	c-0.384,0.213-0.777,0.401-1.152,0.606c-3.986,2.151-8.091,4.079-12.289,5.769l-1.007,0.367c-4.31,1.681-8.722,3.106-13.203,4.267
	l-0.777,0.171c-4.634,1.178-9.337,2.074-14.073,2.68h-0.469c-24.843,3.124-50.037-1.604-72.064-13.518
	c-4.139-2.253-9.319-0.725-11.573,3.414c-0.486,0.896-0.811,1.869-0.956,2.876c-0.128,0.896-0.119,1.809,0.043,2.697
	c0.171,0.896,0.478,1.758,0.913,2.56c22.386,40.939,64.101,67.643,110.656,70.835c3.089,0.205,6.196,0.316,9.319,0.316
	c5.086-0.009,10.173-0.29,15.234-0.853c1.707-0.188,3.32-0.555,4.993-0.802c3.303-0.495,6.614-0.973,9.849-1.707
	c1.963-0.435,3.866-1.058,5.803-1.579c2.868-0.785,5.744-1.536,8.534-2.492c2.031-0.7,3.994-1.553,5.974-2.347
	c2.611-1.041,5.232-2.065,7.775-3.26c2.006-0.947,3.934-2.031,5.889-3.072c2.415-1.289,4.822-2.56,7.152-4.011
	c1.937-1.186,3.798-2.492,5.675-3.772c2.219-1.528,4.429-3.072,6.563-4.737c1.818-1.417,3.576-2.919,5.325-4.429
	c2.048-1.775,4.062-3.576,5.974-5.479c1.707-1.621,3.269-3.294,4.865-5.01c0.981-1.058,2.048-2.006,2.996-3.089
	c35.23,23.623,44.643,71.338,21.02,106.568C467.74,410.469,443.767,423.237,418.122,423.203z"/>
<g>
</g>
<g>
</g>
<g>
</g>
<g>
</g>
<g>
</g>
<g>
</g>
<g>
</g>
<g>
</g>
<g>
</g>
<g>
</g>
<g>
</g>
<g>
</g>
<g>
</g>
<g>
</g>
<g>
</g>
</svg>
