<svg width="512" height="512" xmlns="http://www.w3.org/2000/svg" xmlns:svg="http://www.w3.org/2000/svg">
 <g>
  <title>Layer 1</title>
  <path id="svg_2" fill="#ff0000" d="m392.708,179.2l-116.906,0l108.373,-170.667l-136.533,0l-128,256l100.693,0l-100.693,238.934l273.066,-324.267z"/>
  <path id="svg_3" fill="#FFFFFF" d="m281.775,8.533l-34.133,0l-128,256l34.133,0l128,-256z"/>
  <path id="svg_4" fill="#bf0000" d="m350.042,179.2l-204.8,243.2l-34.133,81.067l273.066,-324.267l-34.133,0z"/>
  <path id="svg_5" d="m119.642,512c-1.707,0 -3.413,0 -4.267,-0.853c-3.413,-2.56 -5.12,-6.827 -3.413,-10.24l95.573,-227.84l-87.893,0c-2.56,0 -5.973,-1.707 -7.68,-4.267s-1.707,-5.973 0,-8.533l128,-256c1.707,-2.56 4.267,-4.267 7.68,-4.267l136.533,0c3.413,0 5.973,1.707 7.68,4.267s1.707,5.973 0,8.533l-99.84,157.867l100.693,0c3.413,0 5.973,1.707 7.68,5.12c1.707,3.413 0.853,6.827 -0.853,9.387l-273.067,324.266c-1.706,1.707 -4.266,2.56 -6.826,2.56zm13.653,-256l87.04,0c2.56,0 5.12,1.707 6.827,3.413c1.707,2.56 1.707,5.12 0.853,7.68l-78.507,187.733l225.28,-267.093l-98.987,0c-3.413,0 -5.973,-1.707 -7.68,-4.267s-1.707,-5.973 0,-8.533l100.694,-157.866l-116.053,0l-119.467,238.933z"/>
  <g id="svg_6"/>
  <g id="svg_7"/>
  <g id="svg_8"/>
  <g id="svg_9"/>
  <g id="svg_10"/>
  <g id="svg_11"/>
  <g id="svg_12"/>
  <g id="svg_13"/>
  <g id="svg_14"/>
  <g id="svg_15"/>
  <g id="svg_16"/>
  <g id="svg_17"/>
  <g id="svg_18"/>
  <g id="svg_19"/>
  <g id="svg_20"/>
 </g>
</svg>