<?xml version="1.0" encoding="iso-8859-1"?>
<!-- Generator: Adobe Illustrator 19.0.0, SVG Export Plug-In . SVG Version: 6.00 Build 0)  -->
<svg version="1.1" id="Capa_1" xmlns="http://www.w3.org/2000/svg" xmlns:xlink="http://www.w3.org/1999/xlink" x="0px" y="0px"
	 viewBox="0 0 480.013 480.013" style="enable-background:new 0 0 480.013 480.013;" xml:space="preserve">
<g>
	<path style="fill:#DFB28B;" d="M215.55,377.81c7.781-7.249,19.842-7.249,27.624,0l32.232,30.6
		c7.242,6.727,7.659,18.05,0.932,25.292c-0.299,0.322-0.61,0.633-0.932,0.932c-7.785,7.241-19.839,7.241-27.624,0l-0.8-0.752
		l-31.432-29.816c-7.25-6.717-7.683-18.04-0.966-25.29C214.894,378.441,215.216,378.119,215.55,377.81L215.55,377.81z"/>
	<path style="fill:#DFB28B;" d="M298.398,299.13c7.781-7.249,19.842-7.249,27.624,0l32.232,30.592
		c7.244,6.731,7.66,18.059,0.929,25.303c-0.298,0.321-0.608,0.631-0.929,0.929c-7.785,7.241-19.839,7.241-27.624,0l-32.232-30.6
		c-7.242-6.727-7.659-18.05-0.932-25.292C297.765,299.74,298.076,299.429,298.398,299.13z"/>
	<path style="fill:#DFB28B;" d="M270.798,325.354c7.785-7.241,19.839-7.241,27.624,0l32.232,30.6
		c7.242,6.727,7.659,18.05,0.932,25.292c-0.299,0.322-0.61,0.633-0.932,0.932c-7.785,7.241-19.839,7.241-27.624,0l-32.232-30.6
		c-7.242-6.727-7.659-18.05-0.932-25.292C270.165,325.964,270.476,325.653,270.798,325.354z"/>
	<path style="fill:#DFB28B;" d="M243.198,351.578c7.785-7.241,19.839-7.241,27.624,0l32.232,30.6
		c7.244,6.731,7.66,18.059,0.929,25.303c-0.298,0.321-0.608,0.631-0.929,0.929c-7.785,7.241-19.839,7.241-27.624,0l-32.232-30.6
		c-7.244-6.731-7.66-18.059-0.929-25.303C242.568,352.186,242.877,351.876,243.198,351.578z"/>
	<path style="fill:#DFB28B;" d="M230.63,422.69L118.894,318.962l-46.896-46.896l112-112L349.35,321.25L230.63,422.69z"/>
</g>
<g>
	<path style="fill:#E6E6E6;" d="M286.294,158.362l9.6,9.6l104.664,104.664l15.44,15.44l56-56L342.294,102.362L286.294,158.362z
		 M415.998,224.066c4.418,0,8,3.582,8,8s-3.582,8-8,8s-8-3.582-8-8S411.58,224.066,415.998,224.066z"/>
	<path style="fill:#E6E6E6;" d="M193.702,150.362l-56-56L7.998,224.066l56,56l8-8l112-112L193.702,150.362z M63.998,232.066
		c-4.418,0-8-3.582-8-8s3.582-8,8-8s8,3.582,8,8S68.417,232.066,63.998,232.066z"/>
</g>
<g>
	<path style="fill:#ECC19C;" d="M267.894,194.578c-2.973,2.824-6.916,4.399-11.016,4.4h-32.8c-4.099-0.001-8.042,1.571-11.016,4.392
		l-31.2,29.6c-5.121,4.777-5.4,12.801-0.623,17.921c0.2,0.215,0.408,0.422,0.623,0.623c5.506,5.12,14.03,5.12,19.536,0l36-21.208
		c6.251-3.682,14.197-2.697,19.36,2.4l92.592,88.544l51.2-48.624L295.926,167.994L267.894,194.578z"/>
	<path style="fill:#ECC19C;" d="M250.278,377.81c-7.785-7.241-19.839-7.241-27.624,0l-32.256,30.6
		c-7.242,6.727-7.659,18.05-0.932,25.292c0.299,0.322,0.61,0.633,0.932,0.932c7.785,7.241,19.839,7.241,27.624,0l0.8-0.752
		l31.44-29.848c7.246-6.722,7.67-18.045,0.948-25.291C250.911,378.42,250.6,378.109,250.278,377.81z"/>
	<path style="fill:#ECC19C;" d="M167.406,299.13c-7.782-7.249-19.842-7.249-27.624,0l-32.232,30.592
		c-7.244,6.731-7.66,18.059-0.929,25.303c0.298,0.321,0.608,0.631,0.929,0.929c7.785,7.241,19.839,7.241,27.624,0l32.232-30.6
		c7.242-6.727,7.659-18.05,0.932-25.292C168.039,299.74,167.728,299.429,167.406,299.13L167.406,299.13z"/>
	<path style="fill:#ECC19C;" d="M195.03,325.354c-7.785-7.241-19.839-7.241-27.624,0l-32.208,30.6
		c-7.242,6.727-7.659,18.05-0.932,25.292c0.299,0.322,0.61,0.633,0.932,0.932c7.785,7.241,19.839,7.241,27.624,0l32.232-30.6
		c7.235-6.733,7.643-18.057,0.909-25.292C195.664,325.963,195.353,325.653,195.03,325.354L195.03,325.354z"/>
	<path style="fill:#ECC19C;" d="M222.654,351.578c-7.785-7.241-19.839-7.241-27.624,0l-32.232,30.6
		c-7.244,6.731-7.66,18.059-0.929,25.303c0.298,0.321,0.608,0.631,0.929,0.929c7.785,7.241,19.839,7.241,27.624,0l32.232-30.6
		c7.244-6.731,7.66-18.059,0.929-25.303C223.285,352.186,222.975,351.876,222.654,351.578z"/>
</g>
<path style="fill:#0071BC;" d="M87.998,40.066l49.704,54.296L7.998,224.066"/>
<path style="fill:#29485A;" d="M399.998,40.066l-57.704,62.296l129.704,129.704"/>
<path d="M353.39,102.154l52.472-56.648c3.062-3.186,2.961-8.25-0.225-11.311c-3.186-3.062-8.25-2.961-11.311,0.225
	c-0.065,0.068-0.129,0.137-0.192,0.207l-57.6,62.192l-55.896,55.888c-3.123,3.124-3.123,8.188,0,11.312l3.808,3.816l-22.048,20.944
	c-1.489,1.41-3.462,2.195-5.512,2.192h-32.8c-0.844,0.036-1.685,0.116-2.52,0.24l-26.632-30.752l4.44-4.44
	c3.123-3.124,3.123-8.188,0-11.312l-55.896-55.84l-49.6-54.16c-2.982-3.261-8.043-3.486-11.304-0.504
	c-3.261,2.982-3.486,8.043-0.504,11.304l44.544,48.656L2.342,218.41c-3.123,3.124-3.123,8.188,0,11.312l56,56
	c3.124,3.123,8.188,3.123,11.312,0l2.344-2.344l35.432,35.432l-5.384,5.104c-10.447,9.768-10.998,26.155-1.23,36.602
	c0.396,0.424,0.806,0.834,1.23,1.23c5.231,4.914,12.15,7.632,19.328,7.592h0.112c0.069,7.076,3.029,13.816,8.192,18.656
	c5.231,4.91,12.146,7.624,19.32,7.584h0.12c0.064,7.073,3.021,13.812,8.184,18.648c5.231,4.91,12.146,7.624,19.32,7.584h0.112
	c0.067,7.077,3.027,13.818,8.192,18.656c10.897,10.108,27.743,10.108,38.64,0l6.88-6.528l6.464,6.616
	c5.202,4.868,12.076,7.551,19.2,7.496c15.067,0.027,27.592-11.597,28.688-26.624c7.32-0.118,14.31-3.065,19.504-8.224
	c5.182-4.853,8.144-11.621,8.192-18.72c7.451-0.031,14.607-2.914,20-8.056c5.149-4.829,8.104-11.55,8.184-18.608h0.208
	c7.058,0.048,13.865-2.615,19.016-7.44c5.154-4.811,8.085-11.542,8.096-18.592c-0.007-7.21-3.005-14.093-8.28-19.008l-0.168-0.168
	l40.88-38.816l9.928,9.928c3.124,3.123,8.188,3.123,11.312,0l56-56c3.123-3.124,3.123-8.188,0-11.312L353.39,102.154z
	 M19.31,224.066l118.4-118.4l44.688,44.696l-118.4,118.392L19.31,224.066z M113.062,350.154c-4.036-3.672-4.331-9.921-0.659-13.957
	c0.209-0.23,0.429-0.45,0.659-0.659l32.224-30.6c4.68-4.354,11.928-4.354,16.608,0c4.038,3.676,4.332,9.93,0.656,13.968
	c-0.208,0.229-0.427,0.447-0.656,0.656l-32.232,30.6C124.98,354.504,117.741,354.501,113.062,350.154z M140.686,376.386
	c-4.038-3.676-4.332-9.93-0.656-13.968c0.208-0.229,0.427-0.447,0.656-0.656l32.224-30.592c4.68-4.354,11.928-4.354,16.608,0
	c4.036,3.672,4.331,9.921,0.659,13.957c-0.209,0.23-0.429,0.45-0.659,0.659l-32.224,30.6
	C152.582,380.655,145.399,380.655,140.686,376.386z M168.31,402.61c-4.038-3.676-4.332-9.93-0.656-13.968
	c0.208-0.229,0.427-0.447,0.656-0.656l32.224-30.6c4.684-4.351,11.932-4.351,16.616,0c4.038,3.689,4.321,9.954,0.632,13.992
	c-0.201,0.22-0.412,0.431-0.632,0.632l-32.232,30.6C180.238,406.963,172.99,406.963,168.31,402.61z M212.542,428.866
	c-4.677,4.361-11.931,4.361-16.608,0c-4.036-3.672-4.331-9.921-0.659-13.957c0.209-0.23,0.429-0.45,0.659-0.659l32.232-30.616
	c4.709-4.272,11.891-4.272,16.6,0c4.038,3.676,4.332,9.93,0.656,13.968c-0.208,0.229-0.427,0.447-0.656,0.656L212.542,428.866z
	 M264.814,428.666c-4.593,4.461-11.834,4.673-16.68,0.488l-6.096-6.232l13.744-13.048c1.134-1.102,2.17-2.302,3.096-3.584
	l7.616,7.616c1.633,1.508,2.544,3.642,2.504,5.864c-0.157,3.398-1.67,6.591-4.2,8.864L264.814,428.666z M348.686,334.386
	c2.078,1.902,3.272,4.583,3.296,7.4c-0.008,2.665-1.124,5.206-3.08,7.016c-4.668,4.248-11.829,4.154-16.384-0.216l-24.68-23.424
	c-3.205-3.049-8.275-2.921-11.324,0.284s-2.921,8.275,0.284,11.324l24.672,23.432c2.029,1.888,3.187,4.532,3.2,7.304
	c-0.086,3.043-1.473,5.903-3.808,7.856c-4.677,4.361-11.931,4.361-16.608,0l-22.608-21.464c-3.205-3.042-8.27-2.909-11.312,0.296
	c-3.042,3.205-2.909,8.27,0.296,11.312l22.608,21.464c2.03,1.892,3.188,4.538,3.2,7.312c-0.087,3.043-1.473,5.903-3.808,7.856
	c-3.958,4.235-10.6,4.459-14.835,0.5c-0.08-0.075-0.159-0.151-0.237-0.228l-8-8l-5.904-5.904c-0.557-6.293-3.404-12.162-8-16.496
	c-5.257-4.938-12.22-7.652-19.432-7.576c-0.064-7.076-3.021-13.817-8.184-18.656c-5.262-4.935-12.226-7.649-19.44-7.576
	c-0.067-7.074-3.027-13.813-8.192-18.648c-5.26-4.934-12.221-7.647-19.432-7.576c-0.067-7.077-3.027-13.818-8.192-18.656
	c-10.898-10.104-27.742-10.104-38.64,0l-15.2,14.464l-35.632-35.72l100.264-100.264l23.064,26.664l-30.272,28.752
	c-8.322,7.816-8.732,20.898-0.916,29.22c0.296,0.315,0.601,0.62,0.916,0.916c8.326,7.743,21.126,8.038,29.8,0.688l35.304-20.8
	c3.122-1.839,7.09-1.35,9.672,1.192l70.568,69.6c0.394,0.846,0.936,1.616,1.6,2.272l19.024,18.072l5.472,5.392l0.104-0.104
	L348.686,334.386z M347.998,311.482l-85.6-84.472c-7.748-7.64-19.667-9.111-29.04-3.584l-36,21.2l-1.448,1.096
	c-2.427,2.165-6.093,2.165-8.52,0c-1.918-1.746-2.056-4.716-0.31-6.634c0.098-0.108,0.202-0.212,0.31-0.31l31.2-29.6
	c1.481-1.418,3.453-2.209,5.504-2.208h32.8c6.151,0.011,12.07-2.347,16.528-6.584l22.232-21.12l92.904,93.72L347.998,311.482z
	 M415.998,276.754l-118.4-118.4l44.696-44.688l118.392,118.4L415.998,276.754z"/>
<circle cx="63.998" cy="224.066" r="16"/>
<circle cx="415.998" cy="232.066" r="16"/>
<g>
</g>
<g>
</g>
<g>
</g>
<g>
</g>
<g>
</g>
<g>
</g>
<g>
</g>
<g>
</g>
<g>
</g>
<g>
</g>
<g>
</g>
<g>
</g>
<g>
</g>
<g>
</g>
<g>
</g>
</svg>
