<?xml version="1.0" encoding="iso-8859-1"?>
<!-- Generator: Adobe Illustrator 19.0.0, SVG Export Plug-In . SVG Version: 6.00 Build 0)  -->
<svg version="1.1" id="Capa_1" xmlns="http://www.w3.org/2000/svg" xmlns:xlink="http://www.w3.org/1999/xlink" x="0px" y="0px"
	 viewBox="0 0 512 512" style="enable-background:new 0 0 512 512;" xml:space="preserve">
<g>
	<path style="fill:#F2F2F2;" d="M420.935,303.709l19.366-19.367c5.892-5.892,15.445-5.891,21.336,0
		c5.893,5.893,5.892,15.444,0,21.335l-26.896,26.895L420.935,303.709z"/>
	<path style="fill:#F2F2F2;" d="M395.159,249.814l19.389-19.388c5.892-5.892,15.444-5.892,21.335,0
		c5.892,5.892,5.892,15.444,0,21.335l-26.919,26.918L395.159,249.814z"/>
</g>
<g>
	<path style="fill:#E3E5E5;" d="M423.207,242.447c4.481-4.481,10.509-6.461,16.364-5.96c-0.708-2.216-1.93-4.303-3.689-6.061
		c-5.892-5.892-15.444-5.892-21.335,0l-19.389,19.388l6.691,13.99L423.207,242.447z"/>
	<path style="fill:#E3E5E5;" d="M448.983,296.364c4.481-4.481,10.509-6.462,16.364-5.96c-0.708-2.215-1.93-4.303-3.689-6.061
		c-5.892-5.892-15.444-5.892-21.335,0l-19.389,19.389l6.691,13.99L448.983,296.364z"/>
</g>
<g>
	<path style="fill:#F2F2F2;" d="M234.863,104.007l26.576-26.576c5.892-5.891,15.444-5.892,21.336,0s5.891,15.444,0,21.335
		l-19.046,19.046L234.863,104.007z"/>
	<path style="fill:#F2F2F2;" d="M180.97,78.232l26.554-26.554c5.89-5.892,15.442-5.893,21.334,0c5.892,5.891,5.892,15.444,0,21.335
		l-19.024,19.023L180.97,78.232z"/>
</g>
<g>
	<path style="fill:#E3E5E5;" d="M273.198,86.932c3.539-3.539,8.399-4.935,12.992-4.223c-0.733-1.922-1.864-3.729-3.414-5.279
		c-5.893-5.892-15.445-5.891-21.336,0l-26.576,26.576l14.382,6.878L273.198,86.932z"/>
	<path style="fill:#E3E5E5;" d="M219.282,61.179c3.538-3.539,8.397-4.936,12.99-4.224c-0.734-1.922-1.865-3.729-3.414-5.278
		c-5.893-5.893-15.445-5.892-21.334,0L180.97,78.232l14.382,6.878L219.282,61.179z"/>
</g>
<g>
	<path style="fill:#6EDCF9;" d="M272.581,309.389l101.925-101.925l0,0l0.002,0.001l77.375,161.784
		c10.732,22.428,3.169,49.351-17.691,62.914c-19.743,12.84-45.618,9.932-62.029-6.474
		C370.214,423.738,377.649,432.335,272.581,309.389z"/>
	<path style="fill:#6EDCF9;" d="M142.649,60.016l161.783,77.371L202.505,239.313l-0.002-0.001l0,0
		C79.981,134.605,88.185,141.7,86.204,139.726c-16.41-16.408-19.317-42.278-6.474-62.029
		C93.29,56.846,120.208,49.276,142.649,60.016z"/>
</g>
<g>
	<path style="fill:#37CAE2;" d="M386.172,411.178c-1.948-1.949,5.717,6.917-99.351-116.029l-14.241,14.24
		c105.333,123.256,97.647,114.363,99.582,116.299c22.396,22.388,59.984,18.266,76.932-8.646
		C429.098,430.648,402.745,427.746,386.172,411.178z"/>
	<path style="fill:#37CAE2;" d="M216.513,224.803L103.09,127.872c-18.839-16.114-22.77-43.427-9.703-64.12
		c-25.723,17.495-29.067,54.096-7.185,75.974c2.019,2.011-5.993-4.925,116.301,99.585l0.002,0.001L216.513,224.803L216.513,224.803z
		"/>
</g>
<path style="fill:#6EDCF9;" d="M169.117,412.851l50.366-50.365l19.4,101.473c3.242,16.932-6.574,33.635-22.936,39.049
	c-15.5,5.123-32.325-1.384-40.427-15.271c-0.976-1.684,1.001,2.308-29.927-61.726C154.212,423.959,162.391,419.576,169.117,412.851z
	"/>
<g>
	<path style="fill:#B9F2FC;" d="M374.508,207.464l77.375,161.784c12.045,25.172,0.937,55.453-24.824,66.757
		c5.604-12.811,5.735-27.833-0.684-41.249l-77.375-161.784v-0.001l25.505-25.507L374.508,207.464z"/>
	<path style="fill:#B9F2FC;" d="M75.884,84.834C87.225,58.996,117.542,48,142.649,60.016l161.783,77.371l-25.507,25.506
		l-161.782-77.37C103.719,79.099,88.695,79.231,75.884,84.834z"/>
</g>
<path style="fill:#6EDCF9;" d="M47.931,273.007l101.479,19.4l-50.429,50.429c-6.692,6.715-11.055,14.868-13.1,23.46
	c-64.044-30.933-60.069-28.965-61.726-29.928c-13.888-8.103-20.396-24.926-15.272-40.426
	C14.296,279.583,31.001,269.766,47.931,273.007z"/>
<g>
	<path style="fill:#37CAE2;" d="M188.259,470.829l-25.442-52.675c-5.289,3.774-11.14,6.408-17.224,7.855
		c30.931,64.038,28.952,60.041,29.927,61.726c13.676,23.442,47.96,22.377,60.243-1.771
		C218.557,495.446,196.838,488.606,188.259,470.829z"/>
	<path style="fill:#37CAE2;" d="M38.164,321.86c-15.528-9.058-21.584-28.792-13.292-45.173
		c-24.236,13.402-23.474,48.813,1.68,60.955l59.33,28.657c1.466-6.156,4.143-12.077,7.992-17.416
		C36.43,321.136,39.821,322.823,38.164,321.86z"/>
</g>
<path style="fill:#69DAF4;" d="M409.662,31.449L98.626,342.484c-19.451,19.517-19.424,51.243,0.06,70.72
	c19.554,19.566,51.217,19.566,70.783,0l310.912-310.913c9.908-9.908,18.424-26.329,22.223-42.856
	C519.075-12.184,439.291,1.922,409.662,31.449z"/>
<path style="fill:#37CAE2;" d="M101.575,415.862c5.75-15.059-13.036,6.518,341.69-348.208c14.257-14.207,40.319-25.018,61.399-25.63
	c-0.443-53.57-70.037-35.455-95.003-10.575L98.626,342.484c-19.451,19.517-19.424,51.243,0.06,70.72
	C99.617,414.136,100.587,415.013,101.575,415.862z"/>
<path style="fill:#474B63;" d="M445.017,36.81c-3.534,0.692-4.859,5.061-2.318,7.603c26.54,26.54,25.177,25.806,27.671,25.806
	c2.15,0,4.009-1.525,4.42-3.644C479.305,43.345,466.97,32.507,445.017,36.81z"/>
<path d="M480.13,76.586c12.215-35.773-9.108-57.275-45.019-45.02c-5.254,1.793-6.805,8.488-2.883,12.409l35.492,35.491
	C471.639,83.387,478.335,81.842,480.13,76.586z M468.498,59.018l-15.819-15.819C463.946,42.691,469.008,47.468,468.498,59.018z"/>
<path d="M500.815,11.165c-22.964-22.972-73.925-6.692-95.773,15.083l-101.83,101.83l-26.416-12.634l11.62-11.62
	c8.808-8.809,8.808-23.141-0.001-31.949c-8.809-8.807-23.141-8.807-31.95,0L233.57,94.771L222.9,89.669
	c11.534-11.534,18.214-16.106,18.214-27.571c0-6.034-2.351-11.708-6.617-15.974c-4.268-4.268-9.942-6.618-15.976-6.618
	s-11.707,2.351-15.973,6.618l-22.874,22.874c-35.114-16.792-41.977-21.722-58.529-21.555
	c-53.203,0.538-76.325,66.422-36.608,100.398l25.037,21.396c3.15,2.692,7.889,2.321,10.58-0.83c2.693-3.151,2.322-7.888-0.83-10.581
	c-27.311-23.34-25.913-22.088-27.484-23.653c-11.581-11.579-15.126-28.807-9.833-43.798c10.514-3.738,22.099-3.175,32.228,1.672
	L266.45,164.84l-64.012,64.011l-56.405-48.202c-3.151-2.693-7.89-2.322-10.58,0.83c-2.693,3.151-2.322,7.888,0.829,10.581
	l55.511,47.438l-44.544,44.543l-97.575-18.653c-20.552-3.937-41.009,8.083-47.585,27.953c-6.451,19.518,2.402,41.577,21.532,50.811
	l54.237,26.197c-1.842,14.566,1.914,29.702,11.262,41.896l-9.57,9.57c-2.931,2.931-2.931,7.683,0,10.613
	c1.466,1.465,3.387,2.198,5.308,2.198s3.842-0.733,5.308-2.198l9.563-9.563c11.787,9.067,26.648,13.214,41.917,11.292
	c28.626,59.264,26.556,55.095,27.726,57.115c9.893,16.958,30.613,24.781,49.268,18.615c19.869-6.576,31.885-27.033,27.949-47.584
	l-18.654-97.569l44.547-44.547c99.461,116.387,92.474,108.326,94.708,110.562c10.955,10.951,25.628,16.615,40.401,16.615
	c41.676-0.003,69.53-43.706,51.396-81.601l-15.12-31.617l23.41-23.41c4.268-4.267,6.618-9.94,6.618-15.974
	c0-20.05-24.373-30.169-38.567-15.975l-12.133,12.133l-5.103-10.67l23.433-23.432c4.268-4.267,6.618-9.94,6.618-15.974
	s-2.351-11.707-6.617-15.974c-4.268-4.267-9.941-6.618-15.975-6.618c-11.453,0-15.909,6.551-28.131,18.774l-13.515-28.26
	l48.471-48.47c2.931-2.931,2.931-7.683-0.001-10.614c-2.929-2.93-7.681-2.931-10.613,0
	c-87.739,87.738-257.801,257.915-259.998,259.806c-14.565,12.488-35.693,13.502-51.296,2.638l83.25-83.25
	c2.931-2.931,2.931-7.683,0-10.613c-2.932-2.931-7.683-2.931-10.614,0l-83.242,83.242c-11.449-16.512-9.624-39.175,4.764-53.61
	C115.248,337.271,390.264,62.253,415.648,36.87c16.919-16.86,58.764-30.889,74.555-15.092c15.353,15.341,2.26,57.2-15.147,74.605
	l-28.531,28.533c-2.931,2.931-2.931,7.683,0.001,10.613c2.93,2.932,7.682,2.929,10.613,0l28.53-28.533
	C507.092,85.577,524.094,34.429,500.815,11.165z M267.079,82.491c2.956-2.956,7.766-2.957,10.722,0
	c2.956,2.956,2.956,7.765,0,10.721l-15.29,15.291l-14.506-6.938L267.079,82.491z M213.165,56.736c1.432-1.432,3.334-2.22,5.359-2.22
	s3.929,0.789,5.361,2.222c2.962,2.962,2.964,7.757-0.001,10.72l-15.268,15.268L194.11,75.79L213.165,56.736z M445.941,289.402
	c4.75-4.753,12.943-1.385,12.943,5.361c0,4.163-0.719,3.859-21.617,24.755l-6.938-14.505L445.941,289.402z M425.549,233.265
	c2.024,0,3.929,0.789,5.36,2.221c1.433,1.432,2.222,3.335,2.222,5.361c0,4.154-0.685,3.826-21.64,24.778l-6.937-14.505
	C421.452,234.223,421.486,233.265,425.549,233.265z M215.105,377.564l16.74,87.56c2.524,13.178-5.182,26.296-17.919,30.512
	c-12.532,4.143-26.669-1.535-32.585-13.807l-24.92-51.591C169.536,424.755,171.463,421.206,215.105,377.564z M375.551,417.691
	l-92.422-108.15c6.632-6.632,56.716-56.715,64.011-64.011l72.8,152.217c4.843,10.123,5.405,21.704,1.667,32.217
	C406.118,435.435,387.713,431.678,375.551,417.691z M448.04,379.2c3.737,13.595,0.395,28.228-9.025,39.008
	c0.378-9.194-1.472-18.444-5.536-26.937l-75.083-156.994c12.397-12.398,10.614-10.615,14.251-14.252
	C450.798,383.432,446.642,374.121,448.04,379.2z M120.715,78.506c-8.256-3.952-17.495-5.931-26.948-5.541
	c10.311-9.176,25.221-12.847,39.045-9.013c5.84,1.613-2.161-1.763,159.145,75.381l-14.251,14.252L120.715,78.506z M81.761,355.565
	c-55.733-26.919-52.208-25.178-53.492-25.925c-10.866-6.339-15.883-19.623-11.929-31.586c4.215-12.739,17.33-20.446,30.513-17.923
	c0.001,0,0.001,0,0.002,0l87.564,16.74C93.305,337.987,87.368,342.15,81.761,355.565z"/>
<g>
</g>
<g>
</g>
<g>
</g>
<g>
</g>
<g>
</g>
<g>
</g>
<g>
</g>
<g>
</g>
<g>
</g>
<g>
</g>
<g>
</g>
<g>
</g>
<g>
</g>
<g>
</g>
<g>
</g>
</svg>
