<?xml version="1.0" encoding="iso-8859-1"?>
<!-- Generator: Adobe Illustrator 19.0.0, SVG Export Plug-In . SVG Version: 6.00 Build 0)  -->
<svg version="1.1" id="Capa_1" xmlns="http://www.w3.org/2000/svg" xmlns:xlink="http://www.w3.org/1999/xlink" x="0px" y="0px"
	 viewBox="0 0 512 512" style="enable-background:new 0 0 512 512;" xml:space="preserve">
<g>
	<path style="fill:#FF8E4B;" d="M125.598,197.193c12.017,0,21.649-10.731,19.788-23.083c-1.483-9.849-10.261-16.955-20.221-16.955
		H76.272c-9.873,0-18.615,6.972-20.198,16.716c-1.674,10.301,4.661,19.519,13.745,22.396c1.898,0.602,3.916,0.927,6.005,0.927
		h26.025H125.598z"/>
	<path style="fill:#FCB17E;" d="M145.391,177.658v87.524c18.284,4.889,36.591,8.538,54.802,10.931
		c18.091,2.376,36.733,3.573,55.806,3.573c19.073,0,37.715-1.197,55.805-3.573c18.212-2.392,36.519-6.042,54.801-10.931v-87.524
		V50.049c0-22.021-18.018-40.039-40.039-40.039H185.43c-22.021,0-40.039,18.018-40.039,40.039V177.658z"/>
	<path style="fill:#FF8E4B;" d="M366.613,180.237c1.484,9.849,10.261,16.955,20.221,16.955h23.316h26.025
		c2.09,0,4.108-0.324,6.005-0.927c9.085-2.878,15.418-12.095,13.745-22.396c-1.583-9.744-10.325-16.716-20.198-16.716H386.4
		C374.384,157.154,364.752,167.884,366.613,180.237z"/>
	<path style="fill:#87C4FF;" d="M410.65,197.193v44.837c0,13.424-8.005,25.066-19.476,30.396c2.124,2.551,3.741,5.594,4.655,9.012
		c2.628,9.833-1.346,19.875-9.202,25.423c31.592-4.623,56.054-32.007,56.054-64.83v-45.763c-1.898,0.602-3.916,0.926-6.006,0.926
		H410.65z"/>
	<path style="fill:#FF8E4B;" d="M366.382,264.681c-18.247,4.889-36.517,8.538-54.69,10.931c-18.054,2.376-36.658,3.573-55.692,3.573
		c-19.034,0-37.639-1.197-55.692-3.573c-18.174-2.392-36.443-6.042-54.69-10.931c-9.197-2.457-18.578,0.86-24.292,7.729
		c-2.124,2.551-3.742,5.593-4.656,9.011c-2.628,9.833,1.346,19.875,9.201,25.423c2.222,1.571,4.756,2.781,7.538,3.524
		c19.746,5.29,40.055,9.31,60.793,12.04c20.855,2.745,41.5,4.127,61.796,4.127s40.941-1.382,61.796-4.127
		c20.738-2.73,41.047-6.75,60.793-12.04c2.783-0.744,5.316-1.954,7.538-3.524c7.855-5.547,11.828-15.59,9.202-25.423
		c-0.914-3.418-2.53-6.46-4.655-9.012C384.96,265.541,375.579,262.224,366.382,264.681z"/>
	<g>
		<path style="fill:#87C4FF;" d="M121.826,272.425c-11.471-5.329-19.476-16.973-19.476-30.396v-44.837H76.325
			c-2.09,0-4.108-0.324-6.005-0.927v45.764c0,32.823,24.461,60.206,56.053,64.83c-7.855-5.548-11.829-15.59-9.201-25.423
			C118.085,278.018,119.702,274.976,121.826,272.425z"/>
		<polygon style="fill:#87C4FF;" points="240.485,326.318 240.485,390.381 272.516,390.381 272.516,326.318 256.5,326.318 		"/>
	</g>
	<g>
		<path style="fill:#EDF2FA;" d="M272.516,390.381h-32.031v32.031v44.728c3.855-4.532,9.599-7.407,16.017-7.407
			c6.416,0,12.161,2.875,16.016,7.407v-44.729v-32.03H272.516z"/>
		<path style="fill:#EDF2FA;" d="M240.485,422.412v-32.031h-61.062c-31.929,0-58.053,26.124-58.053,58.053v18.702
			c3.856-4.529,9.599-7.403,16.015-7.403c6.416,0,12.162,2.875,16.017,7.407v-18.705c0-14.313,11.71-26.022,26.022-26.022
			L240.485,422.412L240.485,422.412z"/>
		<path style="fill:#EDF2FA;" d="M271.514,390.381v32.031h61.062c14.312,0,26.022,11.71,26.022,26.022v18.706
			c3.856-4.532,9.6-7.407,16.018-7.407c6.414,0,12.158,2.873,16.014,7.402v-18.701c0-31.929-26.124-58.053-58.053-58.053
			L271.514,390.381L271.514,390.381z"/>
	</g>
	<g>
		<path style="fill:#1D80FF;" d="M136.884,501.99c11.577,0,21.02-9.443,21.02-21.02s-9.443-21.02-21.02-21.02
			c-11.577,0-21.02,9.442-21.02,21.02C115.864,492.547,125.307,501.99,136.884,501.99z"/>
		<path style="fill:#1D80FF;" d="M256,501.99c11.577,0,21.02-9.443,21.02-21.02s-9.443-21.02-21.02-21.02
			c-11.577,0-21.02,9.442-21.02,21.02C234.98,492.547,244.423,501.99,256,501.99z"/>
		<path style="fill:#1D80FF;" d="M375.116,501.99c11.577,0,21.02-9.443,21.02-21.02s-9.443-21.02-21.02-21.02
			s-21.02,9.442-21.02,21.02C354.096,492.547,363.539,501.99,375.116,501.99z"/>
	</g>
</g>
<path d="M466.204,177.172c0-16.558-13.471-30.028-30.029-30.028h-49.774c-3.425,0-6.716,0.585-9.785,1.646V50.049
	C376.616,22.452,354.164,0,326.568,0H185.43c-27.597,0-50.049,22.452-50.049,50.049v98.74c-3.069-1.061-6.358-1.646-9.784-1.646
	H75.825c-16.558,0-30.029,13.471-30.029,30.03c0,10.885,5.822,20.434,14.514,25.701v39.139c0,36.217,26.313,67.608,61.675,74.234
	c2.687,1.641,5.642,2.935,8.835,3.789c20.079,5.379,40.964,9.516,62.078,12.296c12.571,1.655,25.135,2.813,37.577,3.494v44.543
	h-51.053c-37.531,0-68.063,30.533-68.063,68.063v14.922c-3.466,5.008-5.504,11.077-5.504,17.615c0,17.11,13.92,31.03,31.03,31.03
	c17.111,0,31.03-13.921,31.03-31.03c0-5.886-1.648-11.394-4.505-16.088v-16.448c0-8.83,7.183-16.014,16.013-16.014h51.053v30.934
	c-3.466,5.008-5.504,11.077-5.504,17.615c0,17.11,13.921,31.03,31.03,31.03s31.03-13.921,31.03-31.03
	c0-5.887-1.648-11.395-4.506-16.09v-32.46h51.053c8.83,0,16.013,7.183,16.013,16.014v14.923c-3.466,5.008-5.503,11.076-5.503,17.613
	c0,17.11,13.921,31.03,31.03,31.03c17.11,0,31.03-13.921,31.03-31.03c0-5.886-1.648-11.394-4.505-16.089v-16.448
	c0-37.53-30.533-68.063-68.063-68.063h-51.053v-44.602c12.115-0.689,24.342-1.826,36.578-3.435c21.114-2.78,42-6.917,62.071-12.294
	c3.037-0.812,5.86-2.024,8.441-3.551c36.065-6.051,63.077-37.78,63.077-74.472v-39.779
	C460.825,196.856,466.204,187.632,466.204,177.172z M386.401,167.164h49.774c5.519,0,10.01,4.49,10.01,10.011
	c0,5.519-4.49,10.009-10.01,10.009h-49.774c-4.8,0-8.817-3.396-9.785-7.911v-4.197C377.584,170.56,381.602,167.164,386.401,167.164z
	 M392.023,260.123c-0.865-0.615-1.761-1.194-2.691-1.732c-3.977-2.3-8.29-3.732-12.716-4.278v-48.556
	c3.069,1.061,6.359,1.646,9.785,1.646h14.24v34.811C400.641,249.083,397.38,255.707,392.023,260.123z M185.431,20.019h141.137
	c16.558,0,30.029,13.471,30.029,30.029v206.82c-15.397,3.84-30.908,6.804-46.212,8.819c-17.582,2.314-35.88,3.487-54.386,3.487
	c-18.505,0-36.804-1.173-54.386-3.487c-15.302-2.014-30.812-4.977-46.212-8.819V50.049
	C155.402,33.491,168.872,20.019,185.431,20.019z M122.666,258.391c-0.737,0.426-1.447,0.885-2.143,1.359
	c-5.09-4.411-8.162-10.867-8.162-17.737v-34.811H125.6c3.425,0,6.715-0.585,9.784-1.646v48.555
	C130.956,254.66,126.643,256.091,122.666,258.391z M75.825,167.164h49.774c4.799,0,8.816,3.396,9.784,7.91v4.201
	c-0.968,4.513-4.985,7.909-9.784,7.909H75.825c-0.471,0-0.932-0.044-1.387-0.107c-0.851-0.385-1.765-0.651-2.723-0.785
	c-3.473-1.572-5.901-5.064-5.901-9.118C65.815,171.653,70.305,167.164,75.825,167.164z M80.33,242.013v-34.811h12.011v34.811
	c0,13.044,5.952,25.269,15.76,33.437c-0.421,1.102-0.792,2.231-1.101,3.387c-0.878,3.284-1.231,6.585-1.12,9.82
	C90.448,278.657,80.33,261.263,80.33,242.013z M262.505,422.392c0,0.007-0.001,0.013-0.001,0.019v28.219
	c-2.099-0.449-4.273-0.692-6.504-0.692c-1.88,0-3.718,0.177-5.506,0.499v-28.027v-22.021h12.012V422.392z M136.884,491.981
	c-6.071,0-11.011-4.94-11.011-11.011c0-2.012,0.552-3.894,1.497-5.518c1.126-0.847,2.072-1.919,2.758-3.158
	c1.867-1.457,4.208-2.334,6.755-2.334c6.071,0,11.011,4.94,11.011,11.011C147.894,487.041,142.955,491.981,136.884,491.981z
	 M179.423,412.401c-19.868,0-36.032,16.164-36.032,36.033v2.197c-2.099-0.449-4.274-0.692-6.505-0.692
	c-1.88,0-3.718,0.177-5.506,0.498v-2.005c0-26.492,21.552-48.044,48.044-48.044h51.053v12.012L179.423,412.401L179.423,412.401z
	 M256,491.981c-6.071,0-11.011-4.94-11.011-11.011c0-2.012,0.552-3.894,1.497-5.518c1.126-0.847,2.072-1.919,2.758-3.158
	c1.867-1.457,4.208-2.334,6.755-2.334c6.071,0,11.011,4.94,11.011,11.011C267.01,487.041,262.072,491.981,256,491.981z
	 M375.116,491.981c-6.071,0-11.011-4.94-11.011-11.011c0-2.013,0.552-3.895,1.498-5.519c1.125-0.846,2.07-1.917,2.756-3.155
	c1.868-1.458,4.209-2.335,6.757-2.335c6.071,0,11.011,4.94,11.011,11.011C386.127,487.042,381.188,491.981,375.116,491.981z
	 M381.621,448.434v2.197c-2.099-0.449-4.274-0.692-6.505-0.692c-1.88,0-3.719,0.177-5.507,0.499v-2.005
	c0-19.868-16.164-36.033-36.032-36.033h-51.052v-12.012h51.053C360.069,400.389,381.621,421.942,381.621,448.434z M262.505,380.37
	h-12.012v-43.873c1.838,0.022,3.677,0.047,5.505,0.047c2.161,0,4.332-0.024,6.506-0.055V380.37z M316.49,312.484
	c-15.782,2.077-31.546,3.351-47.034,3.825h-26.913c-15.488-0.473-31.25-1.748-47.033-3.825c-20.251-2.666-40.272-6.63-59.51-11.784
	c-2.94-0.735-5.637-3.079-7.307-5.582c-1.632-2.446-2.449-5.409-2.289-8.346c0.087-1.592,0.454-3.166,1.081-4.632
	c0.675-1.579,1.733-2.839,2.675-4.249c1.84-2.757,6.117-4.039,9.282-4.006c2.337,0.024,4.565,1.568,6.936,1.335
	c17.5,4.543,35.184,8.021,52.624,10.317c18.445,2.427,37.623,3.659,56.998,3.659s38.553-1.231,56.998-3.659
	c16.197-2.132,51.589-9.587,57.744-11.328c0.789-0.223,1.608-0.348,2.426-0.308c3.164,0.155,6.24,1.426,8.741,3.746
	c0.948,0.879,1.758,1.907,2.389,3.034c4.566,8.146,0.091,17.776-8.3,20.019C356.762,305.852,336.741,309.818,316.49,312.484
	C300.707,314.561,336.741,309.818,316.49,312.484C300.707,314.561,336.741,309.818,316.49,312.484z M406.595,289
	c0.155-3.373-0.196-6.8-1.095-10.164c-0.278-1.043-0.604-2.065-0.974-3.064c10.035-8.168,16.135-20.547,16.135-33.76v-34.811h12.012
	v34.811C432.672,261.482,422.325,279.058,406.595,289z"/>
<path d="M288.531,55.054h41.04c5.528,0,10.01-4.481,10.01-10.01s-4.481-10.01-10.01-10.01h-41.04c-5.528,0-10.01,4.481-10.01,10.01
	S283.003,55.054,288.531,55.054z"/>
<circle cx="259.002" cy="45.044" r="10.01"/>
<g>
</g>
<g>
</g>
<g>
</g>
<g>
</g>
<g>
</g>
<g>
</g>
<g>
</g>
<g>
</g>
<g>
</g>
<g>
</g>
<g>
</g>
<g>
</g>
<g>
</g>
<g>
</g>
<g>
</g>
</svg>
