<svg height="512pt" viewBox="0 -80 512 512" width="512pt" xmlns="http://www.w3.org/2000/svg"><path d="m288 224v24h-280v-24zm0 0" fill="#ffd2a6"/><path d="m480 232h24v24h-24zm0 0" fill="#ffd2a6"/><path d="m480 256v88h-192v-160c0-13.28125 10.71875-24 24-24h144c13.28125 0 24 10.71875 24 24zm0 0" fill="#656d78"/><path d="m456 160h-32c13.28125 0 24 10.71875 24 24v160h32v-160c0-13.28125-10.71875-24-24-24zm0 0" fill="#434a54"/><path d="m384 159.921875c-30.960938 0-56-25.042969-56-55.921875 0 0 16 32 56 32s56-32 56-32c0 30.878906-25.039062 55.921875-56 55.921875zm0 0" fill="#eac6bb"/><path d="m416 16v24c13.28125 0 24 10.71875 24 24v40s-16 32-56 32-56-32-56-32v-40c0-26.558594 21.441406-48 48-48zm0 0" fill="#965353"/><path d="m416 40v-24h-32v40c13.28125 0 24 10.71875 24 24v24c0 11.246094-3.472656 21.625-9.191406 30.390625 29.167968-6.445313 41.191406-30.390625 41.191406-30.390625v-40c0-13.28125-10.71875-24-24-24zm0 0" fill="#844747"/><path d="m398.808594 134.390625c-7.167969 10.96875-17.953125 19.371094-30.808594 23.183594 2.273438.683593 4.632812 1.167969 7.015625 1.5625.503906.078125 1.007813.160156 1.511719.222656 2.449218.335937 4.929687.550781 7.472656.550781 30.960938 0 56-25.039062 56-55.917968 0 .007812-12.023438 23.953124-41.191406 30.398437zm0 0" fill="#d3b1a9"/><path d="m240 68v10.960938c-13.761719-17.921876-22.078125-21.199219-32-19.121094l16-32.488282c9.921875 10.648438 16 24.96875 16 40.648438zm0 0" fill="#edab37"/><path d="m128 73.121094c-2.558594-.320313-5.199219-.632813-8-1.121094v-4c0-33.121094 26.878906-60 60-60 17.441406 0 33.121094 7.441406 44 19.359375l-16 32.488281c-14.960938 3.113282-33.519531 18.640625-80 13.273438zm0 0" fill="#ffce54"/><path d="m180 8c-2.625 0-5.199219.207031-7.726562.550781-.378907.050781-.738282.121094-1.105469.167969-2.449219.386719-4.847657.867188-7.183594 1.511719 0 0-.007813 0-.015625 0 10.917969 3.027343 20.605469 8.992187 28.03125 17.128906 8.199219 8.800781 13.710938 20.128906 15.398438 32.632813.195312-.039063.410156-.113282.601562-.152344l16-32.488282c-10.878906-11.910156-26.558594-19.351562-44-19.351562zm0 0" fill="#f6bb42"/><path d="m128 73.121094c46.480469 5.367187 65.039062-10.160156 80-13.273438 9.921875-2.085937 18.238281 1.191406 32 19.121094v17.03125c0 22.320312-13.039062 41.601562-32 50.488281-7.28125 3.511719-15.359375 5.441407-24 5.441407s-16.71875-1.921876-24-5.441407c-18.960938-8.886719-32-28.167969-32-50.488281zm0 0" fill="#eac6bb"/><path d="m208 59.839844v36.160156c0 22.320312-13.039062 41.601562-32 50.488281-2.558594 1.230469-5.246094 2.191407-8 3.023438 5.0625 1.527343 10.398438 2.417969 16 2.417969 8.640625 0 16.71875-1.921876 24-5.441407 18.960938-8.878906 32-28.167969 32-50.488281v-17.039062c-13.761719-17.921876-22.078125-21.199219-32-19.121094zm0 0" fill="#d3b1a9"/><path d="m208 146.558594v29.441406l-8 8-16-8-16 8-8-8v-29.519531c7.28125 3.511719 15.359375 5.441406 24 5.441406s16.71875-1.921875 24-5.441406zm0 0" fill="#f5f7fa"/><path d="m256 224h-144v-24c0-13.28125 10.71875-24 24-24h24l8 8 16-8 16 8 8-8h24c13.28125 0 24 10.71875 24 24zm0 0" fill="#e6e9ed"/><path d="m232 176h-24l-1.121094 1.121094c9.898438 2.957031 17.121094 12.015625 17.121094 22.878906v24h32v-24c0-13.28125-10.71875-24-24-24zm0 0" fill="#ccd1d9"/><path d="m80 120h-40v-40zm0 0" fill="#f5f7fa"/><path d="m80 120v72h-72v-112h32v40zm0 0" fill="#e6e9ed"/><path d="m32 248h32v96h-32zm0 0" fill="#f7c292"/><path d="m64 248h224v96h-224zm0 0" fill="#eab081"/><path d="m128 104c-4.425781 0-8-3.574219-8-8v-22.945312c0-4.421876 3.574219-8 8-8s8 3.578124 8 8v22.945312c0 4.425781-3.574219 8-8 8zm0 0"/><path d="m240 104c-4.425781 0-8-3.574219-8-8v-28.007812c0-4.425782 3.574219-8 8-8s8 3.574218 8 8v28.007812c0 4.425781-3.574219 8-8 8zm0 0"/><path d="m240 75.992188c-4.425781 0-8-3.578126-8-8 0-28.671876-23.335938-51.992188-52.015625-51.992188-28.664063 0-51.984375 23.320312-51.984375 51.992188 0 4.421874-3.574219 8-8 8s-8-3.578126-8-8c0-37.488282 30.503906-67.992188 67.984375-67.992188 37.511719 0 68.015625 30.503906 68.015625 67.992188 0 4.421874-3.574219 8-8 8zm0 0"/><path d="m240.007812 86.960938c-2.40625 0-4.785156-1.082032-6.359374-3.136719-15.449219-20.175781-19.648438-18.519531-35.3125-12.304688-15.015626 5.960938-37.726563 14.96875-79.582032 8.335938-4.363281-.6875-7.347656-4.785157-6.648437-9.152344.6875-4.359375 4.796875-7.382813 9.152343-6.648437 37.527344 5.914062 56.988282-1.78125 71.191407-7.414063 19.292969-7.648437 32.214843-10.871094 53.902343 17.449219 2.6875 3.503906 2.023438 8.527344-1.488281 11.214844-1.449219 1.121093-3.160156 1.65625-4.855469 1.65625zm0 0"/><path d="m207.992188 67.808594c-1.175782 0-2.382813-.265625-3.519532-.824219-3.960937-1.945313-5.59375-6.746094-3.648437-10.703125l16-32.570312c1.945312-3.96875 6.703125-5.605469 10.710937-3.65625 3.960938 1.945312 5.59375 6.746093 3.648438 10.707031l-16 32.566406c-1.390625 2.839844-4.238282 4.480469-7.191406 4.480469zm0 0"/><path d="m112 207.960938c-4.425781 0-8-3.578126-8-8 0-17.640626 14.351562-31.992188 32-31.992188 4.425781 0 8 3.574219 8 8 0 4.421875-3.574219 8-8 8-8.824219 0-16 7.167969-16 15.992188 0 4.421874-3.574219 8-8 8zm0 0"/><path d="m160 184.015625h-24c-4.425781 0-8-3.574219-8-8 0-4.421875 3.574219-8 8-8h24c4.425781 0 8 3.578125 8 8 0 4.425781-3.574219 8-8 8zm0 0"/><path d="m112 232c-4.425781 0-8-3.574219-8-8v-24.039062c0-4.425782 3.574219-8 8-8s8 3.574218 8 8v24.039062c0 4.425781-3.574219 8-8 8zm0 0"/><path d="m256 207.960938c-4.425781 0-8-3.578126-8-8 0-8.824219-7.175781-15.992188-16-15.992188-4.425781 0-8-3.578125-8-8 0-4.425781 3.574219-8 8-8 17.648438 0 32 14.351562 32 31.992188 0 4.421874-3.574219 8-8 8zm0 0"/><path d="m232 184.015625h-24c-4.425781 0-8-3.574219-8-8 0-4.421875 3.574219-8 8-8h24c4.425781 0 8 3.578125 8 8 0 4.425781-3.574219 8-8 8zm0 0"/><path d="m256 232c-4.425781 0-8-3.574219-8-8v-24.039062c0-4.425782 3.574219-8 8-8s8 3.574218 8 8v24.039062c0 4.425781-3.574219 8-8 8zm0 0"/><path d="m160 184.015625c-4.425781 0-8-3.574219-8-8v-29.472656c0-4.421875 3.574219-8 8-8s8 3.578125 8 8v29.472656c0 4.425781-3.574219 8-8 8zm0 0"/><path d="m208 183.960938c-4.425781 0-8-3.578126-8-8v-29.417969c0-4.421875 3.574219-8 8-8s8 3.578125 8 8v29.417969c0 4.421874-3.574219 8-8 8zm0 0"/><path d="m184 159.9375c-35.289062 0-64-28.707031-64-63.976562 0-4.425782 3.574219-8 8-8s8 3.574218 8 8c0 26.453124 21.527344 47.976562 48 47.976562s48-21.523438 48-47.976562c0-4.425782 3.574219-8 8-8s8 3.574218 8 8c0 35.269531-28.710938 63.976562-64 63.976562zm0 0"/><path d="m168.007812 191.960938c-2.9375 0-5.761718-1.617188-7.167968-4.425782-1.976563-3.949218-.375-8.757812 3.574218-10.734375l16-8c3.953126-1.960937 8.753907-.386719 10.738282 3.574219 1.976562 3.953125.375 8.761719-3.578125 10.738281l-16 8c-1.140625.574219-2.367188.847657-3.566407.847657zm0 0"/><path d="m200 191.960938c-2.046875 0-4.097656-.785157-5.65625-2.34375-3.128906-3.128907-3.128906-8.183594 0-11.3125l8-8c3.128906-3.128907 8.183594-3.128907 11.3125 0 3.128906 3.128906 3.128906 8.183593 0 11.3125l-8 8c-1.558594 1.558593-3.609375 2.34375-5.65625 2.34375zm0 0"/><path d="m168 191.960938c-2.046875 0-4.097656-.785157-5.65625-2.34375l-8-8c-3.128906-3.128907-3.128906-8.183594 0-11.3125 3.128906-3.128907 8.183594-3.128907 11.3125 0l8 8c3.128906 3.128906 3.128906 8.183593 0 11.3125-1.558594 1.558593-3.609375 2.34375-5.65625 2.34375zm0 0"/><path d="m199.992188 191.960938c-1.199219 0-2.425782-.273438-3.566407-.839844l-16-8c-3.953125-1.976563-5.554687-6.785156-3.578125-10.738282 1.976563-3.957031 6.785156-5.535156 10.738282-3.574218l16 8c3.949218 1.976562 5.550781 6.785156 3.574218 10.734375-1.40625 2.800781-4.230468 4.417969-7.167968 4.417969zm0 0"/><path d="m440.015625 72.007812c-4.421875 0-8-3.574218-8-8 0-8.832031-7.183594-16.007812-16.015625-16.007812-4.425781 0-8-3.574219-8-8s3.574219-8 8-8c17.65625 0 32.015625 14.359375 32.015625 32.007812 0 4.425782-3.574219 8-8 8zm0 0"/><path d="m416 48c-4.425781 0-8-3.574219-8-8v-24c0-4.425781 3.574219-8 8-8s8 3.574219 8 8v24c0 4.425781-3.574219 8-8 8zm0 0"/><path d="m328 72c-4.425781 0-8-3.574219-8-8 0-30.871094 25.128906-56 56-56 4.425781 0 8 3.574219 8 8s-3.574219 8-8 8c-22.054688 0-40 17.945312-40 40 0 4.425781-3.574219 8-8 8zm0 0"/><path d="m416 24h-40c-4.425781 0-8-3.574219-8-8s3.574219-8 8-8h40c4.425781 0 8 3.574219 8 8s-3.574219 8-8 8zm0 0"/><path d="m384 144c-44.433594 0-62.414062-34.9375-63.160156-36.425781-1.976563-3.949219-.375-8.757813 3.574218-10.734375 3.9375-1.960938 8.738282-.375 10.722657 3.542968.597656 1.160157 14.566406 27.617188 48.863281 27.617188 34.65625 0 48.703125-27.304688 48.839844-27.574219 1.984375-3.953125 6.792968-5.546875 10.734375-3.578125 3.953125 1.976563 5.554687 6.785156 3.578125 10.738282-.738282 1.476562-18.71875 36.414062-63.152344 36.414062zm0 0"/><path d="m328 112c-4.425781 0-8-3.574219-8-8v-40.03125c0-4.425781 3.574219-8 8-8s8 3.574219 8 8v40.03125c0 4.425781-3.574219 8-8 8zm0 0"/><path d="m440 112c-4.425781 0-8-3.574219-8-8v-40.03125c0-4.425781 3.574219-8 8-8s8 3.574219 8 8v40.03125c0 4.425781-3.574219 8-8 8zm0 0"/><path d="m288 191.960938c-4.425781 0-8-3.578126-8-8 0-17.640626 14.351562-31.992188 32-31.992188 4.425781 0 8 3.574219 8 8 0 4.421875-3.574219 8-8 8-8.824219 0-16 7.167969-16 15.992188 0 4.421874-3.574219 8-8 8zm0 0"/><path d="m360 168.015625h-48c-4.425781 0-8-3.574219-8-8 0-4.421875 3.574219-8 8-8h48c4.425781 0 8 3.578125 8 8 0 4.425781-3.574219 8-8 8zm0 0"/><path d="m288 352c-4.425781 0-8-3.574219-8-8v-160.039062c0-4.425782 3.574219-8 8-8s8 3.574218 8 8v160.039062c0 4.425781-3.574219 8-8 8zm0 0"/><path d="m480 191.960938c-4.425781 0-8-3.578126-8-8 0-8.824219-7.175781-15.992188-16-15.992188-4.425781 0-8-3.578125-8-8 0-4.425781 3.574219-8 8-8 17.648438 0 32 14.351562 32 31.992188 0 4.421874-3.574219 8-8 8zm0 0"/><path d="m456 168.015625h-48c-4.425781 0-8-3.574219-8-8 0-4.421875 3.574219-8 8-8h48c4.425781 0 8 3.578125 8 8 0 4.425781-3.574219 8-8 8zm0 0"/><path d="m480 352c-4.425781 0-8-3.574219-8-8v-160.039062c0-4.425782 3.574219-8 8-8s8 3.574218 8 8v160.039062c0 4.425781-3.574219 8-8 8zm0 0"/><path d="m384 167.9375c-35.289062 0-64-28.707031-64-63.976562 0-4.425782 3.574219-8 8-8s8 3.574218 8 8c0 26.453124 21.527344 47.976562 48 47.976562s48-21.523438 48-47.976562c0-4.425782 3.574219-8 8-8s8 3.574218 8 8c0 35.269531-28.710938 63.976562-64 63.976562zm0 0"/><path d="m408 167.960938h-48c-4.425781 0-8-3.578126-8-8 0-4.425782 3.574219-8 8-8h48c4.425781 0 8 3.574218 8 8 0 4.421874-3.574219 8-8 8zm0 0"/><path d="m288 256h-280c-4.425781 0-8-3.574219-8-8s3.574219-8 8-8h280c4.425781 0 8 3.574219 8 8s-3.574219 8-8 8zm0 0"/><path d="m504 264h-24c-4.425781 0-8-3.574219-8-8s3.574219-8 8-8h24c4.425781 0 8 3.574219 8 8s-3.574219 8-8 8zm0 0"/><path d="m504 264c-4.425781 0-8-3.574219-8-8v-24c0-4.425781 3.574219-8 8-8s8 3.574219 8 8v24c0 4.425781-3.574219 8-8 8zm0 0"/><path d="m504 240h-24c-4.425781 0-8-3.574219-8-8s3.574219-8 8-8h24c4.425781 0 8 3.574219 8 8s-3.574219 8-8 8zm0 0"/><path d="m288 232h-280c-4.425781 0-8-3.574219-8-8s3.574219-8 8-8h280c4.425781 0 8 3.574219 8 8s-3.574219 8-8 8zm0 0"/><path d="m8 256c-4.425781 0-8-3.574219-8-8v-24c0-4.425781 3.574219-8 8-8s8 3.574219 8 8v24c0 4.425781-3.574219 8-8 8zm0 0"/><path d="m32 352c-4.425781 0-8-3.574219-8-8v-96c0-4.425781 3.574219-8 8-8s8 3.574219 8 8v96c0 4.425781-3.574219 8-8 8zm0 0"/><path d="m64 352c-4.425781 0-8-3.574219-8-8v-96c0-4.425781 3.574219-8 8-8s8 3.574219 8 8v96c0 4.425781-3.574219 8-8 8zm0 0"/><path d="m432 232h-96c-4.425781 0-8-3.574219-8-8s3.574219-8 8-8h96c4.425781 0 8 3.574219 8 8s-3.574219 8-8 8zm0 0"/><path d="m432 280h-96c-4.425781 0-8-3.574219-8-8s3.574219-8 8-8h96c4.425781 0 8 3.574219 8 8s-3.574219 8-8 8zm0 0"/><path d="m432 328h-96c-4.425781 0-8-3.574219-8-8s3.574219-8 8-8h96c4.425781 0 8 3.574219 8 8s-3.574219 8-8 8zm0 0"/><path d="m80 200h-72c-4.425781 0-8-3.574219-8-8v-112c0-4.425781 3.574219-8 8-8h31.984375c2.128906 0 4.160156.839844 5.65625 2.34375l40.015625 40c1.503906 1.496094 2.34375 3.527344 2.34375 5.65625v72c0 4.425781-3.574219 8-8 8zm-64-16h56v-60.6875l-35.328125-35.3125h-20.671875zm0 0"/><path d="m80 128h-40c-4.425781 0-8-3.574219-8-8s3.574219-8 8-8h40c4.425781 0 8 3.574219 8 8s-3.574219 8-8 8zm0 0"/><path d="m39.984375 128c-4.425781 0-8-3.574219-8-8v-40c0-4.425781 3.574219-8 8-8 4.421875 0 8 3.574219 8 8v40c0 4.425781-3.578125 8-8 8zm0 0"/><path d="m120 79.960938c-4.425781 0-8-3.578126-8-8v-3.96875c0-4.425782 3.574219-8 8-8s8 3.574218 8 8v3.96875c0 4.421874-3.574219 8-8 8zm0 0"/></svg>