<svg width="100" height="125.00000000000003" xmlns="http://www.w3.org/2000/svg" xmlns:svg="http://www.w3.org/2000/svg">
 <g>
  <title>Layer 1</title>
  <path fill-rule="evenodd" clip-rule="evenodd" d="m78.854,16.650095c0,8.639216 -7.004955,15.642799 -15.642799,15.642799c-8.637844,0 -15.640054,-7.002211 -15.640054,-15.642799c0,-8.637844 7.002211,-15.641427 15.640054,-15.641427c8.637844,0 15.642799,7.003583 15.642799,15.641427l0,0z" id="svg_2" stroke="#000000" fill="#ff0000" stroke-width="4"/>
  <path fill-rule="evenodd" clip-rule="evenodd" d="m29.256723,94.8586l-11.06385,20.60184l0,8.392224l48.068674,-76.681274c0,0 3.05309,-6.103436 -4.577577,-11.826779c-7.630667,-5.723343 -38.824329,4.886316 -39.749175,22.861813c-0.942684,18.288353 4.268837,19.104797 6.176161,23.299537c1.907324,4.196112 2.05003,7.869426 1.907324,9.919455c-0.152311,2.213319 -0.761557,3.433183 -0.761557,3.433183l0,0l0,0.000001z" id="svg_3" stroke="#000000" fill="#bfbfbf" stroke-width="4"/>
  <polygon transform="rotate(14.485184669494629 32.87169647216797,10.769180297851564) " stroke="null" fill="black" fill-rule="evenodd" clip-rule="evenodd" points="47.96012496948242,6.321033477783203 17.783267974853516,11.214714050292969 47.495914459228516,15.217327117919922 47.96012496948242,6.321033477783203 " id="svg_4" stroke-width="4"/>
  <path transform="rotate(8.373028755187988 51.89844512939463,67.84960937499999) " id="svg_1" fill-rule="evenodd" clip-rule="evenodd" d="m45.183555,78.647735l-5.59764,13.870813l0,5.650319l24.319846,-51.627991c0,0 1.544679,-4.109323 -2.315977,-7.962737c-3.860657,-3.853414 -19.642766,3.28986 -20.110682,15.392408c-0.476941,12.313188 2.159774,12.862883 3.124764,15.687119c0.964991,2.82516 1.037191,5.298329 0.964991,6.678574c-0.07706,1.490184 -0.385302,2.311494 -0.385302,2.311494l0,0l0,0.000001z" fill="#000000" stroke-width="4"/>
 </g>
</svg>