<?xml version="1.0"?>
<svg xmlns="http://www.w3.org/2000/svg" xmlns:xlink="http://www.w3.org/1999/xlink" version="1.1" id="Layer_1" x="0px" y="0px" viewBox="0 0 466.309 466.309" style="enable-background:new 0 0 466.309 466.309;" xml:space="preserve" width="512px" height="512px" class=""><g transform="matrix(-1 0 0 1 466.309 0)"><circle style="fill:#90C5FF;" cx="308.625" cy="160.837" r="138.57" data-original="#90C5FF" class=""/><rect x="69.016" y="280.563" transform="matrix(-0.7071 -0.7071 0.7071 -0.7071 -90.9987 701.6116)" style="fill:#59595A;" width="61.586" height="178.178" data-original="#59595A" class=""/><rect x="137.953" y="292.311" transform="matrix(-0.7071 -0.7071 0.7071 -0.7071 75.4308 632.6729)" style="fill:#ABCB57" width="61.586" height="16.806" data-original="#ABCB57" class="active-path"/><rect x="0.079" y="430.187" transform="matrix(-0.7071 -0.7071 0.7071 -0.7071 -257.4281 770.5503)" style="fill:#ABCB57" width="61.586" height="16.806" data-original="#ABCB57" class="active-path"/><g>
	<g>
		
	</g>
	<g>
		
	</g>
</g><path style="fill:#59595A;" d="M417.893,51.569c-29.186-29.187-67.992-45.26-109.268-45.26s-80.081,16.073-109.268,45.26  c-29.186,29.186-45.26,67.992-45.26,109.268c0,35.857,12.136,69.846,34.456,97.288l-25.259,25.259l22.785,22.785l25.259-25.259  c27.442,22.319,61.43,34.456,97.287,34.456c41.276,0,80.081-16.073,109.268-45.26c29.187-29.187,45.26-67.993,45.26-109.269  S447.08,80.755,417.893,51.569z M395.325,247.537c-23.158,23.158-53.949,35.912-86.7,35.913c-32.751,0-63.542-12.754-86.7-35.913  c-23.158-23.158-35.912-53.949-35.913-86.7c0-32.751,12.754-63.542,35.913-86.7c23.158-23.158,53.949-35.912,86.7-35.913  c32.751,0,63.542,12.754,86.7,35.913s35.912,53.949,35.913,86.7C431.238,193.588,418.484,224.379,395.325,247.537z" data-original="#59595A" class=""/></g> </svg>
