<svg width="512" height="512" xmlns="http://www.w3.org/2000/svg" xmlns:svg="http://www.w3.org/2000/svg">
 <g>
  <title>Layer 1</title>
  <g id="svg_1" stroke="null">
   <rect x="92.40475" y="10" width="336.19049" height="40" fill="#7f7f7f" id="svg_2" stroke="null"/>
   <rect x="92.40475" y="462" width="336.19049" height="40" fill="#7f7f7f" id="svg_3" stroke="null"/>
  </g>
  <g id="svg_4" stroke="null">
   <rect x="134.42856" y="422" width="252.14286" height="40" fill="#bfbfbf" id="svg_5" stroke="null"/>
   <rect x="134.42856" y="50" width="252.14286" height="40" fill="#bfbfbf" id="svg_6" stroke="null"/>
  </g>
  <path d="m285.71428,256c0,-36 100.85715,-42 100.85715,-166l-252.14287,0c0,124 100.85715,130 100.85715,166s-100.85715,36 -100.85715,166l252.14287,0c0,-130 -100.85715,-130 -100.85715,-166z" fill="#ECECEC" id="svg_7" stroke="null"/>
  <path d="m260.5,208c0,0 92.45238,-57.561 92.45238,-118l-184.90477,0c0,60.439 92.45239,118 92.45239,118z" fill="#ffffaa" id="svg_8" stroke="null"/>
  <g id="svg_9" stroke="null">
   <path d="m318.51134,231.414c30.44962,-21.983 76.46485,-55.204 76.46485,-141.414l0,-30l33.61905,0c4.64111,0 8.40476,-4.477 8.40476,-10l0,-40c0,-5.523 -3.76365,-10 -8.40476,-10l-336.19049,0c-4.64111,0 -8.40476,4.477 -8.40476,10l0,40c0,5.523 3.76365,10 8.40476,10l33.61905,0l0,30c0,86.21 46.01523,119.431 76.46485,141.414c12.5441,9.056 24.3923,17.61 24.3923,24.586c0,6.603 -11.39602,14.332 -23.46022,22.515c-15.37651,10.43 -34.51415,23.411 -50.03355,45.29c-18.41315,25.956 -27.36338,58.076 -27.36338,98.195l0,30l-33.61905,0c-4.64111,0 -8.40476,4.477 -8.40476,10l0,40c0,5.523 3.76365,10 8.40476,10l336.19049,0c4.64111,0 8.40476,-4.477 8.40476,-10l0,-40c0,-5.523 -3.76365,-10 -8.40476,-10l-33.61905,0l0,-30c0,-40.119 -8.95023,-72.239 -27.36339,-98.195c-15.51939,-21.878 -34.65703,-34.859 -50.03354,-45.29c-12.0642,-8.183 -23.46022,-15.912 -23.46022,-22.515c0,-6.976 11.8482,-15.53 24.3923,-24.586zm-217.70183,-191.414l0,-20l319.38097,0l0,20l-319.38097,0zm42.02382,20l235.33333,0l0,20l-235.33334,0l0,-20l0.00001,0zm200.70319,40c-7.7744,39.471 -58.44755,80.405 -83.03905,96.637c-24.59653,-16.214 -75.26884,-57.12 -83.03737,-96.637c0,0 166.07642,0 166.07642,0zm76.65396,372l0,20l-319.38097,0l0,-20l319.38097,0zm-42.02382,-20l-235.33334,0l0,-20l235.33334,0l0,20zm-68.91232,-156.11c27.82564,18.874 65.48991,44.421 68.69296,116.11l-197.06646,0c0.33031,-3.122 0.83544,-6.853 1.61456,-10.98c1.93393,-10.33 6.05983,-25.38 14.69152,-38.429c2.79795,-4.229 2.12557,-10.733 -1.41032,-14.04c-3.57202,-3.34 -9.0099,-2.547 -11.80112,1.68c-8.472,12.86 -14.48981,28.47 -17.88534,46.42c-1.11531,5.936 -1.75743,11.187 -2.12808,15.35l-20.90853,0c3.20389,-71.689 40.86731,-97.236 68.69296,-116.11c17.14067,-11.627 31.94398,-21.668 31.94398,-39.891c0,-18.234 -15.05209,-29.102 -32.48188,-41.685c-27.53485,-19.878 -64.77971,-46.772 -68.13153,-114.315l17.2575,0c3.42914,25.323 19.76128,52.007 48.69719,79.48c23.47198,22.287 46.596,36.772 47.57096,37.38c2.32812,1.45 5.35551,1.518 7.79457,0c0.97243,-0.606 24.09814,-15.092 47.5718,-37.38c28.93591,-27.473 45.2672,-54.158 48.69719,-79.48l17.2575,0c-3.35182,67.543 -40.59669,94.437 -68.13153,114.315c-17.43063,12.583 -32.48272,23.451 -32.48272,41.685c0,18.223 14.80331,28.264 31.94482,39.89z" fill="#231F20" id="svg_10" stroke="null"/>
   <circle cx="216.79523" cy="332" r="8.40476" fill="#231F20" id="svg_11" stroke="null"/>
  </g>
  <g id="svg_12" stroke="null"/>
  <g id="svg_13" stroke="null"/>
  <g id="svg_14" stroke="null"/>
  <g id="svg_15" stroke="null"/>
  <g id="svg_16" stroke="null"/>
  <g id="svg_17" stroke="null"/>
  <g id="svg_18" stroke="null"/>
  <g id="svg_19" stroke="null"/>
  <g id="svg_20" stroke="null"/>
  <g id="svg_21" stroke="null"/>
  <g id="svg_22" stroke="null"/>
  <g id="svg_23" stroke="null"/>
  <g id="svg_24" stroke="null"/>
  <g id="svg_25" stroke="null"/>
  <g id="svg_26" stroke="null"/>
 </g>
</svg>