<svg width="512" height="512" xmlns="http://www.w3.org/2000/svg" xmlns:svg="http://www.w3.org/2000/svg">
 <g>
  <title>Layer 1</title>
  <g stroke="null" id="svg_27">
   <g stroke="null" id="svg_1">
    <rect stroke="null" id="svg_2" fill="#EE3C32" height="40" width="336.190486" y="10" x="92.404752"/>
    <rect stroke="null" id="svg_3" fill="#EE3C32" height="40" width="336.190486" y="462" x="92.404752"/>
   </g>
   <g stroke="null" id="svg_4">
    <rect stroke="null" id="svg_5" fill="#E48A80" height="40" width="252.142864" y="422" x="134.428563"/>
    <rect stroke="null" id="svg_6" fill="#E48A80" height="40" width="252.142864" y="50" x="134.428563"/>
   </g>
   <path stroke="null" id="svg_7" fill="#ECECEC" d="m285.714281,256c0,-36 100.857146,-42 100.857146,-166l-252.142864,0c0,124 100.857146,130 100.857146,166s-100.857146,36 -100.857146,166l252.142864,0c0,-130 -100.857146,-130 -100.857146,-166z"/>
   <path stroke="null" id="svg_8" fill="#FAC800" d="m260.499995,208c0,0 92.452384,-57.561 92.452384,-118l-184.904767,0c0,60.439 92.452384,118 92.452384,118z"/>
   <g stroke="null" id="svg_9">
    <path stroke="null" id="svg_10" fill="#231F20" d="m318.511344,231.414c30.449613,-21.983 76.464845,-55.204 76.464845,-141.414l0,-30l33.619049,0c4.64111,0 8.404762,-4.477 8.404762,-10l0,-40c0,-5.523 -3.763652,-10 -8.404762,-10l-336.190486,0c-4.64111,0 -8.404762,4.477 -8.404762,10l0,40c0,5.523 3.763652,10 8.404762,10l33.619049,0l0,30c0,86.21 46.015232,119.431 76.464845,141.414c12.544108,9.056 24.392301,17.61 24.392301,24.586c0,6.603 -11.396017,14.332 -23.460213,22.515c-15.376512,10.43 -34.514156,23.411 -50.033549,45.29c-18.413153,25.956 -27.363384,58.076 -27.363384,98.195l0,30l-33.619049,0c-4.64111,0 -8.404762,4.477 -8.404762,10l0,40c0,5.523 3.763652,10 8.404762,10l336.190486,0c4.64111,0 8.404762,-4.477 8.404762,-10l0,-40c0,-5.523 -3.763652,-10 -8.404762,-10l-33.619049,0l0,-30c0,-40.119 -8.950231,-72.239 -27.363384,-98.195c-15.519393,-21.878 -34.657037,-34.859 -50.033549,-45.29c-12.064196,-8.183 -23.460213,-15.912 -23.460213,-22.515c0,-6.976 11.848193,-15.53 24.392301,-24.586zm-217.70183,-191.414l0,-20l319.380962,0l0,20l-319.380962,0zm42.023811,20l235.33334,0l0,20l-235.33334,0l0,-20zm200.703199,40c-7.774405,39.471 -58.447556,80.405 -83.03905,96.637c-24.596536,-16.214 -75.268847,-57.12 -83.037369,-96.637c0,0 166.076419,0 166.076419,0zm76.653952,372l0,20l-319.380962,0l0,-20l319.380962,0zm-42.023811,-20l-235.33334,0l0,-20l235.33334,0l0,20zm-68.912326,-156.11c27.825646,18.874 65.489907,44.421 68.692962,116.11l-197.066458,0c0.330307,-3.122 0.835433,-6.853 1.614555,-10.98c1.933936,-10.33 6.059834,-25.38 14.691524,-38.429c2.797945,-4.229 2.125564,-10.733 -1.410319,-14.04c-3.572024,-3.34 -9.009905,-2.547 -11.801127,1.68c-8.472,12.86 -14.48981,28.47 -17.885334,46.42c-1.115312,5.936 -1.757436,11.187 -2.128086,15.35l-20.908527,0c3.203895,-71.689 40.867315,-97.236 68.692962,-116.11c17.140672,-11.627 31.943979,-21.668 31.943979,-39.891c0,-18.234 -15.052089,-29.102 -32.481884,-41.685c-27.534841,-19.878 -64.779704,-46.772 -68.131523,-114.315l17.257498,0c3.429143,25.323 19.761277,52.007 48.697192,79.48c23.471979,22.287 46.596001,36.772 47.570954,37.38c2.328119,1.45 5.355514,1.518 7.794576,0c0.972431,-0.606 24.098134,-15.092 47.571794,-37.38c28.935915,-27.473 45.267208,-54.158 48.697192,-79.48l17.257498,0c-3.351819,67.543 -40.596682,94.437 -68.131523,114.315c-17.430636,12.583 -32.482725,23.451 -32.482725,41.685c0,18.223 14.803308,28.264 31.94482,39.89z"/>
    <circle stroke="null" id="svg_11" fill="#231F20" r="8.404762" cy="332" cx="216.795232"/>
   </g>
   <g stroke="null" id="svg_12"/>
   <g stroke="null" id="svg_13"/>
   <g stroke="null" id="svg_14"/>
   <g stroke="null" id="svg_15"/>
   <g stroke="null" id="svg_16"/>
   <g stroke="null" id="svg_17"/>
   <g stroke="null" id="svg_18"/>
   <g stroke="null" id="svg_19"/>
   <g stroke="null" id="svg_20"/>
   <g stroke="null" id="svg_21"/>
   <g stroke="null" id="svg_22"/>
   <g stroke="null" id="svg_23"/>
   <g stroke="null" id="svg_24"/>
   <g stroke="null" id="svg_25"/>
   <g stroke="null" id="svg_26"/>
  </g>
 </g>
</svg>