<?xml version="1.0" encoding="iso-8859-1"?>
<!-- Generator: Adobe Illustrator 19.0.0, SVG Export Plug-In . SVG Version: 6.00 Build 0)  -->
<svg version="1.1" id="Layer_1" xmlns="http://www.w3.org/2000/svg" xmlns:xlink="http://www.w3.org/1999/xlink" x="0px" y="0px"
	 viewBox="0 0 512.257 512.257" style="enable-background:new 0 0 512.257 512.257;" xml:space="preserve">
<g transform="translate(1 1)">
	<g>
		<path style="fill:#FD9808;" d="M309.685,274.03c-29.013-29.013-162.133-167.253-180.907-203.947l-0.853,0.853
			c0,10.24-2.56,19.627-7.68,29.013c21.333,27.307,145.067,159.573,170.667,185.173l35.84,35.84
			c20.48,20.48,59.733,46.933,86.187,69.973c8.533-5.12,18.773-7.68,29.013-7.68l0.853-0.853
			c-32.427-21.333-73.387-49.493-96.427-72.533L309.685,274.03z"/>
		<path style="fill:#FD9808;" d="M490.592,185.284l-16.213-16.213c5.973,5.973,5.12,15.36-1.707,22.187l-60.587,60.587
			c-6.827,6.827-17.067,7.68-22.187,1.707l16.213,16.213c6.827,6.827,17.067,6.827,23.893,0l60.587-60.587
			C497.419,202.35,497.419,192.11,490.592,185.284"/>
	</g>
	<path style="fill:#FFDD09;" d="M442.805,491.63l-15.36-40.107l0.853-3.413c4.267-11.093,15.36-16.213,29.013-13.653l4.267,0.853
		l29.013,42.667c11.093-19.627,0.853-51.2-24.747-72.533c-18.773-14.507-42.667-18.773-58.027-10.24
		c-24.747,13.653-21.333,51.2,5.12,77.653C425.739,486.51,428.299,490.777,442.805,491.63"/>
	<path style="fill:#FFFFFF;" d="M412.085,472.857c-23.04-23.04-28.16-54.613-12.8-71.68c-22.187,23.04-22.187,60.587,0.853,83.627
		c13.653,13.653,30.72,18.773,48.64,17.067l-5.973-9.387C432.565,489.07,421.472,482.244,412.085,472.857"/>
	<path style="fill:#FD9808;" d="M476.939,394.35c-19.627-14.507-46.933-14.507-67.413-0.853c-3.413,2.56-6.827,5.12-9.387,7.68
		c1.707-1.707,4.267-3.413,6.827-5.12c15.36-8.533,38.4-4.267,58.027,10.24c24.747,19.627,34.987,48.64,26.453,68.267l0.853,0.853
		C509.365,449.817,504.245,413.977,476.939,394.35"/>
	<path style="fill:#FFDD09;" d="M110.859,88.004L110.859,88.004c5.12,13.653,4.267,23.893-4.267,26.453
		c-5.12,1.707-11.947,0.853-19.627-2.56l0,0c31.573,24.747,168.96,157.867,197.973,186.88l35.84,35.84
		c23.04,23.04,55.467,60.587,79.36,89.6l0,0c-5.12-12.8-5.12-23.04,4.267-26.453c5.12-1.707,11.947-0.853,19.627,2.56l0,0
		c-29.013-24.747-66.56-56.32-89.6-79.36l-35.84-35.84C269.579,256.11,134.752,119.577,110.859,88.004"/>
	<path style="fill:#FFFFFF;" d="M320.779,335.47l-35.84-35.84c-25.6-25.6-159.573-156.16-186.88-177.493
		c-8.533,5.12-18.773,7.68-29.013,7.68l-0.853,0.853c36.693,18.773,175.787,150.187,205.653,180.053l35.84,35.84
		c23.04,23.04,51.2,64,72.533,96.427l0.853-0.853c0-10.24,2.56-19.627,7.68-29.013C367.712,386.67,341.259,355.95,320.779,335.47"/>
	<path style="fill:#FFDD09;" d="M62.219,15.47l21.333,46.08l-0.853,3.413c-4.267,11.093-15.36,16.213-29.013,12.8l-4.267-0.853
		L20.405,34.244c-11.093,19.627-0.853,51.2,24.747,72.533c18.773,14.507,42.667,18.773,58.027,10.24
		c24.747-13.653,21.333-51.2-5.12-77.653C85.259,26.564,76.725,17.177,62.219,15.47"/>
	<path style="fill:#FD9808;" d="M61.365,9.497l5.973,11.093c10.24,3.413,21.333,9.387,30.72,18.773
		c23.04,23.04,28.16,54.613,12.8,71.68c22.187-23.04,22.187-60.587-0.853-83.627C96.352,13.764,78.432,7.79,61.365,9.497"/>
	<path style="fill:#FFFFFF;" d="M103.179,117.017c-15.36,8.533-38.4,4.267-58.027-10.24C20.405,87.15,10.165,58.137,18.699,38.51
		l-0.853-1.707c-17.067,25.6-11.947,62.293,15.36,81.92c19.627,14.507,46.933,14.507,67.413,0.853c3.413-2.56,6.827-5.12,9.387-7.68
		C107.445,113.604,105.739,115.31,103.179,117.017"/>
	<path style="fill:#FFDD09;" d="M276.405,150.297L21.259,441.284c-12.8,12.8-16.213,32.427-5.973,41.813l11.947,11.947
		c10.24,10.24,29.013,7.68,41.813-5.973l255.147-290.987L276.405,150.297z"/>
	<path style="fill:#FFFFFF;" d="M34.912,452.377l253.44-289.28l-11.947-11.947L15.285,447.257c-10.24,10.24-10.24,26.453,0,35.84
		l3.413,3.413C13.579,481.39,20.405,466.03,34.912,452.377"/>
	<path style="fill:#FD9808;" d="M312.245,186.99L58.805,476.27c-13.653,13.653-29.013,21.333-34.133,16.213l2.56,2.56
		c10.24,10.24,26.453,10.24,35.84,0l261.12-296.107L312.245,186.99z"/>
	<path style="fill:#FFDD09;" d="M278.112,152.857c19.627-19.627,23.893-48.64,6.827-65.707
		c-34.133-34.133-44.373-40.96-86.187-37.547c64.853-32.427,98.987-30.72,143.36-12.8c19.627,7.68,26.453,13.653,40.96,29.013
		l38.4,35.84c6.827,6.827,11.093,15.36,11.093,25.6c0.853,15.36-5.12,19.627,4.267,29.867c2.56,2.56,7.68,2.56,11.093-0.853
		c3.413-3.413,8.533-4.267,11.093-0.853l15.36,15.36c5.973,5.973,5.12,15.36-1.707,22.187l-60.587,60.587
		c-6.827,6.827-17.067,7.68-22.187,1.707l-15.36-15.36c-2.56-2.56-2.56-7.68,0.853-11.093s3.413-8.533,0.853-11.093
		c-10.24-10.24-23.893-16.213-39.253-17.067c-10.24-0.853-13.653,0.853-20.48-5.973L278.112,152.857"/>
	<path style="fill:#FFFFFF;" d="M342.965,36.804c19.627,7.68,26.453,13.653,40.96,29.013l-0.853-0.853
		c-17.92-17.92-25.6-25.6-46.933-34.987c-49.493-23.04-98.987-15.36-167.253,13.653c21.333,0,37.547-0.853,52.907,2.56
		C269.579,26.564,307.125,22.297,342.965,36.804"/>
	<path d="M353.205,407.15c-2.56,0-4.267-0.853-5.973-2.56c-3.413-3.413-3.413-8.533,0-11.947l17.067-17.067
		c3.413-3.413,8.533-3.413,11.947,0c3.413,3.413,3.413,8.533,0,11.947l-17.067,17.067
		C357.472,406.297,355.765,407.15,353.205,407.15z"/>
	<path d="M69.045,135.79c-13.653,0-27.307-4.267-39.253-12.8c-30.72-21.333-38.4-62.293-17.92-93.013
		c1.707-2.56,4.267-4.267,6.827-3.413c2.56,0,5.973,1.707,6.827,4.267l24.747,40.96c11.947,0.853,23.893-5.973,29.013-17.067l0,0
		L55.392,12.057c-1.707-2.56-1.707-5.973,0-8.533c0.853-1.707,3.413-3.413,5.973-4.267c20.48-1.707,40.96,5.12,55.467,19.627
		s21.333,34.133,19.627,54.613s-12.8,38.4-29.867,50.347C95.499,132.377,81.845,135.79,69.045,135.79z M19.552,53.017
		c-5.973,20.48,1.707,43.52,19.627,56.32c17.067,11.947,40.107,11.947,57.173,0.853c12.8-8.533,21.333-22.187,23.04-37.547
		s-4.267-29.867-14.507-40.96c-7.68-7.68-17.067-12.8-27.307-14.507l18.773,32.427c1.707,2.56,1.707,5.12,0,7.68l-1.707,4.267
		c-8.533,17.067-26.453,27.307-46.08,26.453h-4.267c-2.56,0-5.12-1.707-6.827-4.267L19.552,53.017z"/>
	<path d="M442.805,509.55c-17.92,0-34.987-6.827-47.787-19.627c-14.507-14.507-21.333-34.133-19.627-54.613s12.8-38.4,29.867-50.347
		c23.04-15.36,53.76-15.36,76.8,0.853c29.867,21.333,38.4,62.293,17.92,93.013c-1.707,2.56-4.267,3.413-7.68,4.267
		c-2.56,0-5.973-1.707-6.827-4.267l-23.893-40.96c-12.8-0.853-23.893,5.973-29.867,17.067l24.747,41.813
		c1.707,2.56,1.707,5.973,0,8.533c-1.707,2.56-4.267,4.267-6.827,4.267C447.925,509.55,445.365,509.55,442.805,509.55z
		 M442.805,390.084c-10.24,0-19.627,2.56-28.16,8.533c-12.8,8.533-21.333,22.187-23.04,37.547
		c-1.707,15.36,4.267,29.867,14.507,40.96c7.68,7.68,17.067,12.8,27.307,14.507l-18.773-32.427c-1.707-2.56-1.707-5.12,0-7.68
		l1.707-4.267c8.533-17.067,26.453-28.16,46.08-26.453h4.267c2.56,0,5.12,1.707,6.827,4.267l17.92,30.72
		c5.973-20.48-1.707-43.52-19.627-56.32C463.285,393.497,453.045,390.084,442.805,390.084z"/>
	<path d="M332.725,379.844c-2.56,0-4.267-0.853-5.973-2.56c-3.413-3.413-3.413-8.533,0-11.947l13.653-13.653
		c3.413-3.413,8.533-3.413,11.947,0c3.413,3.413,3.413,8.533,0,11.947l-13.653,13.653
		C336.992,378.99,335.285,379.844,332.725,379.844z"/>
	<path d="M424.885,285.124c-6.827,0-13.653-2.56-17.92-7.68l-29.867-29.867c-3.413-3.413-5.12-8.533-5.12-12.8
		c0-4.267,1.707-8.533,5.12-11.093c-6.827-5.973-8.533-5.973-15.36-5.973c-3.413,0-6.827,0-11.947-0.853
		c-11.947-1.707-23.893-7.68-33.28-17.067l-41.813-41.813c-3.413-3.413-3.413-8.533,0-11.947
		c17.067-17.067,17.92-42.667,1.707-58.88c-34.133-34.133-53.76-34.133-91.307-34.133h-11.093c-4.267,0-7.68-2.56-8.533-6.827
		c-0.853-4.267,0.853-7.68,5.12-9.387c73.387-33.28,123.733-37.547,173.227-14.507c23.04,10.24,31.573,18.773,49.493,36.693
		l30.72,30.72c9.387,9.387,15.36,21.333,17.067,33.28c1.707,5.12,1.707,9.387,1.707,12.8c0,6.827,0,8.533,6.827,14.507
		c3.413-2.56,7.68-5.12,11.947-5.12l0,0c4.267,0,8.533,1.707,11.947,5.12l29.867,29.867c5.12,5.12,7.68,11.093,7.68,17.92
		c0,6.827-2.56,13.653-7.68,17.92l-60.587,60.587C438.539,282.564,431.712,285.124,424.885,285.124z M389.045,234.777l29.867,29.867
		c3.413,3.413,8.533,3.413,11.947,0l60.587-60.587c1.707-1.707,2.56-3.413,2.56-5.973s-0.853-4.267-2.56-5.973l-29.867-29.867
		c-2.56,3.413-6.827,5.12-11.947,5.12c-4.267,0-9.387-1.707-12.8-5.12c-10.24-10.24-11.093-17.067-11.093-26.453
		c0-2.56,0-5.973-0.853-10.24c-0.853-8.533-5.12-17.067-11.947-23.893l-30.72-30.72c-17.92-17.92-24.747-24.747-45.227-33.28
		c-35.84-16.213-71.68-17.067-120.32-1.707c23.04,2.56,43.52,11.093,70.827,37.547c20.48,20.48,22.187,52.907,3.413,75.947
		l36.693,36.693c6.827,6.827,14.507,11.093,23.893,11.947c4.267,0.853,7.68,0.853,10.24,0.853c9.387,0,16.213,0.853,26.453,11.093
		c3.413,3.413,5.12,8.533,5.12,12.8C394.165,227.95,392.459,232.217,389.045,234.777z"/>
	<g>
		<path id="SVGCleanerId_0" d="M45.152,511.257c-8.533,0-17.067-3.413-23.893-9.387L9.312,489.924
			c-6.827-6.827-10.24-15.36-10.24-24.747c0-9.387,3.413-18.773,10.24-25.6l264.533-295.253c1.707-1.707,3.413-2.56,5.973-2.56
			s4.267,0.853,5.973,2.56l48.64,48.64c3.413,3.413,3.413,8.533,0,11.947L69.899,501.017
			C63.072,507.844,53.685,511.257,45.152,511.257z M280.672,163.097l-258.56,289.28c-4.267,4.267-5.973,8.533-5.973,13.653
			c0,4.267,1.707,8.533,5.12,11.947l11.947,11.093c6.827,6.827,17.92,5.973,24.747-0.853l258.56-289.28L280.672,163.097z"/>
	</g>
	<path d="M45.152,461.764c-2.56,0-4.267-0.853-5.973-2.56l-17.92-17.92c-3.413-3.413-3.413-8.533,0-11.947
		c3.413-3.413,8.533-3.413,11.947,0l17.92,17.92c3.413,3.413,3.413,8.533,0,11.947C49.419,460.91,47.712,461.764,45.152,461.764z"/>
	<path d="M69.045,437.87c-2.56,0-4.267-0.853-5.973-2.56l-17.92-17.92c-3.413-3.413-3.413-8.533,0-11.947
		c3.413-3.413,8.533-3.413,11.947,0l17.92,17.92c3.413,3.413,3.413,8.533,0,11.947C73.312,437.017,71.605,437.87,69.045,437.87z"/>
	<g>
		<path id="SVGCleanerId_0_1_" d="M45.152,511.257c-8.533,0-17.067-3.413-23.893-9.387L9.312,489.924
			c-6.827-6.827-10.24-15.36-10.24-24.747c0-9.387,3.413-18.773,10.24-25.6l264.533-295.253c1.707-1.707,3.413-2.56,5.973-2.56
			s4.267,0.853,5.973,2.56l48.64,48.64c3.413,3.413,3.413,8.533,0,11.947L69.899,501.017
			C63.072,507.844,53.685,511.257,45.152,511.257z M280.672,163.097l-258.56,289.28c-4.267,4.267-5.973,8.533-5.973,13.653
			c0,4.267,1.707,8.533,5.12,11.947l11.947,11.093c6.827,6.827,17.92,5.973,24.747-0.853l258.56-289.28L280.672,163.097z"/>
	</g>
	<g>
		<path id="SVGCleanerId_0_2_" d="M45.152,511.257c-8.533,0-17.067-3.413-23.893-9.387L9.312,489.924
			c-6.827-6.827-10.24-15.36-10.24-24.747c0-9.387,3.413-18.773,10.24-25.6l264.533-295.253c1.707-1.707,3.413-2.56,5.973-2.56
			s4.267,0.853,5.973,2.56l48.64,48.64c3.413,3.413,3.413,8.533,0,11.947L69.899,501.017
			C63.072,507.844,53.685,511.257,45.152,511.257z M280.672,163.097l-258.56,289.28c-4.267,4.267-5.973,8.533-5.973,13.653
			c0,4.267,1.707,8.533,5.12,11.947l11.947,11.093c6.827,6.827,17.92,5.973,24.747-0.853l258.56-289.28L280.672,163.097z"/>
	</g>
	<path d="M203.019,245.87c-2.56,0-4.267-0.853-5.973-2.56l-37.547-36.693c-31.573-31.573-61.44-53.76-94.72-70.827
		c-2.56-0.853-4.267-3.413-4.267-5.973c0-2.56,0.853-5.12,2.56-7.68l0.853-0.853c0.853-1.707,3.413-2.56,5.12-2.56
		c10.24,0,19.627-3.413,27.307-8.533c14.507-9.387,23.04-24.747,23.04-41.813c0-2.56,0.853-4.267,2.56-5.973l0.853-0.853
		c2.56-1.707,5.12-2.56,7.68-2.56c2.56,0,5.12,1.707,5.973,4.267c17.067,33.28,39.253,63.147,70.827,94.72l34.987,34.987
		c3.413,3.413,3.413,8.533,0,11.947l-34.133,38.4C207.285,244.164,205.579,245.87,203.019,245.87L203.019,245.87z M92.939,131.524
		c27.307,16.213,52.907,36.693,78.507,63.147l30.72,30.72l23.04-25.6l-29.867-29.867c-25.6-25.6-46.08-51.2-62.293-78.507
		c-5.12,13.653-13.653,24.747-26.453,33.28C102.325,127.257,97.205,129.817,92.939,131.524z"/>
	<path d="M382.219,449.817L382.219,449.817c-3.413,0-5.973-1.707-6.827-3.413c-30.72-46.08-53.76-77.653-71.68-95.573
		l-59.733-59.733c-3.413-3.413-3.413-8.533,0-11.947l34.133-38.4c1.707-1.707,3.413-2.56,5.973-2.56s4.267,0.853,5.973,2.56
		l61.44,61.44c17.92,17.92,48.64,40.96,95.573,71.68c2.56,1.707,3.413,3.413,3.413,5.973s-0.853,5.12-2.56,6.827l-0.853,0.853
		c-1.707,1.707-3.413,2.56-5.973,2.56c-10.24,0-19.627,3.413-27.307,8.533c-13.653,10.24-22.187,25.6-22.187,42.667
		c0,2.56-0.853,4.267-2.56,5.973l-0.853,0.853C387.339,448.964,384.779,449.817,382.219,449.817z M262.752,285.124l53.76,53.76
		c16.213,16.213,36.693,42.667,62.293,80.213c5.12-13.653,13.653-26.453,27.307-34.987c5.12-3.413,10.24-5.973,15.36-7.68
		c-38.4-25.6-64.853-46.08-80.213-62.293l-55.467-55.467L262.752,285.124z"/>
</g>
<g>
</g>
<g>
</g>
<g>
</g>
<g>
</g>
<g>
</g>
<g>
</g>
<g>
</g>
<g>
</g>
<g>
</g>
<g>
</g>
<g>
</g>
<g>
</g>
<g>
</g>
<g>
</g>
<g>
</g>
</svg>
