<?xml version="1.0" encoding="iso-8859-1"?>
<!-- Generator: Adobe Illustrator 19.0.0, SVG Export Plug-In . SVG Version: 6.00 Build 0)  -->
<svg version="1.1" id="Capa_1" xmlns="http://www.w3.org/2000/svg" xmlns:xlink="http://www.w3.org/1999/xlink" x="0px" y="0px"
	 viewBox="0 0 512 512" style="enable-background:new 0 0 512 512;" xml:space="preserve">
<path style="fill:#FF9478;" d="M355.629,390.576c0.472-0.009,0.944-0.018,1.412-0.029
	C356.573,390.557,356.1,390.566,355.629,390.576z"/>
<path d="M355.625,400.576c-5.432,0-9.887-4.348-9.994-9.803c-0.108-5.521,4.279-10.086,9.801-10.195c0,0,0.005,0,0.012,0
	l1.378-0.028c5.508-0.122,10.095,4.256,10.217,9.778c0.121,5.521-4.257,10.096-9.778,10.217l-1.435,0.029
	C355.759,400.575,355.692,400.576,355.625,400.576z"/>
<path style="fill:#FFC477;" d="M417.604,386.95c0,0-18.362,2.064-45.792,3.149c-57.846,2.279-156.001,0.131-207.349-35.119
	c-66.364-45.569-83.066-112.48-40.619-205.444c-10.31-14.446-16.391-32.101-16.391-51.188c0-48.79,39.616-88.347,88.478-88.347
	c48.863,0,88.478,39.557,88.478,88.347c0,7.706-0.992,15.174-2.843,22.296c2.306,4.664,10.071,20.351,20.501,41.442
	c0,0.012,0.012,0.012,0.012,0.024c29.831,60.278,81.561,164.778,90.688,183.089C400.508,360.717,417.604,386.95,417.604,386.95z"/>
<path style="fill:#FF6243;" d="M440.113,471.073c-0.135-0.24-21.351-37.985-46.194-82.141c-6.374,0.423-13.823,0.84-22.108,1.168
	c-13.74,0.541-29.755,0.831-46.876,0.489c-1.302,0.025-2.602,0.05-3.93,0.069l85.527,101.502c5.524,6.175,10.103,9.841,16.859,9.841
	c3.205,0,6.457-0.798,9.451-2.479C442.143,494.299,444.943,482.009,440.113,471.073z"/>
<path style="fill:#FF9478;" d="M359.145,435.92l-38.139-45.263c1.328-0.019,2.628-0.044,3.93-0.069
	c0.965,0.019,1.913,0.03,2.87,0.045c-20.853-0.334-43.458-1.582-65.685-4.471l74.386,88.281c5.339,6.042,10.103,9.841,16.859,9.841
	c3.205,0,6.457-0.799,9.452-2.481c9.3-5.221,12.601-16.983,7.372-26.27L359.145,435.92z"/>
<path style="fill:#A78966;" d="M107.453,98.348c0-12.166,2.464-23.757,6.919-34.304L75.131,76.285
	c-2.726,0.85-4.777,3.076-5.383,5.837c-0.604,2.761,0.33,5.642,2.45,7.553l39.446,35.55
	C108.928,116.751,107.453,107.724,107.453,98.348z"/>
<path style="fill:#FFC477;" d="M158.65,163.902C158.65,163.902,158.445,164.352,158.65,163.902"/>
<path d="M158.553,174.105c-1.393,0-2.807-0.292-4.155-0.91c-3.674-1.681-5.841-5.308-5.841-9.1c0-1.392,0.292-2.807,0.909-4.155
	l0.092-0.2c2.297-5.022,8.23-7.23,13.255-4.931c3.673,1.681,5.841,5.308,5.84,9.099c0,1.393-0.292,2.807-0.909,4.155l-0.092,0.2
	C165.971,171.937,162.344,174.105,158.553,174.105z"/>
<path style="fill:#A78966;" d="M417.604,386.95c0,0-18.362,2.064-45.792,3.149c-14.312-7.551-26.02-18.323-34.658-28.069
	c-11.075-12.502-17.108-23.286-17.108-23.322c-135.537,12.86-135.429-108.317-135.429-108.317s-5.854-87.047,69.841-87.047
	c17.61,0,33.726,6.37,46.199,16.904c0,0,0.502,0.632,1.41,1.837c0,0.012,0.012,0.012,0.012,0.024
	c29.831,60.278,81.561,164.778,90.688,183.089C400.508,360.717,417.604,386.95,417.604,386.95z"/>
<path d="M168.523,79.938c-3.79,0-7.415-2.166-9.097-5.837c-2.301-5.021-0.096-10.956,4.926-13.256l15.995-7.328
	c2.644-1.212,5.685-1.213,8.33,0l15.996,7.328c5.021,2.3,7.227,8.235,4.927,13.256c-2.302,5.021-8.238,7.228-13.257,4.926
	l-11.831-5.42l-11.83,5.42C171.332,79.645,169.916,79.938,168.523,79.938z"/>
<path d="M319.975,304.32c-0.65,0-1.31-0.07-1.96-0.2c-0.63-0.12-1.26-0.32-1.87-0.57c-0.6-0.25-1.18-0.56-1.72-0.92
	c-0.55-0.36-1.061-0.78-1.521-1.24s-0.88-0.97-1.25-1.52c-0.359-0.54-0.67-1.12-0.92-1.72c-0.25-0.61-0.44-1.24-0.569-1.88
	c-0.13-0.64-0.19-1.3-0.19-1.95s0.061-1.31,0.19-1.95c0.13-0.64,0.319-1.27,0.569-1.87c0.25-0.61,0.56-1.19,0.92-1.73
	c0.37-0.55,0.79-1.06,1.25-1.52s0.971-0.88,1.521-1.24c0.54-0.36,1.12-0.67,1.72-0.92c0.61-0.25,1.24-0.45,1.87-0.58
	c1.29-0.26,2.62-0.26,3.91,0c0.64,0.13,1.27,0.33,1.87,0.58c0.609,0.25,1.19,0.56,1.73,0.92c0.55,0.36,1.061,0.78,1.52,1.24
	c1.859,1.86,2.93,4.44,2.93,7.07s-1.07,5.21-2.93,7.07c-0.46,0.46-0.971,0.88-1.52,1.24c-0.54,0.36-1.12,0.67-1.73,0.92
	c-0.6,0.25-1.23,0.45-1.87,0.57C321.285,304.25,320.625,304.32,319.975,304.32z"/>
<path d="M449.261,467.032c-0.131-0.297-0.278-0.59-0.438-0.873l-1.513-2.691c-4.629-8.233-19.311-34.35-36.983-65.765
	c5.126-0.453,8.095-0.783,8.393-0.816c0.425-0.048,0.842-0.123,1.252-0.223c0.006-0.001,0.012-0.002,0.017-0.003
	c0.186-0.046,0.362-0.115,0.545-0.171c2.662-0.818,4.902-2.705,6.114-5.274c1.479-3.138,1.228-6.819-0.667-9.725
	c-0.168-0.258-16.874-25.936-24.266-40.754c-0.637-1.278-1.475-2.963-2.492-5.009c-15.25-30.693-70.634-142.593-88.172-178.031
	c-0.001-0.002-0.002-0.004-0.003-0.006c-0.006-0.013-0.013-0.025-0.018-0.038l-18.898-38.204c1.512-6.913,2.277-13.994,2.277-21.101
	C294.409,44.119,250.232,0,195.931,0c-39.058,0-72.878,22.827-88.787,55.823L72.155,66.738c-6.138,1.913-10.803,6.987-12.175,13.246
	c-1.369,6.252,0.746,12.811,5.523,17.12l37.489,33.787c2.403,6.828,5.559,13.401,9.465,19.611
	c-40.427,92.29-24.848,163.836,46.346,212.722c22.682,15.571,55.682,26.433,98.156,32.331l71.901,85.332
	c0.051,0.06,0.102,0.119,0.153,0.178c5.775,6.537,13.186,13.22,24.353,13.22c5.002,0,9.963-1.3,14.348-3.761
	c5.694-3.197,10.057-8.085,12.578-13.988l18.594,22.066c0.064,0.076,0.129,0.15,0.194,0.224C405.2,505.668,412.382,512,423.391,512
	c5.003,0,9.964-1.3,14.347-3.759C451.316,500.617,456.27,482.901,449.261,467.032z M293.426,167.242
	c0.031,0.041,0.064,0.084,0.098,0.129c0.948,1.915,1.997,4.035,3.138,6.341c0.401,0.81,0.815,1.646,1.237,2.5
	c0.456,0.92,0.92,1.859,1.4,2.828c0.292,0.59,0.586,1.183,0.886,1.79c0.36,0.727,0.726,1.467,1.098,2.219
	c0.555,1.122,1.127,2.277,1.707,3.449c0.192,0.387,0.384,0.776,0.579,1.169c24.945,50.399,71.51,144.463,80.249,161.993
	c4.246,8.515,11.057,19.901,16.561,28.786c-0.908,0.069-1.853,0.138-2.826,0.209c-0.311,0.022-0.643,0.045-0.96,0.068
	c-0.679,0.048-1.36,0.096-2.068,0.144c-0.4,0.027-0.819,0.054-1.229,0.082c-0.319,0.021-0.645,0.042-0.97,0.064
	c-1.204,0.078-2.412,0.154-3.625,0.228c-0.252,0.015-0.496,0.031-0.751,0.046c-0.298,0.018-0.605,0.035-0.906,0.053
	c-1.29,0.075-2.583,0.148-3.879,0.218c-0.158,0.009-0.313,0.017-0.471,0.026c-0.397,0.021-0.802,0.042-1.204,0.063
	c-1.208,0.063-2.418,0.122-3.628,0.18c-0.363,0.017-0.724,0.035-1.091,0.052c-0.238,0.011-0.48,0.022-0.72,0.033
	c-0.629,0.028-1.258,0.054-1.887,0.081c-10.294-5.825-20.217-14.087-29.525-24.59c-9.84-11.109-15.364-20.685-15.77-21.398
	c-0.533-1-1.238-1.912-2.095-2.691c-2.083-1.896-4.873-2.829-7.673-2.558c-39.694,3.766-70.686-4.169-92.108-23.585
	c-31.846-28.863-32.374-74.334-32.376-74.768c0-0.227-0.007-0.454-0.023-0.68c-0.025-0.38-2.316-38.268,18.437-60.463
	c5.191-5.552,11.517-9.65,18.9-12.302l60.528,108.557c1.83,3.282,5.234,5.132,8.743,5.132c1.648,0,3.319-0.408,4.861-1.268
	c4.823-2.689,6.554-8.78,3.864-13.604l-57.093-102.396c0.541-0.01,1.074-0.031,1.623-0.031
	C268.647,153.344,282.444,158.272,293.426,167.242z M329.376,335.112c-0.139-0.36-0.297-0.712-0.476-1.053
	C329.044,334.328,329.212,334.687,329.376,335.112z M97.455,98.977l-15.811-14.25l17.666-5.511
	c-0.898,4.55-1.468,9.172-1.715,13.848c-0.005,0.088-0.011,0.175-0.016,0.263c-0.035,0.699-0.06,1.401-0.08,2.103
	c-0.004,0.139-0.012,0.276-0.015,0.415c-0.021,0.832-0.032,1.666-0.032,2.502C97.453,98.557,97.454,98.768,97.455,98.977z
	 M263.083,376.215c-35.295-4.595-69.539-13.401-92.959-29.479c-64.203-44.085-76.366-107.232-37.183-193.047
	c1.485-3.253,1.12-7.052-0.957-9.962c-4.709-6.598-8.314-13.779-10.758-21.336c-0.021-0.072-0.036-0.144-0.059-0.216
	c-2.464-7.69-3.713-15.706-3.713-23.827c0-1.346,0.035-2.685,0.102-4.014c0.004-0.083,0.014-0.165,0.018-0.248
	C119.799,52.859,154.091,20,195.931,20c43.273,0,78.479,35.146,78.479,78.348c0,6.688-0.849,13.343-2.522,19.779
	c-0.605,2.326-0.352,4.792,0.713,6.947l5.892,11.911c-7.736-2.387-15.834-3.641-24.035-3.641c-23.376,0-42.23,7.487-56.036,22.254
	c-25.72,27.508-24.059,70.544-23.803,75.127c0.057,5.061,1.569,55.237,38.771,89.106c6.53,5.945,13.737,10.998,21.591,15.171
	c-17.68-4.48-31.842-10.217-41.853-17.09c-24.149-16.583-38.117-35.232-42.702-57.016c-3.362-15.975-2.057-34.949,3.88-56.395
	c1.474-5.323-1.647-10.832-6.97-12.306c-5.317-1.471-10.831,1.647-12.306,6.97c-6.798,24.559-8.203,46.714-4.175,65.85
	c5.694,27.056,22.36,49.752,50.951,69.385c27.515,18.889,77.816,29.806,145.59,31.641c0.734,0.863,1.49,1.738,2.274,2.622
	c3.848,4.342,7.809,8.357,11.865,12.05c-1.547,0.003-3.106,0.02-4.643,0.014c-0.338-0.001-0.679-0.004-1.018-0.006
	c-2.993-0.016-5.958-0.057-8.909-0.108c-22.92-0.4-44.302-1.865-63.555-4.367C263.301,376.231,263.192,376.226,263.083,376.215z
	 M362.325,467.488c-0.67,2.391-2.233,4.378-4.401,5.595c-1.421,0.797-2.954,1.201-4.559,1.201c-2.303,0-4.565-1.046-9.289-6.378
	l-58.336-69.233c0.391,0.031,0.792,0.057,1.183,0.088c1.628,0.127,3.251,0.247,4.871,0.36c0.629,0.044,1.255,0.09,1.887,0.133
	c1.965,0.131,3.922,0.25,5.872,0.361c0.871,0.05,1.748,0.096,2.624,0.143c1.446,0.076,2.885,0.147,4.32,0.214
	c1.252,0.058,2.51,0.112,3.772,0.164c1.355,0.055,2.705,0.106,4.048,0.153c0.597,0.021,1.183,0.048,1.783,0.067l34.791,41.29
	l10.584,18.795C362.692,462.6,362.993,465.103,362.325,467.488z M427.949,490.8c-1.419,0.796-2.952,1.2-4.558,1.2
	c-2.017,0-3.988-0.474-9.309-6.401l-71.51-84.868c3.099-0.011,6.22-0.046,9.349-0.093c1.278-0.019,2.538-0.04,3.784-0.065
	c0.95-0.019,1.9-0.038,2.853-0.06c1.908-0.044,3.776-0.092,5.594-0.146c0.258-0.008,0.515-0.014,0.774-0.022
	c2.521-0.077,4.952-0.163,7.281-0.254c4.293-0.17,8.362-0.363,12.174-0.568c1.334-0.072,2.631-0.145,3.9-0.219
	c19.689,34.998,36.571,65.026,41.595,73.965l1.259,2.239C433.735,481.781,432.398,488.302,427.949,490.8z"/>
<g>
</g>
<g>
</g>
<g>
</g>
<g>
</g>
<g>
</g>
<g>
</g>
<g>
</g>
<g>
</g>
<g>
</g>
<g>
</g>
<g>
</g>
<g>
</g>
<g>
</g>
<g>
</g>
<g>
</g>
</svg>
