<?xml version="1.0" encoding="iso-8859-1"?>
<!-- Generator: Adobe Illustrator 19.0.0, SVG Export Plug-In . SVG Version: 6.00 Build 0)  -->
<svg version="1.1" id="Layer_1" xmlns="http://www.w3.org/2000/svg" xmlns:xlink="http://www.w3.org/1999/xlink" x="0px" y="0px"
	 viewBox="0 0 512 512" style="enable-background:new 0 0 512 512;" xml:space="preserve">
<g>
	<circle style="fill:#523D1C;" cx="100.174" cy="478.609" r="22.261"/>
	<circle style="fill:#523D1C;" cx="411.826" cy="478.609" r="22.261"/>
	<circle style="fill:#523D1C;" cx="256" cy="478.609" r="22.261"/>
</g>
<g>
	<path style="fill:#C7E0FF;" d="M478.609,189.217h-44.522c-12.295,0-22.261-9.966-22.261-22.261l0,0
		c0-12.295,9.966-22.261,22.261-22.261h44.522c12.295,0,22.261,9.966,22.261,22.261l0,0
		C500.87,179.251,490.903,189.217,478.609,189.217z"/>
	<path style="fill:#C7E0FF;" d="M33.391,189.217h44.522c12.295,0,22.261-9.966,22.261-22.261l0,0
		c0-12.295-9.966-22.261-22.261-22.261H33.391c-12.295,0-22.261,9.966-22.261,22.261l0,0
		C11.13,179.251,21.097,189.217,33.391,189.217z"/>
</g>
<g>
	<path style="fill:#8EB8F4;" d="M329.461,11.13h-51.198h-66.785h-28.939c-20.901,0-37.843,16.943-37.843,37.843v124.661
		c0,20.901,16.943,37.843,37.843,37.843h146.922c20.901,0,37.843-16.943,37.843-37.843V48.974
		C367.304,28.073,350.362,11.13,329.461,11.13z"/>
	<path style="fill:#8EB8F4;" d="M373.612,345.043H138.388c-21.104,0-38.214-17.11-38.214-38.214v-26.342
		c0-13.523,10.963-24.487,24.487-24.487h262.678c13.523,0,24.487,10.963,24.487,24.487v26.342
		C411.826,327.934,394.716,345.043,373.612,345.043z"/>
</g>
<path d="M244.87,22.261c2.927,0,5.799-1.191,7.868-3.261c2.071-2.07,3.262-4.942,3.262-7.869s-1.191-5.799-3.262-7.869
	C250.669,1.191,247.797,0,244.87,0S239.071,1.191,237,3.261c-2.071,2.07-3.261,4.942-3.261,7.869S234.929,16.929,237,19
	S241.942,22.261,244.87,22.261z"/>
<path d="M478.609,133.565h-44.522c-18.412,0-33.391,14.979-33.391,33.391s14.979,33.391,33.391,33.391h11.13V256
	c0,14.51-9.306,26.882-22.261,31.477v-6.99c0-19.64-15.978-35.617-35.617-35.617H267.13v-22.261h62.33
	c27.005,0,48.974-21.969,48.974-48.974V48.974C378.435,21.969,356.466,0,329.461,0h-51.198c-6.146,0-11.13,4.983-11.13,11.13
	s4.984,11.13,11.13,11.13h51.198c14.729,0,26.713,11.983,26.713,26.713v124.661c0,14.73-11.984,26.713-26.713,26.713H182.539
	c-14.729,0-26.713-11.983-26.713-26.713V48.974c0-14.73,11.984-26.713,26.713-26.713h28.939c6.146,0,11.13-4.983,11.13-11.13
	S217.624,0,211.478,0h-28.939c-27.005,0-48.974,21.969-48.974,48.974v124.661c0,27.005,21.969,48.974,48.974,48.974h62.33v22.261
	H124.661c-19.64,0-35.617,15.978-35.617,35.617v6.99C76.089,282.882,66.783,270.511,66.783,256v-55.652h11.13
	c18.412,0,33.391-14.979,33.391-33.391s-14.979-33.391-33.391-33.391H33.391C14.979,133.565,0,148.545,0,166.957
	s14.979,33.391,33.391,33.391h11.13V256c0,26.93,19.229,49.449,44.678,54.56c1.916,25.471,23.237,45.614,49.189,45.614H244.87
	l0.001,66.783H144.696c-2.952,0-5.782,1.173-7.87,3.26l-22.263,22.264c-4.36-2.09-9.239-3.263-14.388-3.263
	c-18.412,0-33.391,14.979-33.391,33.391S81.762,512,100.174,512s33.391-14.979,33.391-33.391c0-5.148-1.173-10.027-3.263-14.387
	l19.005-19.004h95.565v1.914c-12.955,4.595-22.261,16.966-22.261,31.477c0,18.412,14.979,33.391,33.391,33.391
	s33.391-14.979,33.391-33.391c0-14.51-9.306-26.882-22.261-31.477v-1.914h95.561l19.004,19.004c-2.09,4.36-3.263,9.238-3.263,14.387
	c0,18.412,14.979,33.391,33.391,33.391s33.391-14.979,33.391-33.391s-14.979-33.391-33.391-33.391
	c-5.149,0-10.029,1.173-14.387,3.263l-22.264-22.264c-2.088-2.087-4.919-3.26-7.87-3.26H267.132l-0.001-66.783h106.482
	c25.952,0,47.273-20.143,49.189-45.614c25.449-5.111,44.678-27.63,44.678-54.56v-55.652h11.13c18.412,0,33.391-14.979,33.391-33.391
	S497.021,133.565,478.609,133.565z M22.261,166.957c0-6.137,4.993-11.13,11.13-11.13h44.522c6.137,0,11.13,4.993,11.13,11.13
	s-4.993,11.13-11.13,11.13H33.391C27.254,178.087,22.261,173.094,22.261,166.957z M100.174,489.739
	c-6.137,0-11.13-4.993-11.13-11.13s4.993-11.13,11.13-11.13s11.13,4.993,11.13,11.13S106.311,489.739,100.174,489.739z
	 M422.957,478.609c0,6.137-4.993,11.13-11.13,11.13s-11.13-4.993-11.13-11.13c0-3.061,1.243-5.837,3.25-7.851
	c0.004-0.004,0.011-0.009,0.016-0.014c0.004-0.006,0.009-0.011,0.014-0.016c2.015-2.007,4.791-3.249,7.851-3.249
	C417.963,467.478,422.957,472.471,422.957,478.609z M256.002,489.739c-6.137,0-11.13-4.993-11.13-11.13s4.993-11.13,11.13-11.13
	c6.137,0,11.13,4.993,11.13,11.13S262.14,489.739,256.002,489.739z M400.696,306.829c0,14.934-12.15,27.084-27.084,27.084H138.388
	c-14.934,0-27.084-12.15-27.084-27.084v-26.342c0-7.365,5.992-13.357,13.357-13.357h262.678c7.365,0,13.357,5.991,13.357,13.357
	V306.829z M478.609,178.087h-44.522c-6.137,0-11.13-4.993-11.13-11.13s4.993-11.13,11.13-11.13h44.522
	c6.137,0,11.13,4.993,11.13,11.13S484.746,178.087,478.609,178.087z"/>
<g>
</g>
<g>
</g>
<g>
</g>
<g>
</g>
<g>
</g>
<g>
</g>
<g>
</g>
<g>
</g>
<g>
</g>
<g>
</g>
<g>
</g>
<g>
</g>
<g>
</g>
<g>
</g>
<g>
</g>
</svg>
