<?xml version="1.0" encoding="iso-8859-1"?>
<!-- Generator: Adobe Illustrator 19.0.0, SVG Export Plug-In . SVG Version: 6.00 Build 0)  -->
<svg version="1.1" id="Layer_1" xmlns="http://www.w3.org/2000/svg" xmlns:xlink="http://www.w3.org/1999/xlink" x="0px" y="0px"
	 viewBox="0 0 496 496" style="enable-background:new 0 0 496 496;" xml:space="preserve">
<g>
	<rect x="160" y="112" style="fill:#F9BA48;" width="176" height="16"/>
	<rect x="160" y="144" style="fill:#F9BA48;" width="176" height="16"/>
</g>
<g>
	<path style="fill:#333333;" d="M376,242.224V188c0-11.032-8.968-20-20-20c-2.12,0-4.12,0.416-6.032,1.032l-20.144-148.28
		C328.192,8.92,317.968,0,306.032,0H189.968c-11.936,0-22.168,8.92-23.792,20.76L145.96,169.016c-1.888-0.6-3.872-1.016-5.96-1.016
		c-11.032,0-20,8.968-20,20v54.224c-4.76,2.776-8,7.88-8,13.776c0,22.056,17.944,40,40,40h64v32h8v72h-16v24h-32
		c-13.232,0-24,10.768-24,24s10.768,24,24,24s24-10.768,24-24c0-2.816-0.576-5.488-1.472-8H208h8h24v9.472
		c-9.288,3.312-16,12.112-16,22.528c0,13.232,10.768,24,24,24s24-10.768,24-24c0-10.416-6.712-19.216-16-22.528V440h16h16h9.472
		c-0.896,2.512-1.472,5.184-1.472,8c0,13.232,10.768,24,24,24s24-10.768,24-24s-10.768-24-24-24h-32v-24h-16v-72h8v-32h64
		c22.056,0,40-17.944,40-40C384,250.104,380.76,245,376,242.224z M184,448c0,4.416-3.584,8-8,8s-8-3.584-8-8s3.584-8,8-8
		S184,443.584,184,448z M248,480c-4.416,0-8-3.584-8-8s3.584-8,8-8c4.416,0,8,3.584,8,8S252.416,480,248,480z M328,448
		c0,4.416-3.584,8-8,8s-8-3.584-8-8s3.584-8,8-8S328,443.584,328,448z M356,184c2.2,0,4,1.8,4,4v52h-8v-52
		C352,185.8,353.8,184,356,184z M160,184.536L182.04,22.92c0.536-3.944,3.944-6.92,7.928-6.92h116.064
		c3.984,0,7.392,2.976,7.928,6.912L336,184.536V188v52H160v-52V184.536z M136,188c0-2.2,1.8-4,4-4s4,1.8,4,4v52h-8V188z M272,424
		h-48v-8h48V424z M256,400h-16v-72h16V400z M264,312h-32v-16h32V312z M344,280h-64h-64h-64c-13.232,0-24-10.768-24-24h16h16h176h16
		h16C368,269.232,357.232,280,344,280z"/>
	<rect x="280" y="32" style="fill:#333333;" width="16" height="16"/>
	<rect x="232" y="32" style="fill:#333333;" width="32" height="16"/>
</g>
<g>
</g>
<g>
</g>
<g>
</g>
<g>
</g>
<g>
</g>
<g>
</g>
<g>
</g>
<g>
</g>
<g>
</g>
<g>
</g>
<g>
</g>
<g>
</g>
<g>
</g>
<g>
</g>
<g>
</g>
</svg>
