<?xml version="1.0" encoding="iso-8859-1"?>
<!-- Generator: Adobe Illustrator 19.0.0, SVG Export Plug-In . SVG Version: 6.00 Build 0)  -->
<svg version="1.1" id="Layer_1" xmlns="http://www.w3.org/2000/svg" xmlns:xlink="http://www.w3.org/1999/xlink" x="0px" y="0px"
	 viewBox="0 0 512.001 512.001" style="enable-background:new 0 0 512.001 512.001;" xml:space="preserve">
<rect x="136.66" y="73.33" style="fill:#E6E9ED;" width="231.34" height="209.34"/>
<rect x="105.5" y="288" style="fill:#F5F7FA;" width="300" height="59"/>
<g>
	<rect x="134.5" y="6.5" style="fill:#656D78;" width="242" height="66.828"/>
	<path style="fill:#656D78;" d="M156.5,482c0,10.766-8.734,19.5-19.5,19.5s-19.5-8.734-19.5-19.5s8.734-19.5,19.5-19.5
		S156.5,471.234,156.5,482z"/>
	<circle style="fill:#656D78;" cx="256" cy="480.5" r="15.5"/>
	<circle style="fill:#656D78;" cx="372.75" cy="480.5" r="16.75"/>
</g>
<path d="M437.328,202.656H384v-192C384,4.766,379.219,0,373.328,0H138.664C132.773,0,128,4.766,128,10.656v192H74.664
	c-5.891,0-10.664,4.781-10.664,10.672S68.773,224,74.664,224H96v64v3.547V352c0,5.875,4.773,10.656,10.664,10.656h32H192
	c0,5.891,4.773,10.672,10.664,10.672s10.672-4.781,10.672-10.672h32v45.063c-3.789,0.234-7.336,0.609-10.383,1.109l-85.906,14.328
	C137.469,425.078,128,436.266,128,448v1.813c-12.43,4.406-21.336,16.25-21.336,30.188c0,17.672,14.328,32,32,32
	c17.68,0,32-14.328,32-32c0-13.938-8.906-25.781-21.328-30.188V448c0-1.313,1.922-3.594,3.211-3.813l85.914-14.313
	c1.953-0.328,4.289-0.594,6.875-0.781v20.719C232.906,454.219,224,466.063,224,480c0,17.672,14.328,32,32,32s32-14.328,32-32
	c0-13.938-8.906-25.781-21.328-30.188v-20.719c2.578,0.188,4.922,0.453,6.859,0.781l85.922,14.313
	c1.297,0.219,3.219,2.5,3.219,3.813v1.813c-12.438,4.406-21.344,16.25-21.344,30.188c0,17.672,14.328,32,32,32s32-14.328,32-32
	c0-13.938-8.906-25.781-21.328-30.188V448c0-11.734-9.469-22.922-21.047-24.844l-85.906-14.328c-3.047-0.5-6.594-0.875-10.375-1.109
	v-45.063h32c0,5.891,4.766,10.672,10.656,10.672S320,368.547,320,362.656h53.328h32c5.891,0,10.672-4.781,10.672-10.656v-59.953V288
	v-64h21.328c5.891,0,10.672-4.781,10.672-10.672S443.219,202.656,437.328,202.656z M138.664,490.656
	c-5.883,0-10.664-4.781-10.664-10.656c0-5.891,4.781-10.672,10.664-10.672s10.672,4.781,10.672,10.672
	C149.336,485.875,144.547,490.656,138.664,490.656z M373.328,490.656c-5.875,0-10.656-4.781-10.656-10.656
	c0-5.891,4.781-10.672,10.656-10.672c5.891,0,10.672,4.781,10.672,10.672C384,485.875,379.219,490.656,373.328,490.656z
	 M256,490.656c-5.883,0-10.664-4.781-10.664-10.656c0-5.891,4.781-10.672,10.664-10.672c5.875,0,10.672,4.781,10.672,10.672
	C266.672,485.875,261.875,490.656,256,490.656z M362.672,21.328V64H149.336V21.328H362.672z M149.336,85.328h213.336v192H149.336
	V224v-21.344V85.328z M128,224v53.328h-10.664V224H128z M394.672,341.328H117.336v-42.672c0,5.891,4.773,10.672,10.664,10.672
	c5.891,0,10.664-4.781,10.664-10.672H160c0,5.891,4.773,10.672,10.664,10.672s10.672-4.781,10.672-10.672h21.328
	c0,5.891,4.781,10.672,10.672,10.672S224,304.547,224,298.656h21.336c0,5.891,4.773,10.672,10.664,10.672
	c5.891,0,10.672-4.781,10.672-10.672H288c0,5.891,4.781,10.672,10.672,10.672s10.656-4.781,10.656-10.672h21.344
	c0,5.891,4.766,10.672,10.656,10.672S352,304.547,352,298.656h21.328c0,5.891,4.781,10.672,10.672,10.672
	s10.672-4.781,10.672-10.672V341.328z M394.672,277.328H384V224h10.672V277.328z"/>
<path d="M192,192c5.891,0,10.664-4.781,10.664-10.672s-4.773-10.672-10.664-10.672s-10.664,4.781-10.664,10.672S186.109,192,192,192
	z"/>
<path d="M234.664,192c5.891,0,10.672-4.781,10.672-10.672s-4.781-10.672-10.672-10.672S224,175.438,224,181.328
	S228.773,192,234.664,192z"/>
<path d="M277.328,192c5.891,0,10.672-4.781,10.672-10.672s-4.781-10.672-10.672-10.672s-10.656,4.781-10.656,10.672
	S271.438,192,277.328,192z"/>
<path d="M320,192c5.891,0,10.672-4.781,10.672-10.672s-4.781-10.672-10.672-10.672s-10.672,4.781-10.672,10.672S314.109,192,320,192
	z"/>
<path d="M213.336,149.328c5.891,0,10.664-4.781,10.664-10.672S219.227,128,213.336,128s-10.672,4.766-10.672,10.656
	S207.445,149.328,213.336,149.328z"/>
<path d="M256,149.328c5.891,0,10.672-4.781,10.672-10.672S261.891,128,256,128s-10.664,4.766-10.664,10.656
	S250.109,149.328,256,149.328z"/>
<path d="M298.672,149.328c5.891,0,10.656-4.781,10.656-10.672S304.563,128,298.672,128S288,132.766,288,138.656
	S292.781,149.328,298.672,149.328z"/>
<path d="M213.336,213.328c-5.891,0-10.672,4.766-10.672,10.672c0,5.875,4.781,10.656,10.672,10.656S224,229.875,224,224
	C224,218.094,219.227,213.328,213.336,213.328z"/>
<path d="M256,213.328c-5.891,0-10.664,4.766-10.664,10.672c0,5.875,4.773,10.656,10.664,10.656c5.891,0,10.672-4.781,10.672-10.656
	C266.672,218.094,261.891,213.328,256,213.328z"/>
<path d="M298.672,213.328c-5.891,0-10.672,4.766-10.672,10.672c0,5.875,4.781,10.656,10.672,10.656s10.656-4.781,10.656-10.656
	C309.328,218.094,304.563,213.328,298.672,213.328z"/>
<g>
</g>
<g>
</g>
<g>
</g>
<g>
</g>
<g>
</g>
<g>
</g>
<g>
</g>
<g>
</g>
<g>
</g>
<g>
</g>
<g>
</g>
<g>
</g>
<g>
</g>
<g>
</g>
<g>
</g>
</svg>
