<?xml version="1.0" encoding="iso-8859-1"?>
<!-- Generator: Adobe Illustrator 19.0.0, SVG Export Plug-In . SVG Version: 6.00 Build 0)  -->
<svg version="1.1" id="Layer_1" xmlns="http://www.w3.org/2000/svg" xmlns:xlink="http://www.w3.org/1999/xlink" x="0px" y="0px"
	 viewBox="0 0 512 512" style="enable-background:new 0 0 512 512;" xml:space="preserve">
<g>
	
		<rect x="244.257" y="300.311" transform="matrix(-1 -0.0058 0.0058 -1 509.7233 675.3212)" style="fill:#3D3D3B;" width="23.168" height="73.222"/>
	<path style="fill:#3D3D3B;" d="M406.242,179.159v89.024H105.759v-89.024H82.591v100.608c0,6.397,5.186,11.584,11.584,11.584
		h323.651c6.398,0,11.584-5.187,11.584-11.584V179.159H406.242z"/>
</g>
<g>
	<path style="fill:#7A7674;" d="M256.001,11.584c-51.287,0-92.863,41.576-92.863,92.863v42.983
		c0,51.287,26.081,69.944,92.863,69.944s92.863-18.657,92.863-69.944v-42.983C348.864,53.16,307.287,11.584,256.001,11.584z"/>
	<path style="fill:#7A7674;" d="M372.74,279.767c0,17.737-14.379,32.115-32.115,32.115h-169.25
		c-17.737,0-32.115-14.379-32.115-32.115c0-17.736,14.379-32.115,32.115-32.115h169.248
		C358.361,247.653,372.74,262.03,372.74,279.767z"/>
</g>
<g>
	<path style="fill:#181818;" d="M106.428,154.618H81.922c-7.592,0-13.746,6.154-13.746,13.746v22.377h51.999v-22.377
		C120.175,160.773,114.02,154.618,106.428,154.618z"/>
	<path style="fill:#181818;" d="M430.079,154.618h-24.507c-7.592,0-13.746,6.154-13.746,13.746v22.377h51.999v-22.377
		C443.826,160.773,437.671,154.618,430.079,154.618z"/>
	<rect x="238.023" y="361.933" style="fill:#181818;" width="35.956" height="61.869"/>
</g>
<path style="fill:#3D3D3B;" d="M366.601,412.228H145.4c-6.398,0-11.584,5.187-11.584,11.584v43.315
	c0,6.397,5.186,11.584,11.584,11.584c6.398,0,11.584-5.187,11.584-11.584v-31.731h87.433v31.731h23.167v-31.731h87.433v31.731
	c0,6.397,5.186,11.584,11.584,11.584c6.398,0,11.584-5.187,11.584-11.584v-43.315C378.184,417.416,372.997,412.228,366.601,412.228z
	"/>
<g>
	<path style="fill:#524E4D;" d="M305.48,116.031h-99.305c-6.398,0-11.584-5.187-11.584-11.584s5.186-11.584,11.584-11.584h99.305
		c6.398,0,11.584,5.187,11.584,11.584S311.878,116.031,305.48,116.031z"/>
	<path style="fill:#524E4D;" d="M305.48,172.493h-99.305c-6.398,0-11.584-5.187-11.584-11.584s5.186-11.584,11.584-11.584h99.305
		c6.398,0,11.584,5.187,11.584,11.584S311.878,172.493,305.48,172.493z"/>
</g>
<g>
	<circle style="fill:#181818;" cx="145.399" cy="477.979" r="22.436"/>
	<circle style="fill:#181818;" cx="366.602" cy="477.979" r="22.436"/>
	<circle style="fill:#181818;" cx="256.001" cy="477.979" r="22.436"/>
</g>
<g>
	<path style="fill:#11113F;" d="M177.607,210.923c16.516,12.303,41.427,18.032,78.394,18.032s61.878-5.729,78.394-18.032
		c17.531-13.058,26.052-33.827,26.052-63.494v-42.983C360.447,46.854,313.592,0,256.001,0S151.554,46.854,151.554,104.447v42.981
		C151.554,177.096,160.076,197.865,177.607,210.923z M174.721,104.447c0-44.817,36.462-81.279,81.279-81.279
		c44.817,0,81.279,36.462,81.279,81.279v42.981c0,22.447-5.158,36.3-16.725,44.915c-12.315,9.172-32.827,13.444-64.555,13.444
		s-52.24-4.272-64.555-13.444c-11.566-8.616-16.725-22.468-16.725-44.915V104.447z"/>
	<path style="fill:#11113F;" d="M378.184,445.993v-22.18c0-6.397-5.186-11.584-11.584-11.584h-81.036v-50.29
		c0-6.397-5.186-11.584-11.584-11.584h-6.619l0.155-26.889h73.107c24.095,0,43.698-19.603,43.698-43.7
		c0-24.095-19.603-43.698-43.698-43.698H171.376c-24.095,0-43.698,19.603-43.698,43.698c0,24.096,19.603,43.7,43.698,43.7h72.974
		l-0.155,26.889h-6.173c-6.398,0-11.584,5.187-11.584,11.584v50.29h-81.036c-6.398,0-11.584,5.187-11.584,11.584v22.18
		c-13.072,4.749-22.436,17.293-22.436,31.987c0,18.759,15.262,34.02,34.02,34.02s34.02-15.262,34.02-34.02
		c0-14.694-9.364-27.238-22.436-31.987v-10.597h81.036h6.395v10.597c-13.072,4.749-22.436,17.293-22.436,31.987
		c0,18.759,15.262,34.02,34.02,34.02c18.759,0,34.02-15.262,34.02-34.02c0-14.694-9.364-27.238-22.436-31.987v-10.597h6.397h81.036
		v10.597c-13.072,4.749-22.436,17.293-22.436,31.987c0,18.759,15.262,34.02,34.02,34.02s34.02-15.262,34.02-34.02
		C400.621,463.286,391.257,450.742,378.184,445.993z M150.845,279.767c0-11.32,9.21-20.531,20.531-20.531h169.248
		c11.321,0,20.531,9.21,20.531,20.531c0,11.321-9.21,20.532-20.531,20.532h-84.558h-0.068h-84.622
		C160.055,300.298,150.845,291.088,150.845,279.767z M145.4,488.833c-5.984,0-10.853-4.869-10.853-10.853
		s4.869-10.853,10.853-10.853s10.853,4.869,10.853,10.853S151.385,488.833,145.4,488.833z M256.001,488.833
		c-5.984,0-10.853-4.869-10.853-10.853s4.869-10.853,10.853-10.853c5.984,0,10.853,4.869,10.853,10.853
		S261.985,488.833,256.001,488.833z M249.604,373.523h6.04c0.023,0,0.045,0,0.068,0h6.685v38.706h-12.793V373.523z M366.601,488.833
		c-5.984,0-10.853-4.869-10.853-10.853s4.869-10.853,10.853-10.853s10.853,4.869,10.853,10.853S372.585,488.833,366.601,488.833z"/>
	<path style="fill:#11113F;" d="M118.567,279.767c0-6.397-5.186-11.584-11.584-11.584h-1.224v-65.857h14.416
		c6.398,0,11.584-5.187,11.584-11.584v-22.377c0-13.968-11.364-25.33-25.331-25.33H81.922c-13.968,0-25.33,11.364-25.33,25.33
		v22.377c0,6.397,5.186,11.584,11.584,11.584h14.416v77.441c0,6.397,5.186,11.584,11.584,11.584h12.808
		C113.381,291.351,118.567,286.164,118.567,279.767z M79.759,168.366c0-1.192,0.97-2.163,2.163-2.163h24.507
		c1.193,0,2.164,0.971,2.164,2.163v10.794H79.759V168.366z"/>
	<path style="fill:#11113F;" d="M430.079,143.035h-24.507c-13.968,0-25.331,11.364-25.331,25.33v22.377
		c0,6.397,5.186,11.584,11.584,11.584h14.416v65.857h-1.224c-6.398,0-11.584,5.187-11.584,11.584
		c0,6.397,5.186,11.584,11.584,11.584h12.808c6.398,0,11.584-5.187,11.584-11.584v-77.441h14.416
		c6.398,0,11.584-5.187,11.584-11.584v-22.377C455.41,154.398,444.047,143.035,430.079,143.035z M432.242,179.159h-28.833v-10.794
		c0-1.192,0.971-2.163,2.164-2.163h24.507c1.193,0,2.163,0.971,2.163,2.163L432.242,179.159L432.242,179.159z"/>
	<path style="fill:#11113F;" d="M206.176,116.031h99.305c6.398,0,11.584-5.187,11.584-11.584s-5.186-11.584-11.584-11.584h-99.305
		c-6.398,0-11.584,5.187-11.584,11.584S199.778,116.031,206.176,116.031z"/>
	<path style="fill:#11113F;" d="M206.176,172.493h99.305c6.398,0,11.584-5.187,11.584-11.584s-5.186-11.584-11.584-11.584h-99.305
		c-6.398,0-11.584,5.187-11.584,11.584S199.778,172.493,206.176,172.493z"/>
</g>
<g>
</g>
<g>
</g>
<g>
</g>
<g>
</g>
<g>
</g>
<g>
</g>
<g>
</g>
<g>
</g>
<g>
</g>
<g>
</g>
<g>
</g>
<g>
</g>
<g>
</g>
<g>
</g>
<g>
</g>
</svg>
