<?xml version="1.0" encoding="iso-8859-1"?>
<!-- Generator: Adobe Illustrator 17.1.0, SVG Export Plug-In . SVG Version: 6.00 Build 0)  -->
<!DOCTYPE svg PUBLIC "-//W3C//DTD SVG 1.1//EN" "http://www.w3.org/Graphics/SVG/1.1/DTD/svg11.dtd">
<svg version="1.1" id="Capa_1" xmlns="http://www.w3.org/2000/svg" xmlns:xlink="http://www.w3.org/1999/xlink" x="0px" y="0px"
	 viewBox="0 0 297.167 297.167" style="enable-background:new 0 0 297.167 297.167;" xml:space="preserve">
<g>
	<path d="M240,256.583H8c-4.418,0-8,3.582-8,8s3.582,8,8,8h232c4.418,0,8-3.582,8-8S244.418,256.583,240,256.583z"/>
	<path d="M256.834,138.583h-10.733c1.635-7.898,2.483-15.942,2.483-24c0-4.418-3.582-8-8-8H8.833c-4.418,0-8,3.582-8,8
		c0,31.859,13.212,63.5,36.249,86.812c23.62,23.901,54.74,37.064,87.627,37.064c23.242,0,45.598-6.583,65.051-18.876h66.908
		c22.331,0,40.499-18.168,40.499-40.5S279.073,138.583,256.834,138.583z M232.275,122.584
		c-4.251,54.91-51.779,99.876-107.566,99.876S21.393,177.494,17.142,122.584H232.275z M256.668,203.583H210.12
		c0.745-0.719,1.483-1.448,2.215-2.188c13.215-13.372,23.189-29.488,29.299-46.812h15.2c13.417,0,24.333,10.99,24.333,24.5
		C281.167,192.593,270.177,203.583,256.668,203.583z"/>
	<path style="fill:#A56905;" d="M124.709,222.46c55.787,0,103.315-44.966,107.566-99.876H17.142
		C21.393,177.494,68.922,222.46,124.709,222.46z"/>
	<path d="M82.708,83.584c0,4.418,3.582,8,8,8s8-3.582,8-8c0-2.462,0.414-3.341,1.238-5.094c1.166-2.477,2.762-5.868,2.762-11.907
		c0-6.039-1.596-9.431-2.762-11.907c-0.824-1.753-1.238-2.632-1.238-5.094c0-2.461,0.414-3.341,1.238-5.093
		c1.166-2.476,2.762-5.867,2.762-11.905c0-4.418-3.582-8-8-8s-8,3.582-8,8c0,2.461-0.414,3.341-1.238,5.093
		c-1.166,2.476-2.762,5.867-2.762,11.905c0,6.038,1.596,9.43,2.762,11.906c0.824,1.753,1.238,2.632,1.238,5.095
		c0,2.462-0.414,3.342-1.238,5.095C84.304,74.154,82.708,77.545,82.708,83.584z"/>
	<path d="M114.708,83.584c0,4.418,3.582,8,8,8s8-3.582,8-8c0-2.462,0.414-3.341,1.238-5.094c1.166-2.477,2.762-5.868,2.762-11.907
		c0-6.039-1.596-9.431-2.762-11.907c-0.824-1.753-1.238-2.632-1.238-5.094c0-2.461,0.414-3.341,1.238-5.093
		c1.166-2.476,2.762-5.867,2.762-11.905c0-4.418-3.582-8-8-8c-4.418,0-8,3.582-8,8c0,2.461-0.414,3.341-1.238,5.093
		c-1.166,2.476-2.762,5.867-2.762,11.905c0,6.038,1.596,9.43,2.762,11.906c0.824,1.753,1.238,2.632,1.238,5.095
		c0,2.462-0.414,3.342-1.238,5.095C116.304,74.154,114.708,77.545,114.708,83.584z"/>
	<path d="M146.708,83.584c0,4.418,3.582,8,8,8c4.418,0,8-3.582,8-8c0-2.462,0.414-3.341,1.238-5.094
		c1.166-2.477,2.762-5.868,2.762-11.907c0-6.039-1.596-9.431-2.762-11.907c-0.824-1.753-1.238-2.632-1.238-5.094
		c0-2.461,0.414-3.341,1.238-5.093c1.166-2.476,2.762-5.867,2.762-11.905c0-4.418-3.582-8-8-8c-4.418,0-8,3.582-8,8
		c0,2.461-0.414,3.341-1.238,5.093c-1.166,2.476-2.762,5.867-2.762,11.905c0,6.038,1.596,9.43,2.762,11.906
		c0.824,1.753,1.238,2.632,1.238,5.095c0,2.462-0.414,3.342-1.238,5.095C148.304,74.154,146.708,77.545,146.708,83.584z"/>
</g>
<g>
</g>
<g>
</g>
<g>
</g>
<g>
</g>
<g>
</g>
<g>
</g>
<g>
</g>
<g>
</g>
<g>
</g>
<g>
</g>
<g>
</g>
<g>
</g>
<g>
</g>
<g>
</g>
<g>
</g>
</svg>
