<?xml version="1.0" encoding="iso-8859-1"?>
<!-- Generator: Adobe Illustrator 18.0.0, SVG Export Plug-In . SVG Version: 6.00 Build 0)  -->
<!DOCTYPE svg PUBLIC "-//W3C//DTD SVG 1.1//EN" "http://www.w3.org/Graphics/SVG/1.1/DTD/svg11.dtd">
<svg version="1.1" id="Capa_1" xmlns="http://www.w3.org/2000/svg" xmlns:xlink="http://www.w3.org/1999/xlink" x="0px" y="0px"
	 viewBox="0 0 297.5 297.5" style="enable-background:new 0 0 297.5 297.5;" xml:space="preserve">
<g>
	<g id="XMLID_33_">
		<g>
			<path style="fill:#A97819;" d="M20.41,157.68h191.45c-4.94,48.46-45.98,86.391-95.73,86.391
				C66.39,244.07,25.34,206.14,20.41,157.68z"/>
			<path d="M263.32,138.02c18.71,0,33.93,15.221,33.93,33.931s-15.22,33.93-33.93,33.93c-18.58,0-33.71-15.01-33.92-33.54
				c-10.641,49.23-52.65,86.93-103.98,91.021h111.23c5.43,0,9.829,4.399,9.829,9.819c0,5.431-4.4,9.83-9.829,9.83H19.72
				c-5.43,0-9.83-4.399-9.83-9.83c0-5.42,4.4-9.819,9.83-9.819h87.13C47.28,258.61,0.25,208.62,0.25,147.85
				c0-5.43,4.4-9.83,9.83-9.83H263.32z M277.6,171.95c0-7.87-6.41-14.271-14.279-14.271h-14.27v14.271c0,7.87,6.4,14.27,14.27,14.27
				C271.189,186.22,277.6,179.82,277.6,171.95z M211.86,157.68H20.41c4.93,48.46,45.979,86.391,95.72,86.391
				C165.88,244.07,206.92,206.14,211.86,157.68z"/>
			<path d="M189.05,52.5v49.98c0,5.43-4.399,9.829-9.83,9.829c-5.43,0-9.83-4.399-9.83-9.829V52.5c0-5.43,4.4-9.83,9.83-9.83
				C184.65,42.67,189.05,47.07,189.05,52.5z"/>
			<path d="M132.689,24.32V74.3c0,5.431-4.399,9.83-9.829,9.83c-5.431,0-9.83-4.399-9.83-9.83V24.32c0-5.431,4.399-9.83,9.83-9.83
				C128.29,14.49,132.689,18.89,132.689,24.32z"/>
			<path d="M76.33,52.5v49.98c0,5.43-4.4,9.829-9.83,9.829c-5.43,0-9.83-4.399-9.83-9.829V52.5c0-5.43,4.4-9.83,9.83-9.83
				C71.93,42.67,76.33,47.07,76.33,52.5z"/>
		</g>
		<g>
		</g>
	</g>
</g>
<g>
</g>
<g>
</g>
<g>
</g>
<g>
</g>
<g>
</g>
<g>
</g>
<g>
</g>
<g>
</g>
<g>
</g>
<g>
</g>
<g>
</g>
<g>
</g>
<g>
</g>
<g>
</g>
<g>
</g>
</svg>
