<?xml version="1.0" encoding="iso-8859-1"?>
<!-- Generator: Adobe Illustrator 19.0.0, SVG Export Plug-In . SVG Version: 6.00 Build 0)  -->
<svg version="1.1" id="Capa_1" xmlns="http://www.w3.org/2000/svg" xmlns:xlink="http://www.w3.org/1999/xlink" x="0px" y="0px"
	 viewBox="0 0 512.001 512.001" style="enable-background:new 0 0 512.001 512.001;" xml:space="preserve">
<path style="fill:#A24223;" d="M486.31,452.563c0,28.68-34.564,51.934-77.183,51.934c-20.603,0-39.324-5.426-53.171-14.272
	c-14.792-9.47-24.023-22.838-24.023-37.661c0-25.416,27.152-46.57,63.005-51.05c4.595-0.572,9.345-0.873,14.189-0.873
	C451.746,400.64,486.31,423.883,486.31,452.563z"/>
<g>
	<path style="fill:#8B381E;" d="M394.241,427.064c-3.96,20.26-15.364,40.634-32.11,57.381c-2.006,2.006-4.064,3.929-6.175,5.78
		c-14.792-9.47-24.023-22.838-24.023-37.661c0-25.416,27.152-46.57,63.005-51.05C396.195,409.517,395.987,418.145,394.241,427.064z"
		/>
	<path style="fill:#8B381E;" d="M409.123,504.5c-42.63,0-77.183-23.254-77.183-51.934c0-3.077,0.395-6.081,1.164-9.002
		c6.341,24.387,37.963,42.921,76.019,42.921s69.678-18.534,76.019-42.921c0.769,2.921,1.164,5.925,1.164,9.002
		C486.306,481.246,451.753,504.5,409.123,504.5z"/>
</g>
<path style="fill:#D8AD8F;" d="M281.673,491.857H118.959c-15.27,0-20.395-20.437-6.934-27.63c3.347-1.788,6.767-3.482,10.239-5.083
	c10.135-4.636,20.78-8.409,31.798-11.206c14.792-3.753,30.291-5.749,46.248-5.749c11.757,0,23.264,1.081,34.418,3.15
	c15.27,2.838,29.896,7.526,43.638,13.804c3.472,1.601,6.892,3.295,10.239,5.083C302.068,471.42,296.943,491.857,281.673,491.857z"/>
<g>
	<path style="fill:#C19476;" d="M281.673,491.857h-40.905c-7.287-12.557-9.574-28.514-6.247-45.52
		c0.062-0.333,0.135-0.665,0.208-0.998c15.27,2.838,29.896,7.526,43.638,13.804c3.472,1.601,6.892,3.295,10.239,5.083
		C302.068,471.42,296.943,491.857,281.673,491.857z"/>
	<path style="fill:#C19476;" d="M278.369,459.145c-24.087,9.881-50.449,15.337-78.054,15.337s-53.967-5.456-78.054-15.337
		c10.142-4.636,20.781-8.414,31.806-11.211c14.79-3.754,30.289-5.742,46.248-5.742C228.156,442.192,254.593,448.269,278.369,459.145
		z"/>
</g>
<path style="fill:#D8AD8F;" d="M423.962,189.026c-5.071,0-10.043,0.497-14.84,1.454c-35.236,6.911-61.884,38.033-61.884,75.27
	c0,32.862,20.756,60.952,49.853,71.864c8.365,3.144,17.425,4.86,26.871,4.86c42.296,0,76.724-34.416,76.724-76.724
	S466.258,189.026,423.962,189.026z M423.962,305.063c-6.264,0-12.193-1.479-17.45-4.089c-12.951-6.438-21.863-19.812-21.863-35.224
	c0-16.431,10.129-30.526,24.473-36.392c4.586-1.877,9.595-2.908,14.84-2.908c21.676,0,39.301,17.624,39.301,39.301
	C463.263,287.426,445.639,305.063,423.962,305.063z"/>
<path style="fill:#C19476;" d="M384.65,265.75c0,15.412,8.911,28.785,21.863,35.224c-2.026,12.628-5.208,24.883-9.421,36.641
	c-29.096-10.913-49.853-39.002-49.853-71.864c0-37.237,26.648-68.359,61.884-75.27v38.878
	C394.779,235.224,384.65,249.319,384.65,265.75z"/>
<path style="fill:#F9E8D4;" d="M387.994,164.454v103.712c0,33.43-8.742,64.824-24.075,92.017
	c-26.986,47.89-74.387,82.734-130.406,92.724c-10.78,1.923-21.871,2.931-33.202,2.931c-103.649,0-187.673-84.023-187.673-187.672
	V164.454c0-9.917,8.046-17.942,17.952-17.942h339.451C379.948,146.511,387.994,154.537,387.994,164.454z"/>
<g>
	<path style="fill:#D8AD8F;" d="M363.918,360.182c-26.986,47.89-74.387,82.734-130.406,92.724c0.239-2.162,0.582-4.355,1.008-6.57
		c3.961-20.26,15.374-40.634,32.121-57.381c21.06-21.06,48.192-33.638,72.589-33.638
		C348.222,355.317,356.538,356.97,363.918,360.182z"/>
	<path style="fill:#D8AD8F;" d="M387.994,164.453v103.712c0,103.649-84.023,187.673-187.683,187.673
		c-24.252,0-47.422-4.595-68.691-12.963c15.915,4.387,32.672,6.726,49.98,6.726c103.66,0,187.683-84.023,187.683-187.673V158.216
		c0-4.48-1.632-8.566-4.345-11.705h5.104C379.948,146.512,387.994,154.537,387.994,164.453z"/>
</g>
<rect x="12.638" y="204.99" style="fill:#FB4239;" width="375.36" height="60.759"/>
<path style="fill:#E21717;" d="M387.994,204.994v60.759h-18.753c0.031-1.268,0.042-2.547,0.042-3.825v-56.934L387.994,204.994
	L387.994,204.994z"/>
<ellipse transform="matrix(0.7071 -0.7071 0.7071 0.7071 -216.7064 350.2024)" style="fill:#A24223;" cx="314.379" cy="436.689" rx="77.189" ry="51.931"/>
<path style="fill:#8B381E;" d="M351.106,473.422c-30.144,30.144-71.02,38.134-91.3,17.854c-2.176-2.176-4.021-4.579-5.542-7.189
	c21.728,12.76,57.194,3.506,84.103-23.404c26.91-26.91,36.164-62.376,23.404-84.103c2.61,1.521,5.013,3.366,7.189,5.542
	C389.24,402.402,381.25,443.278,351.106,473.422z"/>
<path d="M423.962,349.98c40.54,0,75.352-28.925,82.773-68.777c0.759-4.072-1.928-7.988-6-8.746c-4.065-0.761-7.987,1.927-8.746,6
	c-6.1,32.752-34.709,56.523-68.027,56.523c-13.04,0-25.707-3.656-36.703-10.563c2.334-7.77,4.186-15.689,5.533-23.723
	c8.393,7.501,19.386,11.866,31.17,11.866c25.812,0,46.811-20.999,46.811-46.81c0-25.811-20.999-46.81-46.811-46.81
	c-10.503,0-20.453,3.529-28.47,9.677v-23.601c0-0.007,0.001-0.013,0.001-0.013c0-0.013-0.001-0.019-0.001-0.019v-2.316
	c8.9-4.024,18.654-6.138,28.47-6.138c32.948,0,61.502,23.452,67.893,55.765c0.706,3.572,3.841,6.047,7.35,6.046
	c0.482,0,0.972-0.046,1.463-0.144c4.063-0.804,6.706-4.749,5.902-8.813c-7.776-39.317-42.518-67.854-82.607-67.854
	c-9.71,0-19.371,1.707-28.47,4.974V164.45c0-14.033-11.417-25.45-25.45-25.45h-36.55c-4.143,0-7.5,3.357-7.5,7.5s3.357,7.5,7.5,7.5
	h36.55c5.763,0,10.45,4.688,10.45,10.45v33.047H20.138v-33.046c0-5.762,4.688-10.449,10.45-10.449h273.91c4.143,0,7.5-3.357,7.5-7.5
	s-3.357-7.5-7.5-7.5H30.588c-14.033,0-25.45,11.416-25.45,25.449v103.711c0,43.664,14.106,84.956,40.794,119.411
	c1.478,1.908,3.694,2.908,5.935,2.907c1.604,0,3.221-0.513,4.587-1.57c3.274-2.537,3.873-7.248,1.336-10.522
	c-23.594-30.46-36.525-66.714-37.575-105.138h360.198c-0.907,32.688-10.543,64.151-28.053,91.607
	c-8.097-1.897-17.146-1.963-26.791-0.075c-18.692,3.657-37.59,14.273-53.211,29.895c-14.285,14.285-24.367,31.311-28.786,48.414
	c-14.085,3.472-28.612,5.249-43.26,5.249c-46.351,0-90.384-17.565-123.987-49.459c-3.004-2.853-7.75-2.729-10.603,0.276
	c-2.852,3.004-2.728,7.751,0.277,10.603c17.89,16.98,38.512,30.202,60.817,39.268c-6.249,2.543-12.374,5.407-18.325,8.587
	c-9.122,4.869-13.564,14.884-11.053,24.922c2.516,10.057,11.166,16.813,21.524,16.813h138.597
	c8.466,6.978,19.499,10.638,31.978,10.638c3.029,0,6.143-0.215,9.324-0.649c14.894-2.036,30.449-8.809,44.409-19.238
	c15.935,13.81,39.974,21.9,65.852,21.9c22.093,0,42.964-5.855,58.768-16.487c16.625-11.184,25.813-26.329,25.913-42.672
	c0.002-0.069,0.007-0.138,0.007-0.208c0-0.021,0.002-0.042,0.002-0.063c0-16.446-9.206-31.696-25.923-42.942
	c-15.804-10.632-36.675-16.487-58.768-16.487c-8.142,0-16.116,0.789-23.801,2.348c-2.214-7.217-5.961-13.576-11.056-18.672
	c-2.376-2.375-4.999-4.427-7.821-6.181c6.264-10.128,11.556-20.74,15.831-31.724C394.948,346.158,409.261,349.98,423.962,349.98z
	 M282.966,405.283c13.533-13.534,29.687-22.689,45.483-25.78c8.34-1.632,15.967-1.432,22.467,0.499
	c-3.62,1.53-7.565,3.46-11.557,5.875c-19.289,11.669-30.508,29.008-32.443,50.142c-1.419,15.491-9.806,28.187-24.927,37.732
	c-7.603,4.8-15.141,7.616-19.628,9.034c-5.855-7.946-7.697-19.133-5.176-32.016C260.275,434.97,269.431,418.817,282.966,405.283z
	 M111.989,478.895c-0.318-1.272-1.001-5.611,3.567-8.05c10.636-5.683,21.863-10.295,33.37-13.709c0.337-0.1,0.657-0.229,0.969-0.371
	c16.274,4.334,33.198,6.574,50.417,6.574c13.778,0,27.462-1.46,40.824-4.305c-0.377,9.344,1.241,17.914,4.757,25.314H118.962
	C113.758,484.349,112.309,480.175,111.989,478.895z M277.232,493.237c16.922-7.384,41.667-23.588,44.622-55.853
	c2.992-32.675,33.261-43.89,44.404-46.928c3.135,4.176,5.157,9.24,5.988,15.139c0,0,0.001,0.006,0.002,0.009
	c2.711,19.208-7.67,43.744-26.45,62.514c-2.189,2.19-4.504,4.312-6.878,6.309l-0.001,0.001
	C318.165,491.863,294.161,498.667,277.232,493.237z M459.518,483.067C446.162,492.052,428.265,497,409.122,497
	c-21.033,0-41.053-6.298-54.253-16.767c0.517-0.5,1.028-1.003,1.534-1.509c2.297-2.296,4.476-4.663,6.545-7.084
	c3.792,0.567,7.516,0.861,11.154,0.861c14.984,0,28.547-4.788,39.817-14.165c25.243-21.002,54.602-7.498,64.6-1.78
	C477.105,466.393,470.488,475.687,459.518,483.067z M409.122,408.14c19.143,0,37.04,4.948,50.396,13.933
	c7.05,4.743,12.301,10.277,15.532,16.236c-3.641-1.478-7.795-2.902-12.325-4.016c-21.893-5.389-42.087-1.062-58.399,12.512
	c-8.788,7.313-19.182,10.889-31.008,10.701c9.588-15.399,14.722-31.983,14.34-47.185C394.559,408.873,401.753,408.14,409.122,408.14
	z M423.962,233.94c17.54,0,31.811,14.27,31.811,31.81s-14.271,31.81-31.811,31.81c-12.418,0-23.536-7.143-28.78-18.312
	c0.206-3.681,0.31-7.378,0.31-11.087v-2.391c0-0.007,0.001-0.013,0.001-0.019c0-0.006-0.001-0.013-0.001-0.019v-14.106
	C400.857,240.842,411.866,233.94,423.962,233.94z M380.492,212.497v37.278c0,0.013,0,0.026,0,0.039v8.436H20.138v-45.753
	L380.492,212.497L380.492,212.497z"/>
<path d="M189.735,88.367c-12.181,12.181-12.181,32.002,0,44.183c1.464,1.465,3.384,2.197,5.303,2.197
	c1.919,0,3.839-0.732,5.303-2.196c2.929-2.929,2.929-7.678,0-10.606c-6.333-6.333-6.333-16.639,0-22.971l9.508-9.509
	c12.181-12.181,12.181-32.002,0-44.184l-9.508-9.507c-6.333-6.334-6.333-16.638,0-22.972c2.929-2.929,2.929-7.678,0-10.606
	s-7.678-2.929-10.606,0.001c-12.181,12.181-12.181,32.002,0,44.184l9.508,9.507c6.333,6.334,6.333,16.639,0,22.971L189.735,88.367z"
	/>
<path d="M238.887,134.747c1.919,0,3.839-0.732,5.303-2.196c2.929-2.929,2.929-7.678,0-10.606c-6.333-6.334-6.333-16.638,0-22.971
	l9.508-9.509c12.181-12.181,12.181-32.002,0-44.183c-2.929-2.93-7.678-2.929-10.606-0.001c-2.929,2.929-2.929,7.678,0,10.606
	c6.333,6.334,6.333,16.638,0,22.971l-9.508,9.509c-12.181,12.181-12.181,32.002,0,44.183
	C235.048,134.014,236.967,134.747,238.887,134.747z"/>
<path d="M152.236,134.747c1.919,0,3.839-0.732,5.303-2.196c2.929-2.929,2.929-7.678,0-10.606c-6.333-6.334-6.333-16.638,0-22.971
	l9.508-9.509c12.181-12.181,12.181-32.002,0-44.183c-2.929-2.929-7.678-2.93-10.606-0.001c-2.929,2.929-2.929,7.678,0,10.606
	c6.333,6.334,6.333,16.638,0,22.971l-9.508,9.509c-12.181,12.181-12.181,32.002,0,44.183
	C148.397,134.014,150.317,134.747,152.236,134.747z"/>
<g>
</g>
<g>
</g>
<g>
</g>
<g>
</g>
<g>
</g>
<g>
</g>
<g>
</g>
<g>
</g>
<g>
</g>
<g>
</g>
<g>
</g>
<g>
</g>
<g>
</g>
<g>
</g>
<g>
</g>
</svg>
