<?xml version="1.0" encoding="iso-8859-1"?>
<!-- Generator: Adobe Illustrator 19.0.0, SVG Export Plug-In . SVG Version: 6.00 Build 0)  -->
<svg version="1.1" id="Layer_1" xmlns="http://www.w3.org/2000/svg" xmlns:xlink="http://www.w3.org/1999/xlink" x="0px" y="0px"
	 viewBox="0 0 390.206 390.206" style="enable-background:new 0 0 390.206 390.206;" xml:space="preserve">
<path style="fill:#56ACE0;" d="M291.831,345.147v4.331l-69.883-10.861c-4.848-0.517-9.762,2.198-11.895,6.529
	c-8.145,19.523-13.576,22.238-14.093,22.756c-0.517,0-6.529-3.232-14.61-22.756c-1.616-4.331-5.43-7.046-10.279-7.046h-1.616
	l-69.947,10.861v-3.814l62.901-33.616c4.331-2.198,6.529-7.046,5.43-11.96c-9.762-44.994-16.226-104.081-16.226-153.923
	c0-80.743,15.709-125.22,43.895-125.22s39.564,44.412,43.895,125.22c2.715,50.424-14.093,154.44-16.226,153.923
	c0,0-2.198,9.244,7.046,12.477L291.831,345.147z"/>
<g>
	<path style="fill:#FFC10D;" d="M260.413,116.428c0.517,9.762,1.099,19.523,1.099,30.319c0,12.477-0.517,25.988-1.099,39.046
		l108.929,17.907v-23.855L260.413,116.428z"/>
	<path style="fill:#FFC10D;" d="M22.514,179.846v23.855l108.929-17.907c-0.517-13.576-1.099-26.57-1.099-39.046
		c0-10.861,0.517-20.622,1.099-30.319L22.514,179.846z"/>
</g>
<g>
	<path style="fill:#194F82;" d="M385.633,164.137l-44.477-25.988v-23.273c0-5.947-4.848-10.861-10.861-10.861
		c-5.947,0-10.861,4.848-10.861,10.861v10.861l-61.22-35.749C250.652,30.384,230.029,0,195.896,0s-54.756,30.319-62.319,89.988
		l-61.802,35.749v-10.861c0-5.947-4.848-10.861-10.861-10.861c-6.012,0-10.861,4.848-10.861,10.861v23.273L5.642,164.137
		c-3.232,2.198-5.43,5.43-5.43,9.244v42.796c0,7.046,6.529,11.895,12.477,10.861l119.79-20.04
		c2.715,30.901,6.529,62.319,12.477,89.988L83.153,330.02c-3.814,1.616-5.947,5.43-5.947,9.762v22.756
		c0,6.529,5.43,11.895,12.477,10.861l74.279-11.378c9.244,18.941,18.941,28.186,30.901,28.186s22.238-9.244,30.901-28.186
		l74.279,11.378c6.529,1.099,12.477-4.331,12.477-10.861v-22.756c0-3.814-2.198-7.564-5.947-9.762l-61.802-33.034
		c5.43-27.669,9.762-58.505,12.477-89.988l119.79,20.04c5.947,1.099,12.477-3.814,12.477-10.861v-42.796
		C390.999,170.085,388.866,166.335,385.633,164.137z M131.444,185.794L22.514,203.701v-23.855l108.929-63.418
		c-0.517,9.762-1.099,19.523-1.099,30.319C130.345,159.289,130.862,172.8,131.444,185.794z M291.831,345.147v4.331l-69.883-10.861
		c-4.848-0.517-9.762,2.198-11.895,6.529c-8.145,19.523-13.576,22.238-14.093,22.756c-0.517,0-6.529-3.232-14.61-22.756
		c-1.616-4.331-5.43-7.046-10.279-7.046c-0.517,0-1.099,0-1.616,0l-69.883,10.861v-3.814l62.836-33.616
		c4.331-2.198,6.529-7.046,5.43-11.895c-9.762-44.994-16.291-104.081-16.291-153.923c0-80.743,15.709-125.22,43.895-125.22
		s39.564,44.412,43.895,125.22c2.715,50.424-14.093,154.44-16.291,153.923c0,0-2.198,9.244,7.046,12.477L291.831,345.147z
		 M369.343,203.701l-108.929-17.907c0.517-13.576,1.099-26.57,1.099-39.046c0-10.861-0.517-20.622-1.099-30.319l108.929,63.935
		V203.701z"/>
	<path style="fill:#194F82;" d="M195.12,245.98c-5.947,0-10.861,4.848-10.861,10.861v59.604c0,5.947,4.848,10.861,10.861,10.861
		c5.947,0,10.861-4.849,10.861-10.861V256.84C205.981,250.893,201.068,245.98,195.12,245.98z"/>
	<path style="fill:#194F82;" d="M171.524,71.499c-4.331,4.331-4.331,10.861,0,15.192c4.331,4.331,10.861,4.331,15.192,0
		c4.331-4.331,11.895-4.331,16.808,0c4.331,4.331,11.378,3.814,15.192,0c4.331-4.331,4.331-10.861,0-15.192
		C206.24,58.44,184.518,58.44,171.524,71.499z"/>
</g>
<g>
</g>
<g>
</g>
<g>
</g>
<g>
</g>
<g>
</g>
<g>
</g>
<g>
</g>
<g>
</g>
<g>
</g>
<g>
</g>
<g>
</g>
<g>
</g>
<g>
</g>
<g>
</g>
<g>
</g>
</svg>
