<?xml version="1.0" encoding="iso-8859-1"?>
<!-- Generator: Adobe Illustrator 19.0.0, SVG Export Plug-In . SVG Version: 6.00 Build 0)  -->
<svg version="1.1" id="Capa_1" xmlns="http://www.w3.org/2000/svg" xmlns:xlink="http://www.w3.org/1999/xlink" x="0px" y="0px"
	 viewBox="0 0 512 512" style="enable-background:new 0 0 512 512;" xml:space="preserve">
<g>
	<polyline style="fill:#E3E8EC;" points="147.171,190.912 147.171,167.91 103.681,167.91 103.681,229.28 	"/>
	<polyline style="fill:#E3E8EC;" points="408.319,229.28 408.319,167.91 364.828,167.91 364.828,190.912 	"/>
</g>
<path style="fill:#008AC1;" d="M292.868,398.285l54.049,54.049c6.25,6.25,0.71,16.904-8.026,15.341l-71.449-13.068h-22.885
	l-71.449,13.068c-8.736,1.563-14.276-9.091-8.026-15.341l54.049-54.049"/>
<path style="fill:#027FA5;" d="M497.166,307.599c2.009,1.808,3.565,3.766,4.721,5.826c8.788,15.72-7.031,36.862-26.266,29.078
	l-178.786-72.218h-81.659L36.39,342.502c-19.234,7.785-35.104-13.408-26.266-29.077c1.055-2.059,2.661-3.968,4.671-5.775
	l200.43-176.726h81.558L497.166,307.599z"/>
<path style="fill:#008AC1;" d="M497.166,307.599c2.009,1.808,3.565,3.766,4.721,5.826c-4.62,8.638-14.815,14.313-26.266,9.693
	L296.786,250.85l-81.609-0.05L36.34,323.066c-11.4,4.671-21.645-1.055-26.215-9.642c1.055-2.059,2.661-3.968,4.671-5.775
	l200.43-176.726h81.558L497.166,307.599z"/>
<path style="fill:#E3E8EC;" d="M263.024,462.56l15.909-28.48c11.719-20.881,17.897-44.461,17.897-68.395V83.509
	c0-25.635-6.95-45.181-15.115-59.297c-11.485-19.855-39.948-19.847-51.413,0.019c-8.146,14.115-15.077,33.653-15.077,59.278v282.175
	c0,23.934,6.107,47.514,17.827,68.395l15.909,28.48v0.071"/>
<g>
	<path style="fill:#D5D8DB;" d="M245.525,434.079l7.27,28.483v0.05l-3.837,0.02v-0.071l-15.902-28.483
		c-11.722-20.88-17.831-44.456-17.831-68.395V83.512c0-25.625,6.926-45.162,15.074-59.278c5.735-9.935,15.731-14.913,25.716-14.913
		c-4.564,0.01-9.117,4.988-11.742,14.913c-3.726,14.115-6.896,33.652-6.896,59.278v282.172
		C237.377,389.624,240.174,413.199,245.525,434.079z"/>
	<polygon style="fill:#D5D8DB;" points="256.026,462.592 252.795,462.633 252.795,462.613 	"/>
</g>
<path d="M502.201,301.94l-86.309-76.105V167.91c0-4.182-3.39-7.573-7.573-7.573h-43.49c-4.182,0-7.573,3.39-7.573,7.573v6.222
	l-52.853-46.604V83.509c0-23.637-5.554-45.08-16.509-63.734c-6.708-11.421-18.623-18.238-31.881-18.238c-0.006,0-0.014,0-0.019,0
	c-13.262,0.006-25.178,6.834-31.875,18.264c-10.926,18.648-16.467,40.082-16.467,63.708v43.969l-52.908,46.653v-6.221
	c0-4.182-3.39-7.573-7.573-7.573h-43.491c-4.182,0-7.573,3.39-7.573,7.573v57.925L9.8,301.94
	c-12.409,10.942-11.641,26.073-5.377,36.214c4.683,7.581,13.232,13.663,23.658,13.662c3.522,0,7.259-0.695,11.132-2.259
	l37.04-14.965c3.877-1.567,5.751-5.98,4.184-9.857l0,0c-1.567-3.878-5.98-5.751-9.857-4.184l-37.04,14.965
	c-7.648,3.09-13.521-0.935-16.23-5.32c-2.709-4.385-3.677-11.442,2.508-16.895l187.837-165.63v117.497l-106.69,43.105
	c-3.877,1.567-5.751,5.98-4.184,9.857l0,0c1.567,3.877,5.98,5.751,9.857,4.184L207.652,281.5v84.184
	c0,10.189,1.075,20.321,3.144,30.225l-51.069,51.069c-5.238,5.238-6.401,12.877-2.963,19.461c2.949,5.648,8.474,8.961,14.614,8.961
	c1.017,0,2.051-0.091,3.093-0.278l66.376-12.14c2.046,2.504,4.662,4.45,7.608,5.678v33.912c0,4.147,3.196,7.762,7.34,7.887
	c4.288,0.128,7.805-3.31,7.805-7.57v-34.275c2.907-1.234,5.49-3.166,7.51-5.64l66.448,12.154c1.034,0.185,2.062,0.276,3.073,0.276
	c6.124,0,11.654-3.314,14.604-8.964c3.437-6.584,2.274-14.223-2.964-19.461l-51.043-51.043c2.088-9.926,3.174-20.066,3.174-30.25
	v-39.241c0-4.182-3.39-7.573-7.573-7.573l0,0c-4.182,0-7.573,3.39-7.573,7.573v39.241c0,22.586-5.854,44.954-16.936,64.702
	l-8.722,15.613V402.16c0-4.147-3.196-7.762-7.34-7.887c-4.288-0.128-7.805,3.31-7.805,7.569v44.325l-8.8-15.792
	c-11.029-19.651-16.857-42.02-16.857-64.688V83.509c0-20.898,4.841-39.757,14.388-56.051c3.952-6.744,10.986-10.771,18.816-10.775
	c0.004,0,0.007,0,0.011,0c7.829,0,14.865,4.023,18.823,10.762c9.571,16.297,14.423,35.16,14.423,56.064v207.595
	c0,4.182,3.39,7.573,7.573,7.573l0,0c4.182,0,7.573-3.39,7.573-7.573v-9.582l168.385,68.034c3.874,1.565,7.609,2.26,11.132,2.26
	c10.424,0,18.975-6.082,23.658-13.662C513.842,328.013,514.61,312.882,502.201,301.94z M111.252,175.484h28.346v12.002
	l-28.346,24.995V175.484z M296.644,412.768l44.918,44.919c0.208,0.208,0.761,0.761,0.248,1.744s-1.292,0.841-1.556,0.795
	l-61.018-11.161l6.3-11.279C290.022,429.792,293.728,421.408,296.644,412.768z M232.736,449.069l-60.96,11.15
	c-0.293,0.05-1.073,0.194-1.585-0.79c-0.514-0.982,0.039-1.536,0.247-1.743l44.923-44.922c2.905,8.649,6.602,17.028,11.076,25.001
	L232.736,449.069z M372.401,175.484h28.345v36.997l-28.345-24.994V175.484z M494.693,330.195c-2.709,4.385-8.585,8.409-16.23,5.32
	l-174.06-70.326v-117.47L492.185,313.3C498.37,318.754,497.402,325.81,494.693,330.195z"/>
<path d="M233.547,56.765c-2.957,2.957-2.957,7.752,0,10.709c2.958,2.957,7.752,2.957,10.71,0c6.49-6.49,17.05-6.49,23.539,0
	c1.479,1.478,3.418,2.218,5.355,2.218s3.876-0.739,5.355-2.218c2.957-2.957,2.957-7.752,0-10.709
	C266.111,44.37,245.944,44.37,233.547,56.765z"/>
<g>
</g>
<g>
</g>
<g>
</g>
<g>
</g>
<g>
</g>
<g>
</g>
<g>
</g>
<g>
</g>
<g>
</g>
<g>
</g>
<g>
</g>
<g>
</g>
<g>
</g>
<g>
</g>
<g>
</g>
</svg>
