<?xml version="1.0" encoding="iso-8859-1"?>
<!-- Generator: Adobe Illustrator 19.0.0, SVG Export Plug-In . SVG Version: 6.00 Build 0)  -->
<svg version="1.1" id="Layer_1" xmlns="http://www.w3.org/2000/svg" xmlns:xlink="http://www.w3.org/1999/xlink" x="0px" y="0px"
	 viewBox="0 0 270.372 270.372" style="enable-background:new 0 0 270.372 270.372;" xml:space="preserve">
<g>
	<path style="fill:#28D2E4;" d="M237.461,122.569L262.87,99.63c-6.121-14.776-6.136-14.814-12.257-29.591l-34.186,1.746
		c-7.122-7.122-10.72-10.72-17.842-17.841l1.746-34.187c-14.776-6.121-14.814-6.136-29.591-12.257l-22.939,25.408
		c-10.072,0-15.16,0-25.232,0L99.631,7.501c-14.776,6.121-14.814,6.136-29.591,12.257l1.746,34.187
		c-7.122,7.122-10.72,10.72-17.842,17.841L19.758,70.04c-6.12,14.776-6.136,14.815-12.257,29.591l25.408,22.939
		c0,10.072,0,15.16,0,25.232L7.502,170.74c6.12,14.776,6.136,14.814,12.257,29.591l34.187-1.746
		c7.122,7.122,10.72,10.72,17.842,17.842l-1.746,34.186c14.776,6.121,14.814,6.136,29.591,12.257l22.939-25.408
		c10.072,0,15.16,0,25.232,0l22.939,25.408c14.776-6.121,14.814-6.136,29.591-12.257l-1.746-34.186
		c7.122-7.122,10.72-10.72,17.842-17.842l34.186,1.746c6.121-14.776,6.136-14.814,12.257-29.591l-25.408-22.939
		C237.461,137.729,237.461,132.641,237.461,122.569z M135.186,168.185c-18.225,0-33-14.775-33-33s14.775-33,33-33s33,14.775,33,33
		S153.411,168.185,135.186,168.185z"/>
	<g>
		<path style="fill:#22313F;" d="M135.186,94.685c-22.332,0-40.5,18.168-40.5,40.5s18.168,40.5,40.5,40.5s40.5-18.168,40.5-40.5
			S157.518,94.685,135.186,94.685z M135.186,160.685c-14.06,0-25.5-11.439-25.5-25.5s11.439-25.5,25.5-25.5s25.5,11.439,25.5,25.5
			S149.246,160.685,135.186,160.685z"/>
		<path style="fill:#22313F;" d="M244.961,144.468v-18.566l22.934-20.704c2.355-2.127,3.118-5.506,1.903-8.438l-12.257-29.591
			c-1.214-2.931-4.133-4.779-7.311-4.62l-30.858,1.576l-13.127-13.127l1.576-30.857c0.162-3.169-1.688-6.098-4.62-7.312
			L173.61,0.572c-2.931-1.216-6.311-0.451-8.437,1.902l-20.706,22.935h-18.564L105.198,2.474c-2.127-2.354-5.506-3.115-8.437-1.902
			L67.17,12.829c-2.932,1.214-4.782,4.143-4.62,7.312l1.577,30.857L50.999,64.125l-30.858-1.576
			c-3.159-0.169-6.097,1.688-7.311,4.62L0.572,96.76c-1.214,2.932-0.452,6.311,1.903,8.438l22.934,20.704v18.566L2.476,165.172
			c-2.355,2.127-3.118,5.506-1.903,8.438l12.257,29.591c1.214,2.932,4.147,4.794,7.311,4.62l30.858-1.576l13.128,13.127
			l-1.577,30.857c-0.162,3.169,1.688,6.098,4.62,7.312l29.591,12.258c2.932,1.218,6.311,0.452,8.437-1.902l20.706-22.935h18.564
			l20.706,22.935c1.453,1.608,3.489,2.474,5.569,2.474c0.965,0,1.939-0.187,2.868-0.571l29.591-12.258
			c2.932-1.214,4.782-4.143,4.62-7.312l-1.576-30.857l13.127-13.127l30.858,1.576c3.159,0.16,6.097-1.688,7.311-4.62l12.257-29.591
			c1.214-2.932,0.452-6.311-1.903-8.438L244.961,144.468z M245.709,192.571l-28.9-1.477c-2.118-0.114-4.186,0.688-5.686,2.187
			l-17.841,17.841c-1.501,1.501-2.295,3.566-2.187,5.686l1.476,28.9l-19.811,8.206l-19.392-21.48
			c-1.422-1.574-3.445-2.474-5.567-2.474H122.57c-2.122,0-4.145,0.899-5.567,2.474l-19.392,21.48L77.8,245.708l1.477-28.9
			c0.108-2.12-0.687-4.186-2.188-5.686l-17.841-17.841c-1.5-1.5-3.563-2.297-5.686-2.187l-28.9,1.477l-8.206-19.811l21.479-19.392
			c1.575-1.423,2.474-3.445,2.474-5.567v-25.232c0-2.122-0.899-4.145-2.474-5.567L16.456,97.61l8.206-19.811l28.9,1.477
			c2.121,0.112,4.186-0.687,5.686-2.187l17.841-17.841c1.501-1.501,2.296-3.566,2.188-5.687l-1.477-28.9l19.811-8.206l19.392,21.479
			c1.422,1.574,3.445,2.474,5.567,2.474h25.231c2.122,0,4.145-0.899,5.567-2.474l19.392-21.479l19.811,8.206l-1.476,28.9
			c-0.108,2.12,0.686,4.185,2.187,5.687l17.841,17.841c1.501,1.5,3.567,2.31,5.686,2.187l28.9-1.477l8.206,19.811l-21.48,19.392
			c-1.575,1.423-2.474,3.445-2.474,5.567v25.232c0,2.122,0.899,4.145,2.474,5.567l21.48,19.392L245.709,192.571z"/>
		<path style="fill:#22313F;" d="M135.186,64.286c-39.094,0-70.899,31.806-70.899,70.899c0,39.094,31.805,70.899,70.899,70.899
			s70.899-31.806,70.899-70.899C206.084,96.091,174.279,64.286,135.186,64.286z M135.186,191.084
			c-30.823,0-55.899-25.076-55.899-55.899s25.076-55.899,55.899-55.899s55.899,25.076,55.899,55.899
			S166.008,191.084,135.186,191.084z"/>
	</g>
</g>
<g>
</g>
<g>
</g>
<g>
</g>
<g>
</g>
<g>
</g>
<g>
</g>
<g>
</g>
<g>
</g>
<g>
</g>
<g>
</g>
<g>
</g>
<g>
</g>
<g>
</g>
<g>
</g>
<g>
</g>
</svg>
