<?xml version="1.0" encoding="iso-8859-1"?>
<!-- Generator: Adobe Illustrator 19.0.0, SVG Export Plug-In . SVG Version: 6.00 Build 0)  -->
<svg version="1.1" id="Layer_1" xmlns="http://www.w3.org/2000/svg" xmlns:xlink="http://www.w3.org/1999/xlink" x="0px" y="0px"
	 viewBox="0 0 512 512" style="enable-background:new 0 0 512 512;" xml:space="preserve">
<g>
	<rect x="32.547" y="342.917" style="fill:#403E43;" width="86.679" height="119.287"/>
	<rect x="394.156" y="342.917" style="fill:#403E43;" width="86.679" height="119.287"/>
</g>
<polygon style="fill:#458774;" points="418.98,201.234 401.023,49.801 112.356,49.801 93.72,206.965 "/>
<polygon style="fill:#71CE93;" points="136.411,186.752 144.642,87.04 360.381,87.04 368.61,186.752 "/>
<g>
	<polygon style="fill:#2B5448;" points="87.768,197.392 7.619,183.413 7.619,136.814 87.768,136.814 	"/>
	<polygon style="fill:#2B5448;" points="424.232,197.392 504.381,183.413 504.381,136.814 424.232,136.814 	"/>
	<path style="fill:#2B5448;" d="M74.488,322.117v-86.351c0-31.524,25.792-57.316,57.316-57.316h249.77
		c31.524,0,57.316,25.792,57.316,57.316v86.351H74.488z"/>
</g>
<g>
	<circle style="fill:#FFF0BD;" cx="139.664" cy="238.38" r="29.763"/>
	<circle style="fill:#FFF0BD;" cx="371.818" cy="238.38" r="29.763"/>
</g>
<rect x="74.49" y="322.114" style="fill:#346657;" width="364.402" height="48.932"/>
<g>
	<rect x="438.892" y="267.818" style="fill:#458774;" width="41.943" height="103.227"/>
	<rect x="32.547" y="267.818" style="fill:#458774;" width="41.943" height="103.227"/>
</g>
<g style="opacity:0.24;">
	<rect x="58.297" y="371.045" style="fill:#1D1D20;" width="60.927" height="91.149"/>
	<path style="fill:#1D1D20;" d="M340.096,49.801l16.796,146.387c12.841,10.534,21.072,26.507,21.072,138.548v36.31h41.939l0,0v4.734
		v86.419h60.927v-91.153v-28.131v-75.097h-41.939v-32.053c0-17.804-8.231-33.778-21.072-44.311L401.023,49.801H340.096z"/>
</g>
<polygon style="opacity:0.46;fill:#FFFFFF;enable-background:new    ;" points="226.926,87.04 293.014,87.04 264.977,178.448 
	198.222,178.448 "/>
<path d="M504.381,129.196h-80.15c-2.326,0-4.406,1.045-5.803,2.689l-9.839-82.98c-0.455-3.834-3.705-6.722-7.566-6.722H112.356
	c-3.861,0-7.111,2.888-7.566,6.722l-10.059,84.826c-1.184-2.671-3.854-4.536-6.963-4.536H7.619c-4.209,0-7.619,3.41-7.619,7.619
	v46.599c0,3.703,2.661,6.869,6.309,7.506l69.449,12.113c-5.64,9.619-8.889,20.801-8.889,32.734V260.2h-34.32
	c-4.209,0-7.619,3.41-7.619,7.619v103.227c0,0.089,0.01,0.177,0.013,0.266c-0.003,0.089-0.013,0.177-0.013,0.266v90.621
	c0,4.209,3.41,7.619,7.619,7.619h86.674c4.209,0,7.619-3.41,7.619-7.619v-83.534h259.695v83.534c0,4.209,3.41,7.619,7.619,7.619
	h86.674c4.209,0,7.619-3.41,7.619-7.619v-90.621c0-0.089-0.01-0.177-0.013-0.266c0.003-0.089,0.013-0.177,0.013-0.266V267.818
	c0-4.208-3.41-7.619-7.619-7.619h-34.319v-24.434c0-12.022-3.296-23.284-9.015-32.952l68.196-11.894
	c3.648-0.637,6.309-3.803,6.309-7.506v-46.599C512,132.606,508.59,129.196,504.381,129.196z M82.106,363.427v-33.691h349.167v33.691
	H82.106z M431.273,267.817v46.68H319.869V213.518c0-4.209-3.41-7.619-7.619-7.619c-4.208,0-7.619,3.41-7.619,7.619v100.979h-22.326
	V213.518c0-4.209-3.41-7.619-7.619-7.619c-4.209,0-7.619,3.41-7.619,7.619v100.979h-22.325V213.518c0-4.209-3.41-7.619-7.619-7.619
	c-4.209,0-7.619,3.41-7.619,7.619v100.979H210.94V213.518c0-4.209-3.41-7.619-7.619-7.619c-4.209,0-7.619,3.41-7.619,7.619v100.979
	H82.106v-46.68v-32.053c0-27.405,22.294-49.699,49.699-49.699h249.77c27.405,0,49.699,22.294,49.699,49.699V267.817z
	 M144.592,170.83l7-76.17h201.837l7,76.17H144.592z M119.125,57.419h275.131l14.136,119.23c-8.181-3.726-17.257-5.82-26.817-5.82
	h-5.843l-7.765-84.486c-0.36-3.92-3.65-6.921-7.587-6.921H144.642c-3.937,0-7.226,3.001-7.587,6.921l-7.77,84.55
	c-8.635,0.331-16.839,2.359-24.297,5.757L119.125,57.419z M15.237,144.433H80.15v43.898l-64.912-11.322V144.433z M40.167,275.436
	h26.702v46.68v41.31H40.167V275.436z M111.604,454.58H40.167v-75.383h71.437V454.58z M473.212,454.58h-71.437v-75.383h71.437V454.58
	z M473.212,275.436v87.99h-26.702v-41.31v-46.68H473.212z M496.763,177.009l-64.912,11.322v-43.898h64.912V177.009z"/>
<path d="M139.664,200.997c-20.611,0-37.38,16.769-37.38,37.381s16.769,37.381,37.38,37.381c20.612,0,37.381-16.769,37.381-37.381
	S160.276,200.997,139.664,200.997z M139.664,260.522c-12.21,0-22.143-9.934-22.143-22.144s9.933-22.144,22.143-22.144
	c12.21,0,22.144,9.934,22.144,22.144S151.874,260.522,139.664,260.522z"/>
<path d="M371.813,200.997c-20.611,0-37.38,16.769-37.38,37.381s16.769,37.381,37.38,37.381c20.612,0,37.381-16.769,37.381-37.381
	S392.425,200.997,371.813,200.997z M371.813,260.522c-12.21,0-22.143-9.934-22.143-22.144s9.933-22.144,22.143-22.144
	s22.144,9.934,22.144,22.144S384.023,260.522,371.813,260.522z"/>
<g>
</g>
<g>
</g>
<g>
</g>
<g>
</g>
<g>
</g>
<g>
</g>
<g>
</g>
<g>
</g>
<g>
</g>
<g>
</g>
<g>
</g>
<g>
</g>
<g>
</g>
<g>
</g>
<g>
</g>
</svg>
