<?xml version="1.0" encoding="iso-8859-1"?>
<!-- Generator: Adobe Illustrator 19.0.0, SVG Export Plug-In . SVG Version: 6.00 Build 0)  -->
<svg version="1.1" id="Capa_1" xmlns="http://www.w3.org/2000/svg" xmlns:xlink="http://www.w3.org/1999/xlink" x="0px" y="0px"
	 viewBox="0 0 512 512" style="enable-background:new 0 0 512 512;" xml:space="preserve">
<path style="fill:#5A6B96;" d="M36.904,203.866c-15.921,0-28.873-12.948-28.873-28.863c0-7.709,3.004-14.958,8.459-20.414
	c5.448-5.448,12.699-8.449,20.414-8.449h50.071l-21.828,57.725H36.904z"/>
<path style="fill:#44C973;" d="M133.963,203.866v-2.008c0-26.227,21.337-47.566,47.566-47.566s47.566,21.337,47.566,47.566v2.008
	H133.963z"/>
<g>
	<path style="fill:#FBC8AD;" d="M181.529,158.308c-14.509,0-26.313-11.804-26.313-26.313c0-14.515,11.804-26.323,26.313-26.323
		c14.515,0,26.323,11.808,26.323,26.323C207.852,146.504,196.044,158.308,181.529,158.308z"/>
	<path style="fill:#FBC8AD;" d="M330.471,158.308c-14.509,0-26.313-11.804-26.313-26.313c0-14.515,11.804-26.323,26.313-26.323
		c14.515,0,26.323,11.808,26.323,26.323C356.794,146.504,344.986,158.308,330.471,158.308z"/>
</g>
<path style="fill:#45CCFF;" d="M282.905,203.866v-2.008c0-26.227,21.338-47.566,47.566-47.566s47.566,21.337,47.566,47.566v2.008
	H282.905z"/>
<path style="fill:#EFEFEF;" d="M374.021,203.866v-2.008c0-24.014-19.536-43.55-43.55-43.55s-43.55,19.536-43.55,43.55v2.008h-61.842
	v-2.008c0-24.014-19.536-43.55-43.55-43.55s-43.55,19.536-43.55,43.55v2.008H60.853l21.337-56.428l26.493-70.034
	c5.792-15.313,20.679-25.602,37.046-25.602h220.541c16.367,0,31.254,10.289,37.046,25.602l26.493,70.034l21.337,56.428H374.021z
	 M330.471,109.688c-12.295,0-22.297,10.007-22.297,22.307c0,12.295,10.002,22.297,22.297,22.297c12.3,0,22.307-10.002,22.307-22.297
	C352.778,119.696,342.771,109.688,330.471,109.688z M181.529,109.688c-12.295,0-22.297,10.007-22.297,22.307
	c0,12.295,10.002,22.297,22.297,22.297c12.3,0,22.307-10.002,22.307-22.297C203.836,119.696,193.829,109.688,181.529,109.688z"/>
<path style="fill:#5A6B96;" d="M446.854,203.866l-21.828-57.725h50.071c15.92,0,28.873,12.948,28.873,28.863
	c0,7.703-3.004,14.949-8.459,20.404c-5.443,5.454-12.694,8.459-20.414,8.459H446.854z"/>
<g>
	<path style="fill:#FBC640;" d="M408.114,331.836c-18.5,0-33.551-15.051-33.551-33.551c0-18.506,15.051-33.561,33.551-33.561
		s33.551,15.056,33.551,33.561C441.665,316.785,426.614,331.836,408.114,331.836z"/>
	<path style="fill:#FBC640;" d="M103.886,331.836c-18.5,0-33.551-15.051-33.551-33.551c0-18.506,15.051-33.561,33.551-33.561
		s33.551,15.056,33.551,33.561C137.437,316.785,122.386,331.836,103.886,331.836z"/>
</g>
<path style="fill:#FF4F4F;" d="M64.753,396.71c-31.276,0-56.722-25.44-56.722-56.712v-83.426c0-31.276,25.445-56.722,56.722-56.722
	h382.494c31.276,0,56.722,25.445,56.722,56.722v83.426c0,31.271-25.445,56.712-56.722,56.712H64.753z M408.114,268.74
	c-16.286,0-29.535,13.254-29.535,29.545c0,16.286,13.25,29.535,29.535,29.535c16.286,0,29.535-13.25,29.535-29.535
	C437.65,281.994,424.4,268.74,408.114,268.74z M103.886,268.74c-16.286,0-29.535,13.254-29.535,29.545
	c0,16.286,13.25,29.535,29.535,29.535s29.535-13.25,29.535-29.535C133.421,281.994,120.171,268.74,103.886,268.74z"/>
<g>
	<path style="fill:#5A6B96;" d="M85.685,460.198c-8.464,0-15.35-6.886-15.35-15.35v-52.154h67.102v52.154
		c0,8.464-6.886,15.35-15.35,15.35H85.685z"/>
	<path style="fill:#5A6B96;" d="M389.913,460.198c-8.464,0-15.35-6.886-15.35-15.35v-52.154h67.102v52.154
		c0,8.464-6.886,15.35-15.35,15.35H389.913z"/>
</g>
<path d="M103.886,256.693c-22.929,0-41.582,18.658-41.582,41.592c0,22.929,18.654,41.582,41.582,41.582s41.582-18.654,41.582-41.582
	C145.468,275.351,126.814,256.693,103.886,256.693z M103.886,319.789c-11.857,0-21.504-9.647-21.504-21.504
	c0-11.862,9.647-21.514,21.504-21.514s21.504,9.652,21.504,21.514C125.39,310.142,115.743,319.789,103.886,319.789z"/>
<path d="M408.114,256.693c-22.929,0-41.582,18.658-41.582,41.592c0,22.929,18.654,41.582,41.582,41.582
	c22.929,0,41.582-18.654,41.582-41.582C449.697,275.351,431.043,256.693,408.114,256.693z M408.114,319.789
	c-11.857,0-21.504-9.647-21.504-21.504c0-11.862,9.647-21.514,21.504-21.514c11.857,0,21.504,9.652,21.504,21.514
	C429.618,310.142,419.972,319.789,408.114,319.789z"/>
<path d="M339.245,270.065h-166.49c-5.545,0-10.039,4.495-10.039,10.039c0,5.545,4.495,10.039,10.039,10.039h166.49
	c5.545,0,10.039-4.495,10.039-10.039C349.284,274.56,344.79,270.065,339.245,270.065z"/>
<path d="M316.848,306.417H195.152c-5.545,0-10.039,4.495-10.039,10.039c0,5.545,4.495,10.039,10.039,10.039h121.695
	c5.545,0,10.039-4.495,10.039-10.039C326.887,310.911,322.392,306.417,316.848,306.417z"/>
<path d="M512,175.004c0-20.343-16.555-36.894-36.904-36.894h-40.233l-24.035-63.545c-6.965-18.419-24.871-30.793-44.557-30.793
	H145.729c-19.686,0-37.592,12.374-44.557,30.792l-24.035,63.546H36.904c-9.861,0-19.127,3.836-26.093,10.801
	C3.839,155.883,0,165.149,0,175.004c0,14.823,8.794,27.625,21.437,33.485C8.284,220.349,0,237.51,0,256.572v83.426
	c0,34.878,27.73,63.387,62.303,64.681v40.169c0,12.892,10.489,23.381,23.381,23.381h36.402c12.892,0,23.381-10.489,23.381-23.381
	v-40.107h221.064v40.107c0,12.892,10.489,23.381,23.381,23.381h36.402c12.892,0,23.381-10.489,23.381-23.381v-40.169
	C484.27,403.385,512,374.876,512,339.998v-83.426c0-19.052-8.274-36.206-21.415-48.066c3.896-1.803,7.484-4.294,10.604-7.42
	C508.161,194.115,512,184.852,512,175.004z M119.952,81.667c4.031-10.658,14.39-17.818,25.778-17.818h220.541
	c11.387,0,21.747,7.16,25.778,17.818l41.663,110.152h-48.569c-3.039-16.588-13.455-30.624-27.72-38.566
	c4.629-5.853,7.402-13.236,7.402-21.258c0-18.943-15.411-34.354-34.354-34.354c-18.937,0-34.344,15.411-34.344,34.354
	c0,8.021,2.772,15.403,7.398,21.255c-14.268,7.941-24.685,21.978-27.725,38.569h-39.598c-3.039-16.588-13.455-30.624-27.72-38.566
	c4.629-5.853,7.402-13.236,7.402-21.258c0-18.943-15.411-34.354-34.354-34.354c-18.937,0-34.344,15.411-34.344,34.354
	c0,8.021,2.772,15.403,7.398,21.255c-14.268,7.941-24.685,21.979-27.725,38.569H78.289L119.952,81.667z M316.205,131.996
	c0-7.872,6.4-14.276,14.266-14.276c7.872,0,14.276,6.404,14.276,14.276c0,7.866-6.404,14.266-14.276,14.266
	C322.605,146.261,316.205,139.861,316.205,131.996z M330.471,166.34c16.099,0,29.722,10.769,34.065,25.48h-68.13
	C300.749,177.109,314.372,166.34,330.471,166.34z M167.263,131.996c0-7.872,6.4-14.276,14.266-14.276
	c7.872,0,14.276,6.404,14.276,14.276c0,7.866-6.404,14.266-14.276,14.266C173.662,146.261,167.263,139.861,167.263,131.996z
	 M181.529,166.34c16.099,0,29.722,10.769,34.065,25.48h-68.13C151.807,177.109,165.43,166.34,181.529,166.34z M25.009,163.108
	c3.173-3.173,7.398-4.92,11.895-4.92h32.64l-12.721,33.631H36.904c-9.277,0-16.826-7.543-16.826-16.816
	C20.078,170.512,21.829,166.288,25.009,163.108z M125.39,444.848c0,1.821-1.482,3.303-3.303,3.303H85.685
	c-1.821,0-3.303-1.482-3.303-3.303v-40.107h43.008C125.39,404.741,125.39,444.848,125.39,444.848z M429.618,444.848
	c0,1.821-1.482,3.303-3.303,3.303h-36.402c-1.821,0-3.303-1.482-3.303-3.303v-40.107h43.008L429.618,444.848L429.618,444.848z
	 M491.922,339.998c0,24.628-20.04,44.664-44.675,44.664h-7.59h-63.086H135.429H72.343h-7.59c-24.634,0-44.675-20.036-44.675-44.664
	v-83.426c0-24.634,20.04-44.674,44.675-44.674h382.494c24.634,0,44.675,20.04,44.675,44.674V339.998z M486.984,186.896
	c-3.168,3.174-7.39,4.923-11.888,4.923h-19.919l-12.721-33.631h32.639c9.277,0,16.826,7.543,16.826,16.816
	C491.922,179.489,490.171,183.71,486.984,186.896z"/>
<path d="M272.675,91.357h56.22c5.545,0,10.039-4.495,10.039-10.039s-4.495-10.039-10.039-10.039h-56.22
	c-5.545,0-10.039,4.495-10.039,10.039S267.13,91.357,272.675,91.357z"/>
<path d="M361.02,91.357c12.919,0,12.941-20.078,0-20.078C348.101,71.278,348.08,91.357,361.02,91.357z"/>
<g>
</g>
<g>
</g>
<g>
</g>
<g>
</g>
<g>
</g>
<g>
</g>
<g>
</g>
<g>
</g>
<g>
</g>
<g>
</g>
<g>
</g>
<g>
</g>
<g>
</g>
<g>
</g>
<g>
</g>
</svg>
