<?xml version="1.0" encoding="iso-8859-1"?>
<!-- Generator: Adobe Illustrator 19.0.0, SVG Export Plug-In . SVG Version: 6.00 Build 0)  -->
<svg version="1.1" id="Layer_1" xmlns="http://www.w3.org/2000/svg" xmlns:xlink="http://www.w3.org/1999/xlink" x="0px" y="0px"
	 viewBox="0 0 512 512" style="enable-background:new 0 0 512 512;" xml:space="preserve">
<path style="fill:#97DBFF;" d="M352,240H160c-17.68,0-32-14.32-32-32V80c0-35.344,28.656-64,64-64h128c35.344,0,64,28.656,64,64v128
	C384,225.68,369.68,240,352,240z"/>
<path style="fill:#4E5F80;" d="M320,0H192c-44.192,0.016-79.984,35.808-80,80v128c0.016,26.512,21.488,48,48,48h192
	c26.512,0,47.984-21.488,48-48V80C399.984,35.808,364.192,0.016,320,0z M368,208c-0.016,8.832-7.168,15.984-16,16H160
	c-8.832-0.016-15.984-7.168-16-16V80c0.048-26.512,21.488-48,48-48h128c26.496,0,47.952,21.488,48,48V208z"/>
<g>
	<path style="fill:#4E5F80;" d="M256,224c-8.832,0-16,7.168-16,16v256c0,8.832,7.168,16,16,16s16-7.168,16-16V240
		C272,231.168,264.832,224,256,224z"/>
	<path style="fill:#4E5F80;" d="M368,448H256H144c-8.832,0-16,7.168-16,16s7.168,16,16,16l0,0h112h112c8.832,0,16-7.168,16-16
		S376.832,448,368,448z"/>
	<path style="fill:#4E5F80;" d="M80,256v48c0.016,26.512,21.488,47.984,48,48h256c26.512-0.016,47.984-21.488,48-48v-48
		c0-8.832-7.168-16-16-16s-16,7.168-16,16v48c-0.016,8.832-7.168,15.984-16,16H128c-8.832-0.016-15.984-7.168-16-16v-48
		c0-8.832-7.168-16-16-16S80,247.168,80,256L80,256z"/>
	<path style="fill:#4E5F80;" d="M80,272v-16l0,0l0,0l0,0V272v16c17.712-0.032,31.968-14.32,32-32c-0.032-17.68-14.288-31.968-32-32
		c-17.712,0.032-31.968,14.32-32,32c0.032,17.68,14.288,31.968,32,32V272z"/>
	<path style="fill:#4E5F80;" d="M432,272v16c17.712-0.032,31.968-14.32,32-32c-0.032-17.68-14.288-31.968-32-32
		c-17.712,0.032-31.968,14.32-32,32c0.032,17.68,14.288,31.968,32,32V272v-16l0,0l0,0l0,0V272z"/>
</g>
<path style="fill:#97DBFF;" d="M352,304H160c-17.68,0-32,14.32-32,32s14.32,32,32,32h192c17.68,0,32-14.32,32-32S369.68,304,352,304
	z"/>
<g>
	<path style="fill:#4E5F80;" d="M352,288H160c-26.512,0.016-47.984,21.488-48,48c0.016,26.512,21.488,48,48,48h192
		c26.512,0,47.984-21.488,48-48C399.984,309.488,378.512,288.016,352,288z M352,352H160c-8.832-0.016-15.984-7.168-16-16
		c0.016-8.832,7.168-16,16-16h192c8.832,0,15.984,7.168,16,16C367.984,344.832,360.832,351.984,352,352z"/>
	<path style="fill:#4E5F80;" d="M144,496v-16l0,0l0,0l0,0V496v16c17.712-0.032,31.968-14.32,32-32c-0.032-17.68-14.288-31.968-32-32
		c-17.712,0.032-31.968,14.32-32,32c0.032,17.68,14.288,31.968,32,32V496z"/>
	<path style="fill:#4E5F80;" d="M368,496v-16l0,0l0,0l0,0V496v16c17.712-0.032,31.968-14.32,32-32c-0.032-17.68-14.288-31.968-32-32
		c-17.712,0.032-31.968,14.32-32,32c0.032,17.68,14.288,31.968,32,32V496z"/>
</g>
<g>
</g>
<g>
</g>
<g>
</g>
<g>
</g>
<g>
</g>
<g>
</g>
<g>
</g>
<g>
</g>
<g>
</g>
<g>
</g>
<g>
</g>
<g>
</g>
<g>
</g>
<g>
</g>
<g>
</g>
</svg>
