<?xml version="1.0" encoding="UTF-8" standalone="no"?>
<!-- Created with Inkscape (http://www.inkscape.org/) -->

<svg
   xmlns:dc="http://purl.org/dc/elements/1.1/"
   xmlns:cc="http://creativecommons.org/ns#"
   xmlns:rdf="http://www.w3.org/1999/02/22-rdf-syntax-ns#"
   xmlns:svg="http://www.w3.org/2000/svg"
   xmlns="http://www.w3.org/2000/svg"
   xmlns:sodipodi="http://sodipodi.sourceforge.net/DTD/sodipodi-0.dtd"
   xmlns:inkscape="http://www.inkscape.org/namespaces/inkscape"
   id="svg3576"
   sodipodi:docname="Pajarito-woodpecker.svg"
   viewBox="0 0 448.63464 733.16316"
   version="1.1"
   inkscape:version="0.91 r13725"
   width="448.63464"
   height="733.16315">
  <defs
     id="defs16" />
  <sodipodi:namedview
     id="base"
     bordercolor="#666666"
     inkscape:pageshadow="2"
     inkscape:window-y="0"
     pagecolor="#ffffff"
     inkscape:window-height="452"
     inkscape:window-maximized="0"
     inkscape:zoom="0.54781349"
     inkscape:window-x="0"
     showgrid="false"
     borderopacity="1.0"
     inkscape:current-layer="layer1"
     inkscape:cx="55.085782"
     inkscape:cy="338.8992"
     inkscape:window-width="512"
     inkscape:pageopacity="0.0"
     inkscape:document-units="px"
     fit-margin-top="0"
     fit-margin-left="0"
     fit-margin-right="0"
     fit-margin-bottom="0" />
  <g
     id="layer1"
     inkscape:label="Layer 1"
     inkscape:groupmode="layer"
     transform="translate(-74.365814,136.42445)">
    <path
       id="path4643"
       d="m 188.72022,323.23614 -46.677,3.42917 -14.19296,-18.20988 9.0977,19.18379 -11.04594,3.23962 11.36245,2.16522 -6.95361,18.80503 12.58647,-18.72745 46.55861,-2.8736 z"
       sodipodi:nodetypes="cccccccccc"
       style="fill:#1a1a1a"
       inkscape:connector-curvature="0"
       inkscape:transform-center-x="28.516871"
       inkscape:transform-center-y="3.3419817" />
    <path
       id="path4620"
       sodipodi:nodetypes="cacsscssssc"
       style="fill:#ff5555"
       inkscape:connector-curvature="0"
       d="m 283.31363,-17.660989 c 34.67929,-10.215696 74.83291,1.228485 106.99808,17.73291157 30.21375,15.50298843 64.867,38.76167343 72.14377,71.93218143 36.23149,92.834076 -115.43086,185.050326 -100.94145,250.830306 13.18607,59.83538 54.72526,68.32442 70.04627,74.71129 26.69397,11.12772 86.20166,9.84729 86.20166,9.84729 0,0 -77.59983,33.69731 -150.69459,22.29358 -34.10867,-5.3214 -92.63166,-21.5232 -149.3622,-61.04689 -4.88943,-3.40643 -12.95329,-2.93988 -17.78459,-6.83331 -6.30839,-5.08378 -7.01088,-17.9944 -13.07222,-24.15481 -81.73849,-83.07445 -18.44188,-318.79418 96.46527,-355.312549 z" />
    <path
       id="path4622"
       sodipodi:rx="44.87484"
       sodipodi:ry="44.87484"
       style="fill:#ffffff"
       sodipodi:type="arc"
       d="m 376.59655,-81.973206 a 44.87484,44.87484 0 0 1 -44.70097,44.874503 44.87484,44.87484 0 0 1 -45.04736,-44.52676 44.87484,44.87484 0 0 1 44.35188,-45.219547 44.87484,44.87484 0 0 1 45.39106,44.176339"
       sodipodi:open="true"
       transform="matrix(0.84109421,0.54088864,-0.54088864,0.84109421,0,0)"
       sodipodi:cy="-81.973206"
       sodipodi:cx="331.72171"
       sodipodi:end="6.2676868"
       sodipodi:start="0" />
    <path
       id="path4625"
       sodipodi:rx="20.503304"
       sodipodi:ry="20.503304"
       style="fill:#ffffff"
       sodipodi:type="arc"
       d="m 253.11367,-80.227196 a 20.503304,20.503304 0 0 1 -20.42386,20.50315 20.503304,20.503304 0 0 1 -20.58213,-20.344266 20.503304,20.503304 0 0 1 20.26436,-20.660798 20.503304,20.503304 0 0 1 20.73917,20.184156"
       sodipodi:open="true"
       transform="matrix(0.84109421,0.54088864,-0.54088864,0.84109421,0,0)"
       sodipodi:cy="-80.227196"
       sodipodi:cx="232.61037"
       sodipodi:end="6.2676868"
       sodipodi:start="0" />
    <path
       id="path4628"
       sodipodi:rx="6.7971711"
       sodipodi:ry="6.7971711"
       style="fill:#333333"
       sodipodi:type="arc"
       sodipodi:start="0"
       sodipodi:open="true"
       transform="matrix(0.84109421,0.54088864,-0.54088864,0.84109421,0,0)"
       sodipodi:cy="-75.990883"
       sodipodi:cx="297.10791"
       sodipodi:end="6.2676868"
       d="m 303.90508,-75.990883 a 6.7971711,6.7971711 0 0 1 -6.77083,6.79712 6.7971711,6.7971711 0 0 1 -6.82331,-6.744447 6.7971711,6.7971711 0 0 1 6.71796,-6.849385 6.7971711,6.7971711 0 0 1 6.87536,6.69137" />
    <path
       id="path4630"
       sodipodi:rx="4.3809724"
       sodipodi:ry="4.3809724"
       style="fill:#333333"
       sodipodi:type="arc"
       d="m 223.19355,-74.955902 a 4.3809724,4.3809724 0 0 1 -4.364,4.380939 4.3809724,4.3809724 0 0 1 -4.39781,-4.34699 4.3809724,4.3809724 0 0 1 4.32991,-4.414626 4.3809724,4.3809724 0 0 1 4.43137,4.312781"
       sodipodi:open="true"
       transform="matrix(0.84109421,0.54088864,-0.54088864,0.84109421,0,0)"
       sodipodi:cy="-74.955902"
       sodipodi:cx="218.81258"
       sodipodi:end="6.2676868"
       sodipodi:start="0" />
    <path
       id="path4633"
       sodipodi:nodetypes="scccss"
       style="fill:#2b0000;fill-opacity:0.47340004"
       inkscape:connector-curvature="0"
       d="m 301.12543,234.17805 c 26.26893,13.95096 33.36299,74.68071 64.32307,109.94181 -16.72743,-6.88257 -25.67525,-14.40195 -30.90877,-22.14228 1.29958,10.53593 11.23857,22.20543 36.75313,43.28971 -38.26691,-15.03751 -106.9527,-39.96064 -112.63106,-86.56429 -2.19618,-18.01422 24.14624,-54.25399 42.46108,-44.52659 z"
       inkscape:transform-center-x="-26.37983"
       inkscape:transform-center-y="30.046882" />
    <path
       id="path4647"
       sodipodi:nodetypes="csscc"
       style="fill:#ff8080"
       inkscape:connector-curvature="0"
       d="m 155.60846,167.48787 c 0,0 21.63216,-19.82585 46.30896,-2.54432 28.39149,19.88224 43.72849,50.48215 29.02054,104.84781 -11.02302,40.74665 -47.09093,64.93095 -47.09093,64.93095 -41.02721,-44.83225 -37.7276,-123.65491 -28.23935,-167.23969 z" />
    <path
       id="path4635-8"
       sodipodi:nodetypes="cccc"
       style="fill:#f0e7c6;fill-opacity:1"
       inkscape:connector-curvature="0"
       d="m 181.47027,78.891144 -69.71756,12.169696 64.23677,31.38011 z"
       inkscape:transform-center-x="28.853269"
       inkscape:transform-center-y="0.27738161" />
    <path
       style="color:#000000;clip-rule:nonzero;display:inline;overflow:visible;visibility:visible;opacity:1;isolation:auto;mix-blend-mode:normal;color-interpolation:sRGB;color-interpolation-filters:linearRGB;solid-color:#000000;solid-opacity:1;fill:#aa4400;fill-opacity:1;fill-rule:nonzero;stroke:none;stroke-width:1;stroke-linecap:butt;stroke-linejoin:miter;stroke-miterlimit:4;stroke-dasharray:none;stroke-dashoffset:0;stroke-opacity:1;color-rendering:auto;image-rendering:auto;shape-rendering:auto;text-rendering:auto;enable-background:accumulate"
       d="m 74.365814,-136.42445 59.375886,0 0,211.042548 -17.42553,16.780142 17.42553,29.04255 0,476.2979 -59.375886,0 z"
       id="rect3359"
       inkscape:connector-curvature="0"
       sodipodi:nodetypes="cccccccc" />
    <path
       id="path4635-0"
       sodipodi:nodetypes="cccc"
       style="fill:#f5dc7a;fill-opacity:1"
       inkscape:connector-curvature="0"
       d="m 187.47027,78.891144 -69.71756,12.169696 64.23677,31.38011 z"
       inkscape:transform-center-x="28.853269"
       inkscape:transform-center-y="0.27738161" />
    <path
       id="path4635"
       sodipodi:nodetypes="cccc"
       style="fill:#ffd42a"
       inkscape:connector-curvature="0"
       d="m 193.47027,78.891145 -69.71756,12.169696 64.23677,31.380109 z"
       inkscape:transform-center-x="28.853269"
       inkscape:transform-center-y="0.27738161" />
    <path
       id="path4637"
       sodipodi:nodetypes="cccccccccc"
       style="fill:#1a1a1a"
       inkscape:connector-curvature="0"
       d="m 201.51989,350.8421 -58.26687,11.06243 -15.57115,-17.04638 10.56756,18.41505 -10.75933,4.092 11.49678,1.27154 -5.46443,19.29047 11.08615,-19.65284 58.19222,-10.4993 z"
       inkscape:transform-center-x="28.481646"
       inkscape:transform-center-y="8.0892667" />
    <path
       style="fill:none;fill-opacity:1;fill-rule:evenodd;stroke:#ff5555;stroke-width:6.0999999;stroke-linecap:butt;stroke-linejoin:miter;stroke-miterlimit:4;stroke-dasharray:none;stroke-opacity:1"
       d="m 487.50068,62.504975 c 0,0 8.01452,29.585174 6.43491,45.857435 -1.57961,16.27226 -17.9222,50.57763 -17.9222,50.57763"
       id="path4162"
       inkscape:connector-curvature="0"
       sodipodi:nodetypes="czc" />
    <path
       style="fill:none;fill-opacity:1;fill-rule:evenodd;stroke:#ff5555;stroke-width:6.0999999;stroke-linecap:butt;stroke-linejoin:miter;stroke-miterlimit:4;stroke-dasharray:none;stroke-opacity:1"
       d="m 515.18284,79.710822 c 0,0 6.07835,19.258937 4.49874,35.531198 -1.57961,16.27226 -12.75908,39.60599 -12.75908,39.60599"
       id="path4162-5"
       inkscape:connector-curvature="0"
       sodipodi:nodetypes="czc" />
    <path
       style="fill:#aa4400;fill-opacity:1;fill-rule:evenodd;stroke:none;stroke-width:1px;stroke-linecap:butt;stroke-linejoin:miter;stroke-opacity:1"
       d="m 140.4699,58.009524 7.21593,3.650367 -10.8208,18.423498 z"
       id="path4179"
       inkscape:connector-curvature="0"
       sodipodi:nodetypes="cccc" />
    <path
       style="fill:#aa4400;fill-opacity:1;fill-rule:evenodd;stroke:none;stroke-width:1px;stroke-linecap:butt;stroke-linejoin:miter;stroke-opacity:1"
       d="m 148.64689,71.305538 19.1671,-9.127194 -1.82544,-4.107237 z"
       id="path4181"
       inkscape:connector-curvature="0" />
    <path
       style="fill:#aa4400;fill-opacity:1;fill-rule:evenodd;stroke:none;stroke-width:1px;stroke-linecap:butt;stroke-linejoin:miter;stroke-opacity:1"
       d="m 138.83515,112.83427 11.86535,15.51623 -12.77807,1.36908 z"
       id="path4183"
       inkscape:connector-curvature="0" />
  </g>
  <metadata
     id="metadata16">
    <rdf:RDF>
      <cc:Work>
        <dc:format>image/svg+xml</dc:format>
        <dc:type
           rdf:resource="http://purl.org/dc/dcmitype/StillImage" />
        <cc:license
           rdf:resource="http://creativecommons.org/publicdomain/zero/1.0/" />
        <dc:publisher>
          <cc:Agent
             rdf:about="http://openclipart.org/">
            <dc:title>Openclipart</dc:title>
          </cc:Agent>
        </dc:publisher>
        <dc:title></dc:title>
      </cc:Work>
      <cc:License
         rdf:about="http://creativecommons.org/publicdomain/zero/1.0/">
        <cc:permits
           rdf:resource="http://creativecommons.org/ns#Reproduction" />
        <cc:permits
           rdf:resource="http://creativecommons.org/ns#Distribution" />
        <cc:permits
           rdf:resource="http://creativecommons.org/ns#DerivativeWorks" />
      </cc:License>
    </rdf:RDF>
  </metadata>
</svg>
